<?xml version="1.0" encoding="utf-8"?>
<!-- Generator: Adobe Illustrator 24.3.0, SVG Export Plug-In . SVG Version: 6.00 Build 0)  -->
<svg version="1.1" id="Layer_1" xmlns="http://www.w3.org/2000/svg" xmlns:xlink="http://www.w3.org/1999/xlink" x="0px" y="0px"
	 width="1080px" height="1080px" viewBox="0 0 1080 1080" style="enable-background:new 0 0 1080 1080;" xml:space="preserve">
<style type="text/css">
	.st0{fill:#FFED7D;}
	.st1{clip-path:url(#SVGID_2_);}
	.st2{fill:#F6E9A0;stroke:#C19A7C;stroke-width:7;stroke-linecap:round;stroke-linejoin:round;}
	
		.st3{opacity:0.6;fill:#F6E9A0;stroke:#C19A7C;stroke-width:7;stroke-linecap:round;stroke-linejoin:round;enable-background:new    ;}
	.st4{fill:#FAD3D5;}
	.st5{fill:#F6E9A0;stroke:#EE8186;stroke-width:7;stroke-miterlimit:10;}
	.st6{fill:#F2A2B0;stroke:#EE8186;stroke-width:7;stroke-miterlimit:10;}
	.st7{fill:#F6E9A0;}
	.st8{fill:#EE8186;}
	.st9{fill:#FFFFFF;}
	.st10{font-family:'Courier-Bold';}
	.st11{font-size:57.24px;}
	.st12{fill:#F2A2B0;}
</style>
<g id="bg">
	<rect class="st0" width="1080" height="1080"/>
	<g>
		<defs>
			<rect id="SVGID_1_" width="1080" height="1080"/>
		</defs>
		<clipPath id="SVGID_2_">
			<use xlink:href="#SVGID_1_"  style="overflow:visible;"/>
		</clipPath>
		<g class="st1">
			<path class="st2" d="M275.27,129.93c-32.26-6.17-66.19-27.83-95.07-29.55c-33.92-2-49,5.56-62.8,10.59l-247,105.82l-11.23-16.5
				L121.61,91c18.32-7.33,37.68-11.74,57.48-11.06c17,0.57,33.68,4.54,50.16,8.25c24.82,5.71,13.94,3.25,32.63,7.43
				C285.74,106.07,292.44,123.23,275.27,129.93z"/>
			<path class="st2" d="M-42,313.13c10.8-31,9-71.25,22-97.11c15.21-30.39,29.32-39.68,40.57-49.09L235.64,5.9l-8.68-18L1.05,160.58
				c-15.51,12.19-29,26.76-38.32,44.24c-8,15-12.9,31.44-17.93,47.57c-7.46,24.35-4.16,13.69-9.87,32
				C-67.93,310.27-56.42,324.65-42,313.13z"/>
			<path class="st3" d="M-97.15,111.22L-62,91c34.37-19.85,78.32-8.08,98.17,26.29c0,0,0,0.01,0,0.01l1.85,3.2
				c19.84,34.37,8.06,78.33-26.31,98.17l-35.11,20.27c-34.37,19.84-78.32,8.07-98.16-26.3c0,0,0-0.01-0.01-0.01l-1.84-3.19
				c-19.88-34.35-8.14-78.31,26.21-98.19C-97.19,111.24-97.17,111.23-97.15,111.22z"/>
			<path class="st2" d="M-21.6,242.08c-36.13,20.86-82.33,8.48-103.19-27.64c0-0.01-0.01-0.01-0.01-0.02l-1.85-3.18
				c-20.88-36.13-8.51-82.35,27.62-103.23c0.01,0,0.02-0.01,0.03-0.01l35.11-20.27c36.14-20.86,82.35-8.47,103.21,27.67
				c0,0,0,0.01,0.01,0.01l1.84,3.19c20.86,36.14,8.48,82.35-27.66,103.21L-21.6,242.08z M-25.28,235.7l35.11-20.27
				c32.62-18.82,43.82-60.51,25-93.14c0,0,0,0,0,0l-1.84-3.19c-18.81-32.62-60.5-43.82-93.12-25.01c-0.01,0-0.01,0.01-0.02,0.01
				l-35.1,20.27c-32.62,18.8-43.82,60.47-25.02,93.09c0.01,0.01,0.02,0.03,0.02,0.04l1.84,3.2
				C-99.59,243.32-57.9,254.51-25.28,235.7z"/>
			<path class="st3" d="M94.36,0.65l35.1-20.27c34.38-19.84,78.33-8.06,98.18,26.31l1.84,3.19c19.85,34.37,8.08,78.33-26.3,98.18
				c0,0,0,0,0,0l-35.11,20.27c-34.38,19.84-78.33,8.05-98.17-26.33c0,0,0,0,0,0l-1.85-3.19C48.22,64.44,60,20.5,94.36,0.65z"/>
			<path class="st2" d="M169.91,131.52c-36.14,20.85-82.34,8.47-103.21-27.66l-1.84-3.19C44,64.53,56.38,18.32,92.52-2.54
				l35.11-20.27c36.14-20.86,82.34-8.48,103.2,27.66L232.67,8c20.88,36.13,8.51,82.35-27.63,103.22c-0.01,0.01-0.03,0.02-0.04,0.03
				L169.91,131.52z M166.23,125.13l35.1-20.27c32.62-18.8,43.82-60.49,25.01-93.11c0-0.01-0.01-0.02-0.01-0.02l-1.85-3.19
				c-18.8-32.62-60.47-43.82-93.09-25.02c-0.01,0.01-0.03,0.02-0.04,0.02L96.2,3.85C63.59,22.67,52.41,64.36,71.23,96.97
				c0.01,0.01,0.01,0.02,0.02,0.03l1.84,3.2C91.93,132.8,133.62,143.96,166.23,125.13L166.23,125.13z"/>
			<path class="st2" d="M215.23-5.29L227-12.07l10,17.28L225.2,12L215.23-5.29z"/>
			<path class="st2" d="M17.66,110c-5.13-0.55-8.85-5.15-8.3-10.27c0,0,0,0,0-0.01c1.44-17.27,13.4-32.37,30.45-36.42
				c9.36-2.22,18.57-0.68,27.29,3.06c4.77,1.96,7.05,7.42,5.08,12.19c-1.96,4.77-7.42,7.05-12.19,5.08
				c-0.15-0.06-0.31-0.13-0.46-0.2C52.3,79.78,45,80.2,38,84c-6.31,4-9.3,10.47-10.07,17.7C27.38,106.83,22.79,110.54,17.66,110z"/>
			<path class="st2" d="M883.31-398.43l530.2,419.21c17.33,13.71,19.58,39.76,5,58.18l-269.59,341
				c-14.57,18.42-40.43,22.24-57.77,8.53L561,9.25c-17.34-13.71-19.59-39.75-5-58.17l269.59-341
				C840.1-408.31,866-412.13,883.31-398.43z"/>
			<path class="st2" d="M853.9,32.34l147.24,116.42L921,250.07L773.79,133.66L853.9,32.34z"/>
			<path class="st2" d="M835.8-14.37l26.37-33.35l215,170l-26.37,33.35L835.8-14.37z"/>
			<path class="st2" d="M1058.17,161.45l26.37-33.35l29.65,23.44l-26.37,33.36L1058.17,161.45z"/>
			<path class="st2" d="M1052.84,91l23.44-29.65l30.16,23.84L1083,114.82L1052.84,91z"/>
			<path class="st2" d="M979.22,32.77l23.45-29.65l29.65,23.45l-23.45,29.65L979.22,32.77z"/>
			<path class="st2" d="M905.6-25.44L929-55.09L958.19-32L934.75-2.39L905.6-25.44z"/>
			<path class="st2" d="M942.16,3.47l23.44-29.65l29.65,23.44l-23.44,29.65L942.16,3.47z"/>
			<path class="st2" d="M1016.28,62.07l23.44-29.65l29.15,23l-23.44,29.65L1016.28,62.07z"/>
			<path class="st2" d="M1082.14,53.92l23.44-29.65l30.16,23.84l-23.44,29.65L1082.14,53.92z"/>
			<path class="st2" d="M1008.53-4.29L1032-33.94l29.65,23.45l-23.44,29.65L1008.53-4.29z"/>
			<path class="st2" d="M1045.58,25L1069-4.64l29.15,23.05l-23.44,29.65L1045.58,25z"/>
			<path class="st2" d="M1074.89-12l23.44-29.65l29.15,23.05L1104,11L1074.89-12z"/>
			<path class="st2" d="M833.3-323.53l26.37-33.35l518.86,410.24l-26.37,33.35l-33.35-26.37L1345.18,27l-7.42-5.86l-26.36,33.34
				L1281.75,31l26.36-33.35l-7.41-5.86l-26.36,33.35l-29.65-23.4l26.36-33.35l-7.41-5.87l-26.37,33.35l-29.65-23.44L1234-60.92
				l-7.41-5.86l-26.37,33.35l-30.15-23.84l26.37-33.35l-7.44-5.86l-26.37,33.35l-29.15-23l26.37-33.35l-7.41-5.86L1126.09-92
				l-29.65-23.45l26.37-33.35l-7.42-5.86L1089-121.34l-29.65-23.44l26.36-33.35l-7.41-5.86l-26.3,33.35l-29.15-23.05l26.33-33.31
				l-7.41-5.86l-26.36,33.35l-30.16-23.84l26.37-33.35l-7.41-5.86l-26.37,33.35l-29.65-23.44L974.56-266l-7.41-5.86l-26.37,33.35
				L911.13-262l26.37-33.35l-7.41-5.86l-26.37,33.35l-29.65-23.44l26.37-33.35l-7.44-5.86l-26.37,33.35L833.3-323.53z"/>
			<path class="st2" d="M893.72-390.19c-13-10.25-17.22-26.28-16.83-45.8c0.15-8.44,1.16-16.84,3-25.08l0.33-1.43l117.3-284.72
				l1.58-2c18.89-23.89,54-27.17,78.33-7.92l640.34,506.29c24.35,19.26,29.25,54.15,10.36,78l-1.58,2L1476.56,9l-1.31,0.65
				c-7.59,3.7-15.53,6.62-23.71,8.72c-18.9,4.88-35.49,4.44-48.45-5.81L893.72-390.19z M916.38-418.84l509.36,402.73
				c1.54,1.22,7.82,1.39,16.66-0.9c4.05-1.07,8.02-2.4,11.89-4c3.1-1.32,2-0.78,3.5-1.51L1700.47-197
				c5.78-8.81,1.46-18.66-5.35-25.16l-640.35-506.3c-7.72-5.63-18.57-6.64-25.71,0.6L915.22-451.5c-0.35,1.68-0.1,0.43-0.66,3.75
				c-0.67,4.13-1.05,8.31-1.15,12.49C913.23-426.12,914.84-420.06,916.38-418.84L916.38-418.84z"/>
			<path class="st2" d="M43.65,688l274.1,302.88c11.17,12.34,10.22,31.4-2.12,42.57l-402.19,364c-12.34,11.17-31.4,10.22-42.57-2.12
				l-274.1-302.88c-11.17-12.34-10.22-31.4,2.12-42.57l402.18-364C13.41,674.71,32.48,675.66,43.65,688z"/>
			<path class="st2" d="M21.06,712.92l269.62,297.92l-397.22,359.48l-269.62-297.91L21.06,712.92z"/>
			<path class="st2" d="M86.11,834.69l74.48-67.4l89.87,99.31L176,934L86.11,834.69z M155.87,861.88
				c12.41,13.71,28,19.8,34.88,13.59s2.36-22.35-10.05-36.06s-28-19.79-34.88-13.59S143.46,848.17,155.87,861.88z"/>
			<path class="st2" d="M1186.67,856.82l11.7,43.77L815.32,1003l-11.7-43.77L1186.67,856.82z"/>
			<path class="st2" d="M803.62,959.24l11.7,43.77l-57.64,3.69l-5.85-21.89L803.62,959.24z"/>
			<path class="st2" d="M751.83,984.81l5.85,21.89l-24.82-5.09l0,0L751.83,984.81z"/>
			<path class="st2" d="M1026.19,958.36c-1.12-6,0.74-9.85,5.88-13.06c0.69-0.34,1.4-0.61,2.14-0.81c6.04-1.62,12.25,1.96,13.87,8
				c0,0,0,0,0,0c0.57,3.51,0.47,1.5-0.15,6l1.91,0.54l81-21.65c1.18-0.32,2.33-0.75,3.43-1.3c4.45-2.78,7.27-5.18,9-10.31
				c1.66-4.87,1.06-6.37,0.38-10.58L1132,871.45l43.78-11.71l11.7,43.78c2,11.17-6.83,21.21-14.13,28.53
				c-3.33,3.05-7.33,5.28-11.68,6.52l-109.44,29.26c-4.76,0.75-4.71,1-10.67,0c-1.03-0.3-2.04-0.7-3-1.19
				c-3.18,0.45-6.4-0.52-8.81-2.65c-1-1.07-1.91-2.23-2.7-3.47L1026.19,958.36z"/>
		</g>
	</g>
</g>
<g id="phone">
	<path class="st4" d="M393.02,197.27h313.97c18.26,0,33.07,14.81,33.07,33.07v639.31c0,18.26-14.81,33.07-33.07,33.07H393.02
		c-18.26,0-33.07-14.81-33.07-33.07V230.34C359.95,212.08,374.76,197.27,393.02,197.27z"/>
	<path class="st5" d="M373.02,177.27h313.97c18.26,0,33.07,14.81,33.07,33.07v639.31c0,18.26-14.81,33.07-33.07,33.07H373.02
		c-18.26,0-33.07-14.81-33.07-33.07V210.34C339.95,192.08,354.76,177.27,373.02,177.27z"/>
	<path class="st6" d="M385.89,227.25H674.1c7.47,0,13.53,6.06,13.53,13.53v538.64c0,7.47-6.06,13.53-13.53,13.53H385.89
		c-7.47,0-13.53-6.06-13.53-13.53V240.78C372.36,233.31,378.42,227.25,385.89,227.25z"/>
	<path class="st7" d="M530,871.75c-17.99,0-32.57-14.58-32.57-32.57c0-17.99,14.58-32.57,32.57-32.57s32.57,14.58,32.57,32.57
		C562.55,857.16,547.98,871.73,530,871.75z"/>
	<path class="st8" d="M530,810.12c16.05,0,29.07,13.02,29.07,29.07s-13.02,29.07-29.07,29.07c-16.05,0-29.07-13.02-29.07-29.07
		c0,0,0-0.01,0-0.01C500.94,823.13,513.95,810.12,530,810.12 M530,803.12c-19.92,0-36.07,16.15-36.07,36.07s16.15,36.07,36.07,36.07
		s36.07-16.15,36.07-36.07c0,0,0-0.01,0-0.01C566.04,819.27,549.91,803.14,530,803.12z"/>
	<text transform="matrix(1 0 0 1 391.71 340.1699)" class="st9 st10 st11">07:00</text>
	<text transform="matrix(1 0 0 1 563.46 340.1699)" class="st9 st10 st11"> AM</text>
</g>
<g id="button">
	<circle class="st12" cx="530" cy="839.18" r="29.07"/>
</g>
</svg>
