<?xml version="1.0" encoding="utf-8"?>
<!-- Generator: Adobe Illustrator 24.3.0, SVG Export Plug-In . SVG Version: 6.00 Build 0)  -->
<svg version="1.1" xmlns="http://www.w3.org/2000/svg" xmlns:xlink="http://www.w3.org/1999/xlink" x="0px" y="0px" width="1080px"
	 height="1080px" viewBox="0 0 1080 1080" style="enable-background:new 0 0 1080 1080;" xml:space="preserve">
<style type="text/css">
	.st0{fill:#FFED7D;}
	.st1{fill:#F6E9A0;stroke:#C19A7C;stroke-width:7;stroke-linecap:round;stroke-linejoin:round;stroke-miterlimit:10;}
	
		.st2{opacity:0.605;fill:#F6E9A0;stroke:#C19A7C;stroke-width:7;stroke-linecap:round;stroke-linejoin:round;stroke-miterlimit:10;enable-background:new    ;}
	.st3{fill:#FAD3D5;}
	.st4{fill:#F6E9A0;stroke:#EE8186;stroke-width:7;stroke-miterlimit:10;}
	.st5{fill:#F2A2B0;stroke:#EE8186;stroke-width:7;stroke-miterlimit:10;}
	.st6{fill:#F6E9A0;}
	.st7{fill:#EE8186;}
	.st8{fill:#FFFFFF;}
	.st9{fill:#F2A2B0;}
	.st10{display:none;}
	.st11{display:inline;}
	.st12{fill:#85C6A7;}
	.st13{fill:#9ED4C8;}
	.st14{fill:#548899;}
	.st15{fill:none;stroke:#548899;stroke-width:7;stroke-miterlimit:10;}
</style>
<g id="bg">
	<rect class="st0" width="1080" height="1080"/>
	<g>
		<path class="st1" d="M275.27,129.93c-32.27-6.17-66.19-27.84-95.07-29.55c-33.92-2.01-49.02,5.56-62.8,10.59l-247.03,105.82
			l-11.22-16.5L121.61,90.97c18.32-7.33,37.68-11.73,57.48-11.06c16.97,0.57,33.67,4.54,50.16,8.25
			c24.82,5.72,13.94,3.26,32.63,7.44C285.74,106.07,292.44,123.23,275.27,129.93z"/>
		<path class="st1" d="M-42.04,313.13c10.79-31.02,8.99-71.24,21.94-97.11c15.22-30.39,29.33-39.67,40.58-49.09L235.64,5.9
			l-8.68-17.97L1.05,160.58c-15.5,12.2-29,26.76-38.32,44.25c-7.99,14.98-12.9,31.43-17.93,47.56c-7.46,24.35-4.16,13.7-9.87,31.97
			C-67.93,310.27-56.42,324.65-42.04,313.13z"/>
		<path class="st2" d="M-97.15,111.22l35.11-20.27c34.37-19.84,78.33-8.07,98.17,26.31l1.85,3.19c19.84,34.37,8.07,78.33-26.3,98.17
			l-35.11,20.27c-34.37,19.84-78.33,8.07-98.17-26.31l-1.84-3.19C-143.3,175.02-131.52,131.06-97.15,111.22z"/>
		<path class="st1" d="M-21.6,242.08c-36.14,20.86-82.34,8.48-103.21-27.66l-1.85-3.19c-20.86-36.14-8.48-82.35,27.66-103.21
			l35.11-20.27c36.14-20.86,82.34-8.48,103.21,27.66l1.84,3.19c20.86,36.14,8.48,82.35-27.66,103.21L-21.6,242.08z M-25.28,235.7
			l35.11-20.27c32.61-18.83,43.78-60.53,24.96-93.14l-1.85-3.19C14.11,86.49-27.59,75.31-60.2,94.14l-35.11,20.27
			c-32.61,18.83-43.78,60.53-24.96,93.14l1.84,3.19C-99.59,243.35-57.89,254.52-25.28,235.7z"/>
		<path class="st2" d="M94.36,0.65l35.11-20.27c34.37-19.84,78.33-8.07,98.17,26.31l1.85,3.19c19.84,34.37,8.07,78.33-26.3,98.17
			l-35.11,20.27c-34.37,19.84-78.33,8.07-98.17-26.31l-1.84-3.19C48.21,64.46,59.98,20.5,94.36,0.65z"/>
		<path class="st1" d="M169.91,131.52c-36.14,20.86-82.34,8.48-103.21-27.66l-1.85-3.19C44,64.54,56.38,18.32,92.52-2.54
			l35.11-20.27c36.14-20.86,82.34-8.48,103.2,27.66l1.85,3.19c20.86,36.14,8.48,82.35-27.66,103.21L169.91,131.52z M166.23,125.13
			l35.11-20.27c32.61-18.82,43.78-60.53,24.96-93.14l-1.85-3.19c-18.82-32.61-60.52-43.79-93.14-24.96L96.2,3.85
			C63.59,22.67,52.42,64.37,71.25,96.98l1.84,3.19C91.92,132.78,133.62,143.96,166.23,125.13z"/>
		<path class="st1" d="M215.23-5.29l11.74-6.78l9.98,17.28l-11.74,6.78L215.23-5.29z"/>
		<path class="st1" d="M17.66,109.97c-5.13-0.54-8.84-5.15-8.29-10.28c1.44-17.24,13.4-32.34,30.45-36.39
			c9.36-2.22,18.57-0.68,27.3,3.06c4.72,2.08,6.84,7.61,4.76,12.32c-2.09,4.72-7.61,6.84-12.33,4.75C52.3,79.78,45,80.2,38.01,83.98
			c-6.3,4-9.29,10.46-10.07,17.69C27.39,106.8,22.79,110.52,17.66,109.97z"/>
	</g>
	<g>
		<path class="st1" d="M883.31-398.43l530.2,419.21c17.34,13.71,19.59,39.76,5.02,58.18l-269.59,340.97
			c-14.56,18.42-40.43,22.24-57.77,8.53L560.97,9.25c-17.34-13.71-19.59-39.76-5.02-58.18l269.59-340.97
			C840.1-408.31,865.97-412.13,883.31-398.43z"/>
		<path class="st1" d="M853.9,32.34l147.24,116.42l-80.11,101.31L773.79,133.66L853.9,32.34z"/>
		<g>
			<path class="st1" d="M835.8-14.37l26.37-33.35l214.96,169.96l-26.37,33.35L835.8-14.37z"/>
			<path class="st1" d="M1058.17,161.45l26.37-33.35l29.65,23.44l-26.37,33.35L1058.17,161.45z"/>
			<path class="st1" d="M1052.84,90.98l23.44-29.65l30.15,23.84l-23.44,29.65L1052.84,90.98z"/>
			<path class="st1" d="M979.22,32.77l23.44-29.65l29.65,23.44l-23.44,29.65L979.22,32.77z"/>
			<path class="st1" d="M905.6-25.44l23.44-29.65l29.15,23.05L934.75-2.39L905.6-25.44z"/>
			<path class="st1" d="M942.16,3.47l23.44-29.65l29.65,23.44l-23.44,29.65L942.16,3.47z"/>
			<path class="st1" d="M1016.28,62.07l23.44-29.65l29.15,23.05l-23.44,29.65L1016.28,62.07z"/>
			<path class="st1" d="M1082.14,53.92l23.44-29.65l30.15,23.84l-23.44,29.65L1082.14,53.92z"/>
			<path class="st1" d="M1008.53-4.29l23.44-29.65l29.65,23.44l-23.44,29.65L1008.53-4.29z"/>
			<path class="st1" d="M1045.58,25.01l23.44-29.65l29.15,23.05l-23.44,29.65L1045.58,25.01z"/>
			<path class="st1" d="M1074.89-12.05l23.44-29.65l29.15,23.05L1104.04,11L1074.89-12.05z"/>
			<path class="st1" d="M833.3-323.53l26.37-33.35l518.86,410.24l-26.37,33.35l-33.35-26.37l26.37-33.35l-7.41-5.86l-26.37,33.35
				l-29.65-23.44l26.37-33.35l-7.41-5.86l-26.37,33.35l-29.65-23.44l26.37-33.35l-7.41-5.86l-26.37,33.35l-29.65-23.44l26.37-33.35
				l-7.41-5.86l-26.37,33.35l-30.15-23.84l26.37-33.35l-7.41-5.86l-26.37,33.35l-29.15-23.05l26.37-33.35l-7.41-5.86l-26.37,33.35
				l-29.65-23.44l26.37-33.35l-7.41-5.86l-26.37,33.35l-29.65-23.44l26.37-33.35l-7.41-5.86l-26.37,33.35l-29.15-23.05l26.37-33.35
				l-7.41-5.86l-26.37,33.35l-30.15-23.84l26.37-33.35l-7.41-5.86l-26.37,33.35l-29.65-23.44l26.37-33.35l-7.41-5.86l-26.37,33.35
				l-29.65-23.44l26.37-33.35l-7.41-5.86l-26.37,33.35l-29.65-23.44l26.37-33.35l-7.41-5.86l-26.37,33.35L833.3-323.53z"/>
		</g>
		<path class="st1" d="M893.72-390.19c-12.97-10.25-17.22-26.28-16.83-45.8c0.21-10.09,1.59-19.03,3.02-25.08l0.33-1.42
			l117.28-284.72l1.59-2.01c18.89-23.89,53.98-27.17,78.32-7.92l640.35,506.3c24.35,19.25,29.25,54.15,10.36,78.04l-1.59,2.01
			L1476.56,8.99l-1.31,0.65c-5.57,2.78-13.94,6.19-23.71,8.72c-18.9,4.88-35.49,4.44-48.45-5.81L893.72-390.19z M916.38-418.84
			l509.36,402.74c1.54,1.22,7.81,1.39,16.65-0.9c3.99-1.03,8.05-2.43,11.9-4c3.1-1.31,1.94-0.78,3.5-1.51l242.68-174.53
			c5.78-8.81,1.46-18.66-5.35-25.16l-640.35-506.3c-7.72-5.63-18.57-6.64-25.71,0.6L915.22-451.5c-0.35,1.68-0.1,0.43-0.66,3.75
			c-0.64,4.1-1.06,8.37-1.15,12.5C913.23-426.12,914.84-420.06,916.38-418.84z"/>
	</g>
	<g>
		<path class="st1" d="M43.65,687.97l274.11,302.88c11.17,12.34,10.22,31.4-2.13,42.57L-86.56,1397.4
			c-12.34,11.17-31.4,10.22-42.57-2.12l-274.11-302.88c-11.17-12.34-10.22-31.4,2.12-42.57L1.07,685.85
			C13.42,674.68,32.48,675.63,43.65,687.97z"/>
		<path class="st1" d="M21.06,712.92l269.61,297.91l-397.22,359.49l-269.61-297.91L21.06,712.92z"/>
		<path class="st1" d="M86.11,834.69l74.48-67.4l89.87,99.31L175.98,934L86.11,834.69z M155.87,861.88
			c12.41,13.71,28.03,19.79,34.88,13.59c6.85-6.2,2.36-22.35-10.05-36.06c-12.41-13.71-28.03-19.8-34.89-13.59
			S143.46,848.17,155.87,861.88z"/>
	</g>
	<g>
		<path class="st1" d="M1186.67,856.82l11.7,43.77l-383.05,102.42l-11.7-43.77L1186.67,856.82z"/>
		<path class="st1" d="M803.62,959.24l11.7,43.77l-57.64,3.69l-5.85-21.89L803.62,959.24z"/>
		<path class="st1" d="M751.83,984.81l5.85,21.89l-24.82-5.09l0,0L751.83,984.81z"/>
		<path class="st1" d="M1026.19,958.36c-1.13-5.98,0.74-9.85,5.88-13.06c0.65-0.4,1.43-0.54,2.14-0.81
			c6.05-1.62,12.25,1.97,13.87,8.02c0.57,3.51,0.47,1.5-0.15,6.02l1.9,0.55l80.99-21.66c1.14-0.43,2.39-0.65,3.43-1.3
			c4.45-2.78,7.27-5.19,9.03-10.31c1.66-4.87,1.05-6.37,0.37-10.59l-11.71-43.78l43.77-11.7l11.71,43.78
			c1.98,11.17-6.83,21.2-14.13,28.53c-3.47,3.27-7.22,5.08-11.67,6.51l-109.45,29.26c-4.76,0.75-4.7,1.03-10.66-0.01
			c-1.06-0.19-2.01-0.79-3.01-1.19c-3.09,0.54-6.47-0.61-8.81-2.65c-1.1-0.97-1.8-2.32-2.7-3.47L1026.19,958.36z"/>
	</g>
</g>
<g id="phone">
	<g>
		<path class="st3" d="M706.99,902.73H393.01c-18.26,0-33.07-14.81-33.07-33.07V230.34c0-18.26,14.81-33.07,33.07-33.07h313.97
			c18.26,0,33.07,14.81,33.07,33.07v639.31C740.05,887.92,725.25,902.73,706.99,902.73z"/>
		<path class="st4" d="M686.99,882.73H373.01c-18.26,0-33.07-14.81-33.07-33.07V210.34c0-18.26,14.81-33.07,33.07-33.07h313.97
			c18.26,0,33.07,14.81,33.07,33.07v639.31C720.05,867.92,705.25,882.73,686.99,882.73z"/>
		<path class="st5" d="M674.11,792.95H385.89c-7.47,0-13.53-6.06-13.53-13.53V240.77c0-7.47,6.06-13.53,13.53-13.53h288.22
			c7.47,0,13.53,6.06,13.53,13.53v538.65C687.64,786.9,681.58,792.95,674.11,792.95z"/>
		<g>
			<path class="st6" d="M530,871.75c-17.96,0-32.57-14.61-32.57-32.57s14.61-32.57,32.57-32.57s32.57,14.61,32.57,32.57
				S547.96,871.75,530,871.75z"/>
			<path class="st7" d="M530,810.12c16.05,0,29.07,13.01,29.07,29.07c0,16.05-13.01,29.07-29.07,29.07s-29.07-13.01-29.07-29.07
				C500.93,823.13,513.95,810.12,530,810.12 M530,803.12c-19.89,0-36.07,16.18-36.07,36.07c0,19.89,16.18,36.07,36.07,36.07
				s36.07-16.18,36.07-36.07C566.07,819.3,549.89,803.12,530,803.12L530,803.12z"/>
		</g>
		<g>
			<path class="st8" d="M408.82,304c4.29,0,7.69,1.66,10.2,4.99c2.52,3.33,3.77,7.84,3.77,13.54c0,5.72-1.26,10.24-3.77,13.57
				c-2.52,3.33-5.92,4.99-10.2,4.99c-4.25,0-7.62-1.66-10.1-4.99c-2.49-3.33-3.73-7.85-3.73-13.57s1.24-10.24,3.73-13.56
				C401.2,305.66,404.57,304,408.82,304z M408.88,310.29c-1.98,0-3.54,1.08-4.68,3.24c-1.15,2.16-1.72,5.14-1.72,8.94
				c0,3.86,0.57,6.87,1.71,9.04c1.14,2.17,2.7,3.26,4.7,3.26c1.99,0,3.56-1.08,4.71-3.26c1.15-2.17,1.72-5.18,1.72-9.04
				c0-3.8-0.57-6.78-1.72-8.94C412.44,311.37,410.87,310.29,408.88,310.29z"/>
			<path class="st8" d="M453.2,307.88l-9.06,31.47c-0.15,0.48-0.35,0.81-0.59,0.99c-0.24,0.18-0.6,0.27-1.06,0.27h-5.17
				c-0.26,0-0.48-0.08-0.67-0.25c-0.19-0.17-0.28-0.36-0.28-0.59c0-0.24,0.01-0.42,0.03-0.55c0.02-0.12,0.05-0.23,0.08-0.32
				l10.01-27.75h-12.02l-0.11,0.5c-0.09,0.61-0.38,1.11-0.85,1.5c-0.48,0.38-1.05,0.57-1.72,0.57c-0.78,0-1.36-0.18-1.73-0.53
				c-0.37-0.35-0.56-0.9-0.56-1.65c0-0.07,0.01-0.19,0.03-0.34c0.02-0.15,0.03-0.27,0.03-0.36l0.5-4.33
				c0.06-0.52,0.25-0.92,0.59-1.2c0.33-0.28,0.77-0.42,1.31-0.42h19.76c0.52,0,0.9,0.12,1.13,0.35c0.23,0.23,0.35,0.6,0.35,1.1
				V307.88z"/>
			<path class="st8" d="M477.58,315.15c1.75,0,3.15,0.48,4.21,1.44c1.05,0.96,1.58,2.21,1.58,3.76c0,1.58-0.53,2.87-1.59,3.86
				c-1.06,0.99-2.46,1.48-4.19,1.48c-1.71,0-3.11-0.5-4.19-1.5c-1.08-1-1.62-2.28-1.62-3.84c0-1.55,0.54-2.8,1.61-3.76
				C474.44,315.63,475.84,315.15,477.58,315.15z M477.58,330.05c1.75,0,3.16,0.48,4.23,1.44c1.07,0.96,1.61,2.21,1.61,3.76
				c0,1.56-0.54,2.84-1.61,3.83c-1.07,0.99-2.48,1.48-4.23,1.48c-1.71,0-3.11-0.5-4.19-1.5c-1.08-1-1.62-2.27-1.62-3.81
				c0-1.53,0.54-2.78,1.62-3.75C474.46,330.53,475.86,330.05,477.58,330.05z"/>
			<path class="st8" d="M511.87,304c4.29,0,7.69,1.66,10.2,4.99c2.52,3.33,3.77,7.84,3.77,13.54c0,5.72-1.26,10.24-3.77,13.57
				c-2.52,3.33-5.92,4.99-10.2,4.99c-4.25,0-7.62-1.66-10.1-4.99c-2.49-3.33-3.73-7.85-3.73-13.57s1.24-10.24,3.73-13.56
				C504.25,305.66,507.62,304,511.87,304z M511.93,310.29c-1.98,0-3.54,1.08-4.68,3.24c-1.15,2.16-1.72,5.14-1.72,8.94
				c0,3.86,0.57,6.87,1.71,9.04c1.14,2.17,2.7,3.26,4.7,3.26c1.99,0,3.56-1.08,4.71-3.26c1.15-2.17,1.72-5.18,1.72-9.04
				c0-3.8-0.57-6.78-1.72-8.94C515.49,311.37,513.92,310.29,511.93,310.29z"/>
			<path class="st8" d="M546.22,304c4.29,0,7.69,1.66,10.2,4.99c2.52,3.33,3.77,7.84,3.77,13.54c0,5.72-1.26,10.24-3.77,13.57
				c-2.52,3.33-5.92,4.99-10.2,4.99c-4.25,0-7.62-1.66-10.1-4.99c-2.49-3.33-3.73-7.85-3.73-13.57s1.24-10.24,3.73-13.56
				C538.6,305.66,541.97,304,546.22,304z M546.28,310.29c-1.98,0-3.54,1.08-4.68,3.24c-1.15,2.16-1.72,5.14-1.72,8.94
				c0,3.86,0.57,6.87,1.71,9.04c1.14,2.17,2.7,3.26,4.7,3.26c1.99,0,3.56-1.08,4.71-3.26c1.15-2.17,1.72-5.18,1.72-9.04
				c0-3.8-0.57-6.78-1.72-8.94C549.84,311.37,548.27,310.29,546.28,310.29z"/>
			<path class="st8" d="M629.06,334.04h0.47c1.01,0,1.77,0.26,2.29,0.77c0.52,0.51,0.78,1.26,0.78,2.25c0,1.1-0.28,1.89-0.83,2.38
				c-0.55,0.48-1.46,0.73-2.72,0.73h-8.41c-1.29,0-2.2-0.24-2.74-0.71s-0.81-1.27-0.81-2.39c0-1.08,0.27-1.85,0.81-2.32
				c0.54-0.47,1.45-0.7,2.74-0.7h0.98l-1.15-3.27h-12.07l-1.2,3.27h0.98c1.27,0,2.18,0.24,2.73,0.71c0.55,0.48,0.82,1.24,0.82,2.31
				c0,1.1-0.28,1.89-0.82,2.38c-0.55,0.48-1.46,0.73-2.73,0.73h-7.21c-1.29,0-2.2-0.24-2.74-0.73c-0.54-0.48-0.81-1.28-0.81-2.38
				c0-0.99,0.26-1.74,0.78-2.25c0.52-0.51,1.29-0.77,2.29-0.77h0.47l7.49-20.85h-2.24c-1.27,0-2.18-0.24-2.73-0.73
				c-0.55-0.48-0.82-1.27-0.82-2.35c0-1.1,0.27-1.89,0.82-2.38c0.55-0.48,1.46-0.73,2.73-0.73h10.48c1.66,0,2.82,0.89,3.49,2.68
				v0.08L629.06,334.04z M614.42,313.19l-4.05,11.79h8.11L614.42,313.19z"/>
			<path class="st8" d="M650.53,325.86l5.34-15.85c0.33-1.04,0.8-1.8,1.4-2.28c0.6-0.48,1.39-0.71,2.38-0.71H664
				c1.27,0,2.18,0.24,2.73,0.73c0.55,0.48,0.82,1.28,0.82,2.38c0,1.01-0.27,1.77-0.8,2.29c-0.53,0.52-1.3,0.78-2.31,0.78H664
				l0.78,20.85h0.47c1.01,0,1.76,0.26,2.26,0.77c0.5,0.51,0.75,1.26,0.75,2.25c0,1.1-0.27,1.89-0.8,2.38
				c-0.53,0.48-1.43,0.73-2.7,0.73h-6.29c-1.27,0-2.17-0.24-2.7-0.71s-0.8-1.27-0.8-2.39c0-0.99,0.26-1.74,0.77-2.25
				c0.51-0.51,1.27-0.77,2.28-0.77h0.45L658.1,317l-4.08,12.69c-0.3,0.95-0.72,1.63-1.27,2.05c-0.55,0.42-1.31,0.63-2.28,0.63
				s-1.74-0.21-2.31-0.63c-0.57-0.42-1-1.1-1.3-2.05L642.81,317l-0.39,17.05h0.45c1.01,0,1.77,0.26,2.28,0.77
				c0.51,0.51,0.77,1.26,0.77,2.25c0,1.1-0.27,1.89-0.81,2.38c-0.54,0.48-1.44,0.73-2.68,0.73h-6.32c-1.25,0-2.14-0.24-2.68-0.73
				c-0.54-0.48-0.81-1.28-0.81-2.38c0-0.99,0.26-1.74,0.77-2.25c0.51-0.51,1.27-0.77,2.28-0.77h0.45l0.81-20.85h-0.45
				c-1.01,0-1.77-0.26-2.31-0.78s-0.8-1.29-0.8-2.29c0-1.1,0.28-1.89,0.83-2.38c0.55-0.48,1.46-0.73,2.72-0.73h4.36
				c0.97,0,1.75,0.23,2.33,0.7c0.59,0.47,1.07,1.23,1.44,2.29L650.53,325.86z"/>
		</g>
	</g>
</g>
<g id="button">
	<circle class="st9" cx="530" cy="839.18" r="29.07"/>
</g>
<g id="noti" class="st10">
	<g class="st11">
		<path class="st12" d="M852.19,756.7H267.81c-23.24,0-42.07-18.84-42.07-42.07V456.07c0-23.24,18.84-42.07,42.07-42.07h584.37
			c23.24,0,42.07,18.84,42.07,42.07v258.55C894.26,737.86,875.42,756.7,852.19,756.7z"/>
	</g>
	<g class="st11">
		<path class="st13" d="M247.81,740.2c-25.13,0-45.57-20.44-45.57-45.57V436.07c0-25.13,20.44-45.57,45.57-45.57h584.37
			c25.13,0,45.57,20.44,45.57,45.57v258.56c0,25.13-20.44,45.57-45.57,45.57H247.81z"/>
		<path class="st14" d="M832.19,394c23.24,0,42.07,18.84,42.07,42.07v258.56c0,23.24-18.84,42.07-42.07,42.07H247.81
			c-23.24,0-42.07-18.84-42.07-42.07V436.07c0-23.24,18.84-42.07,42.07-42.07H832.19 M832.19,387H247.81
			c-27.06,0-49.07,22.01-49.07,49.07v258.56c0,27.06,22.01,49.07,49.07,49.07h584.37c27.06,0,49.07-22.01,49.07-49.07V436.07
			C881.26,409.01,859.24,387,832.19,387L832.19,387z"/>
	</g>
	<g class="st11">
		<line class="st15" x1="200.5" y1="469" x2="874.26" y2="469"/>
	</g>
	<g class="st11">
		<path class="st14" d="M263.63,424.33h4.72c1.01,0,1.73,0.19,2.15,0.56c0.42,0.37,0.64,0.99,0.64,1.83s-0.22,1.46-0.65,1.85
			s-1.15,0.57-2.14,0.57h-4.72v10.04H268c1.01,0,1.73,0.18,2.15,0.55s0.64,0.97,0.64,1.82c0,0.86-0.22,1.49-0.65,1.87
			S269,444,268,444H255.9c-1.01,0-1.73-0.19-2.15-0.57s-0.64-1-0.64-1.87c0-0.85,0.21-1.46,0.63-1.82c0.42-0.37,1.14-0.55,2.16-0.55
			h2.33v-10.04h-2.33c-1.01,0-1.73-0.19-2.15-0.57s-0.64-1-0.64-1.85c0-0.86,0.21-1.48,0.63-1.85c0.42-0.37,1.14-0.55,2.16-0.55
			h2.33v-1.25c0-2.87,0.74-4.91,2.22-6.12c1.48-1.21,4-1.81,7.56-1.81c1.85,0,3.2,0.22,4.08,0.66s1.31,1.12,1.31,2.04
			c0,0.62-0.19,1.11-0.58,1.47c-0.39,0.37-0.91,0.55-1.57,0.55c-0.48,0-1.17-0.07-2.05-0.2s-1.5-0.2-1.86-0.2
			c-1.36,0-2.32,0.3-2.87,0.91c-0.55,0.61-0.82,1.68-0.82,3.22V424.33z"/>
		<path class="st14" d="M298.19,439.19h0.35c0.79,0,1.4,0.21,1.81,0.63c0.42,0.42,0.63,1.01,0.63,1.79c0,0.85-0.22,1.46-0.65,1.83
			c-0.43,0.37-1.15,0.56-2.14,0.56h-2.07c-0.73,0-1.28-0.14-1.64-0.42c-0.36-0.28-0.66-0.78-0.89-1.52
			c-1.22,0.81-2.5,1.42-3.87,1.85s-2.74,0.64-4.13,0.64c-2.36,0-4.21-0.59-5.56-1.76s-2.02-2.78-2.02-4.81c0-2.2,0.87-3.9,2.61-5.12
			s4.19-1.82,7.34-1.82c0.7,0,1.45,0.04,2.24,0.11s1.68,0.19,2.66,0.35v-0.42c0-1.32-0.32-2.32-0.96-3.01
			c-0.64-0.69-1.58-1.03-2.82-1.03c-0.97,0-2.2,0.36-3.7,1.08c-1.5,0.72-2.6,1.08-3.31,1.08c-0.69,0-1.25-0.2-1.67-0.6
			c-0.42-0.4-0.64-0.93-0.64-1.59c0-1.19,0.87-2.13,2.6-2.82c1.74-0.7,4.1-1.04,7.09-1.04c3.12,0,5.35,0.6,6.7,1.8
			s2.02,3.24,2.02,6.11V439.19z M292.88,434.95c-0.73-0.16-1.41-0.28-2.02-0.36s-1.19-0.12-1.71-0.12c-1.61,0-2.88,0.27-3.79,0.81
			c-0.92,0.54-1.37,1.29-1.37,2.24c0,0.85,0.29,1.5,0.88,1.94s1.43,0.67,2.53,0.67c1.01,0,1.96-0.15,2.86-0.44s1.77-0.75,2.64-1.36
			V434.95z"/>
		<path class="st14" d="M322.76,424.88c0.18-0.57,0.45-1,0.82-1.29c0.37-0.29,0.85-0.43,1.44-0.43c0.79,0,1.35,0.24,1.69,0.71
			c0.34,0.48,0.51,1.3,0.51,2.47v3.6c0,0.89-0.18,1.55-0.55,1.98s-0.93,0.64-1.69,0.64c-0.54,0-1-0.12-1.36-0.37
			s-0.75-0.73-1.16-1.43c-0.59-1-1.35-1.73-2.31-2.21s-2.12-0.71-3.49-0.71c-1.71,0-3.12,0.56-4.21,1.68
			c-1.09,1.12-1.64,2.55-1.64,4.3c0,1.83,0.56,3.3,1.69,4.42s2.64,1.67,4.55,1.67c1.73,0,3.45-0.48,5.15-1.44
			c1.71-0.96,2.75-1.44,3.13-1.44c0.54,0,0.99,0.21,1.35,0.63c0.36,0.42,0.54,0.94,0.54,1.57c0,1.38-1.04,2.61-3.13,3.69
			c-2.09,1.08-4.57,1.63-7.44,1.63c-3.54,0-6.43-1-8.65-2.99c-2.22-1.99-3.33-4.56-3.33-7.69c0-3.06,1.1-5.61,3.3-7.65
			s4.97-3.05,8.31-3.05c1.13,0,2.23,0.14,3.3,0.42S321.7,424.3,322.76,424.88z"/>
		<path class="st14" d="M337.26,435.15c0.38,1.63,1.12,2.84,2.21,3.65s2.55,1.21,4.36,1.21s3.61-0.44,5.38-1.33s2.84-1.33,3.21-1.33
			c0.54,0,0.98,0.2,1.33,0.6c0.34,0.4,0.52,0.92,0.52,1.55c0,1.38-1.02,2.56-3.05,3.56s-4.56,1.49-7.56,1.49
			c-3.54,0-6.43-1-8.65-2.99c-2.22-1.99-3.33-4.56-3.33-7.69c0-3.12,1.11-5.68,3.33-7.67c2.22-1.99,5.1-2.99,8.65-2.99
			c3.16,0,5.79,0.93,7.87,2.8c2.08,1.87,3.12,4.16,3.12,6.87c0,0.86-0.21,1.46-0.63,1.78c-0.42,0.32-1.28,0.48-2.58,0.48H337.26z
			 M349.1,431.72c-0.25-1.36-0.89-2.42-1.92-3.16c-1.03-0.75-2.38-1.12-4.03-1.12c-1.6,0-2.88,0.36-3.86,1.07
			c-0.97,0.71-1.65,1.78-2.03,3.22H349.1z"/>
		<path class="st14" d="M366.29,425.67c0.7-0.62,1.54-1.1,2.5-1.45s1.98-0.53,3.03-0.53c3.05,0,5.54,1.01,7.48,3.02
			s2.91,4.6,2.91,7.75c0,2.87-0.99,5.27-2.97,7.2s-4.47,2.89-7.47,2.89c-1.42,0-2.66-0.25-3.7-0.74c-1.05-0.49-1.9-1.23-2.56-2.21
			v1.45c0,0.29-0.11,0.52-0.34,0.69c-0.23,0.17-0.55,0.25-0.96,0.25h-3.38c-1,0-1.7-0.19-2.12-0.56c-0.42-0.37-0.63-1-0.63-1.88
			c0-0.78,0.2-1.37,0.6-1.77c0.4-0.4,1-0.6,1.79-0.6h0.35v-19.07h-0.35c-0.79,0-1.4-0.21-1.81-0.63c-0.42-0.42-0.63-1.02-0.63-1.81
			c0-0.86,0.21-1.49,0.64-1.87s1.14-0.57,2.15-0.57h4.11c0.47,0,0.81,0.11,1.02,0.34c0.21,0.23,0.32,0.6,0.32,1.11V425.67z
			 M371.14,428.38c-1.44,0-2.63,0.54-3.57,1.61c-0.94,1.08-1.42,2.44-1.42,4.1c0,1.7,0.47,3.09,1.41,4.16
			c0.94,1.08,2.13,1.62,3.58,1.62s2.65-0.54,3.59-1.63c0.95-1.08,1.42-2.47,1.42-4.15c0-1.64-0.48-3-1.43-4.09
			S372.58,428.38,371.14,428.38z"/>
		<path class="st14" d="M397.25,423.21c3.56,0,6.45,1,8.66,2.99s3.32,4.55,3.32,7.67c0,3.13-1.11,5.7-3.32,7.69s-5.1,2.99-8.66,2.99
			c-3.54,0-6.42-1-8.64-2.99s-3.32-4.56-3.32-7.69c0-3.12,1.11-5.68,3.33-7.67C390.84,424.21,393.72,423.21,397.25,423.21z
			 M397.25,427.85c-1.71,0-3.12,0.56-4.23,1.68c-1.11,1.12-1.66,2.55-1.66,4.3c0,1.76,0.55,3.21,1.66,4.36
			c1.11,1.15,2.52,1.72,4.23,1.72s3.13-0.57,4.24-1.72s1.67-2.6,1.67-4.36c0-1.74-0.55-3.18-1.66-4.3
			C400.39,428.41,398.97,427.85,397.25,427.85z"/>
		<path class="st14" d="M424.25,423.21c3.56,0,6.45,1,8.66,2.99s3.32,4.55,3.32,7.67c0,3.13-1.11,5.7-3.32,7.69s-5.1,2.99-8.66,2.99
			c-3.54,0-6.42-1-8.64-2.99s-3.32-4.56-3.32-7.69c0-3.12,1.11-5.68,3.33-7.67C417.84,424.21,420.72,423.21,424.25,423.21z
			 M424.25,427.85c-1.71,0-3.12,0.56-4.23,1.68c-1.11,1.12-1.66,2.55-1.66,4.3c0,1.76,0.55,3.21,1.66,4.36
			c1.11,1.15,2.52,1.72,4.23,1.72s3.13-0.57,4.24-1.72s1.67-2.6,1.67-4.36c0-1.74-0.55-3.18-1.66-4.3
			C427.4,428.41,425.98,427.85,424.25,427.85z"/>
		<path class="st14" d="M447.76,432.07l4.64-4.17c-0.45-0.15-0.77-0.34-0.93-0.59c-0.17-0.25-0.25-0.64-0.25-1.16
			c0-0.89,0.2-1.52,0.59-1.89s1.1-0.55,2.11-0.55h4.86c1,0,1.7,0.18,2.12,0.55c0.42,0.37,0.63,0.98,0.63,1.85
			c0,0.64-0.12,1.11-0.36,1.41c-0.24,0.29-0.74,0.51-1.48,0.66c-0.69,0.13-1.3,0.35-1.83,0.66c-0.54,0.31-1.15,0.82-1.86,1.54
			l-1.56,1.63l5.8,7.21h0.55c0.85,0,1.49,0.2,1.91,0.59s0.64,0.99,0.64,1.78c0,0.86-0.21,1.49-0.64,1.87s-1.14,0.57-2.15,0.57h-5.38
			c-0.95,0-1.64-0.16-2.07-0.48s-0.64-0.83-0.64-1.54c0-0.53,0.12-0.95,0.37-1.26c0.25-0.31,0.66-0.58,1.23-0.8l-3.58-4.37
			l-2.7,2.48v4.53c0,0.56-0.1,0.94-0.29,1.14s-0.53,0.31-1.03,0.31h-3.96c-0.97,0-1.66-0.19-2.08-0.57c-0.42-0.38-0.63-1-0.63-1.87
			c0-0.78,0.2-1.37,0.59-1.77c0.4-0.4,0.98-0.6,1.76-0.6h0.35v-19.07h-0.35c-0.78,0-1.37-0.21-1.78-0.64s-0.62-1.03-0.62-1.8
			c0-0.85,0.21-1.47,0.64-1.86s1.13-0.58,2.11-0.58h3.96c0.5,0,0.84,0.1,1.03,0.31s0.29,0.59,0.29,1.14V432.07z"/>
	</g>
	<g class="st11">
		<path class="st14" d="M263.63,424.33h4.72c1.01,0,1.73,0.19,2.15,0.56c0.42,0.37,0.64,0.99,0.64,1.83s-0.22,1.46-0.65,1.85
			s-1.15,0.57-2.14,0.57h-4.72v10.04H268c1.01,0,1.73,0.18,2.15,0.55s0.64,0.97,0.64,1.82c0,0.86-0.22,1.49-0.65,1.87
			S269,444,268,444H255.9c-1.01,0-1.73-0.19-2.15-0.57s-0.64-1-0.64-1.87c0-0.85,0.21-1.46,0.63-1.82c0.42-0.37,1.14-0.55,2.16-0.55
			h2.33v-10.04h-2.33c-1.01,0-1.73-0.19-2.15-0.57s-0.64-1-0.64-1.85c0-0.86,0.21-1.48,0.63-1.85c0.42-0.37,1.14-0.55,2.16-0.55
			h2.33v-1.25c0-2.87,0.74-4.91,2.22-6.12c1.48-1.21,4-1.81,7.56-1.81c1.85,0,3.2,0.22,4.08,0.66s1.31,1.12,1.31,2.04
			c0,0.62-0.19,1.11-0.58,1.47c-0.39,0.37-0.91,0.55-1.57,0.55c-0.48,0-1.17-0.07-2.05-0.2s-1.5-0.2-1.86-0.2
			c-1.36,0-2.32,0.3-2.87,0.91c-0.55,0.61-0.82,1.68-0.82,3.22V424.33z"/>
		<path class="st14" d="M298.19,439.19h0.35c0.79,0,1.4,0.21,1.81,0.63c0.42,0.42,0.63,1.01,0.63,1.79c0,0.85-0.22,1.46-0.65,1.83
			c-0.43,0.37-1.15,0.56-2.14,0.56h-2.07c-0.73,0-1.28-0.14-1.64-0.42c-0.36-0.28-0.66-0.78-0.89-1.52
			c-1.22,0.81-2.5,1.42-3.87,1.85s-2.74,0.64-4.13,0.64c-2.36,0-4.21-0.59-5.56-1.76s-2.02-2.78-2.02-4.81c0-2.2,0.87-3.9,2.61-5.12
			s4.19-1.82,7.34-1.82c0.7,0,1.45,0.04,2.24,0.11s1.68,0.19,2.66,0.35v-0.42c0-1.32-0.32-2.32-0.96-3.01
			c-0.64-0.69-1.58-1.03-2.82-1.03c-0.97,0-2.2,0.36-3.7,1.08c-1.5,0.72-2.6,1.08-3.31,1.08c-0.69,0-1.25-0.2-1.67-0.6
			c-0.42-0.4-0.64-0.93-0.64-1.59c0-1.19,0.87-2.13,2.6-2.82c1.74-0.7,4.1-1.04,7.09-1.04c3.12,0,5.35,0.6,6.7,1.8
			s2.02,3.24,2.02,6.11V439.19z M292.88,434.95c-0.73-0.16-1.41-0.28-2.02-0.36s-1.19-0.12-1.71-0.12c-1.61,0-2.88,0.27-3.79,0.81
			c-0.92,0.54-1.37,1.29-1.37,2.24c0,0.85,0.29,1.5,0.88,1.94s1.43,0.67,2.53,0.67c1.01,0,1.96-0.15,2.86-0.44s1.77-0.75,2.64-1.36
			V434.95z"/>
		<path class="st14" d="M322.76,424.88c0.18-0.57,0.45-1,0.82-1.29c0.37-0.29,0.85-0.43,1.44-0.43c0.79,0,1.35,0.24,1.69,0.71
			c0.34,0.48,0.51,1.3,0.51,2.47v3.6c0,0.89-0.18,1.55-0.55,1.98s-0.93,0.64-1.69,0.64c-0.54,0-1-0.12-1.36-0.37
			s-0.75-0.73-1.16-1.43c-0.59-1-1.35-1.73-2.31-2.21s-2.12-0.71-3.49-0.71c-1.71,0-3.12,0.56-4.21,1.68
			c-1.09,1.12-1.64,2.55-1.64,4.3c0,1.83,0.56,3.3,1.69,4.42s2.64,1.67,4.55,1.67c1.73,0,3.45-0.48,5.15-1.44
			c1.71-0.96,2.75-1.44,3.13-1.44c0.54,0,0.99,0.21,1.35,0.63c0.36,0.42,0.54,0.94,0.54,1.57c0,1.38-1.04,2.61-3.13,3.69
			c-2.09,1.08-4.57,1.63-7.44,1.63c-3.54,0-6.43-1-8.65-2.99c-2.22-1.99-3.33-4.56-3.33-7.69c0-3.06,1.1-5.61,3.3-7.65
			s4.97-3.05,8.31-3.05c1.13,0,2.23,0.14,3.3,0.42S321.7,424.3,322.76,424.88z"/>
		<path class="st14" d="M337.26,435.15c0.38,1.63,1.12,2.84,2.21,3.65s2.55,1.21,4.36,1.21s3.61-0.44,5.38-1.33s2.84-1.33,3.21-1.33
			c0.54,0,0.98,0.2,1.33,0.6c0.34,0.4,0.52,0.92,0.52,1.55c0,1.38-1.02,2.56-3.05,3.56s-4.56,1.49-7.56,1.49
			c-3.54,0-6.43-1-8.65-2.99c-2.22-1.99-3.33-4.56-3.33-7.69c0-3.12,1.11-5.68,3.33-7.67c2.22-1.99,5.1-2.99,8.65-2.99
			c3.16,0,5.79,0.93,7.87,2.8c2.08,1.87,3.12,4.16,3.12,6.87c0,0.86-0.21,1.46-0.63,1.78c-0.42,0.32-1.28,0.48-2.58,0.48H337.26z
			 M349.1,431.72c-0.25-1.36-0.89-2.42-1.92-3.16c-1.03-0.75-2.38-1.12-4.03-1.12c-1.6,0-2.88,0.36-3.86,1.07
			c-0.97,0.71-1.65,1.78-2.03,3.22H349.1z"/>
		<path class="st14" d="M366.29,425.67c0.7-0.62,1.54-1.1,2.5-1.45s1.98-0.53,3.03-0.53c3.05,0,5.54,1.01,7.48,3.02
			s2.91,4.6,2.91,7.75c0,2.87-0.99,5.27-2.97,7.2s-4.47,2.89-7.47,2.89c-1.42,0-2.66-0.25-3.7-0.74c-1.05-0.49-1.9-1.23-2.56-2.21
			v1.45c0,0.29-0.11,0.52-0.34,0.69c-0.23,0.17-0.55,0.25-0.96,0.25h-3.38c-1,0-1.7-0.19-2.12-0.56c-0.42-0.37-0.63-1-0.63-1.88
			c0-0.78,0.2-1.37,0.6-1.77c0.4-0.4,1-0.6,1.79-0.6h0.35v-19.07h-0.35c-0.79,0-1.4-0.21-1.81-0.63c-0.42-0.42-0.63-1.02-0.63-1.81
			c0-0.86,0.21-1.49,0.64-1.87s1.14-0.57,2.15-0.57h4.11c0.47,0,0.81,0.11,1.02,0.34c0.21,0.23,0.32,0.6,0.32,1.11V425.67z
			 M371.14,428.38c-1.44,0-2.63,0.54-3.57,1.61c-0.94,1.08-1.42,2.44-1.42,4.1c0,1.7,0.47,3.09,1.41,4.16
			c0.94,1.08,2.13,1.62,3.58,1.62s2.65-0.54,3.59-1.63c0.95-1.08,1.42-2.47,1.42-4.15c0-1.64-0.48-3-1.43-4.09
			S372.58,428.38,371.14,428.38z"/>
		<path class="st14" d="M397.25,423.21c3.56,0,6.45,1,8.66,2.99s3.32,4.55,3.32,7.67c0,3.13-1.11,5.7-3.32,7.69s-5.1,2.99-8.66,2.99
			c-3.54,0-6.42-1-8.64-2.99s-3.32-4.56-3.32-7.69c0-3.12,1.11-5.68,3.33-7.67C390.84,424.21,393.72,423.21,397.25,423.21z
			 M397.25,427.85c-1.71,0-3.12,0.56-4.23,1.68c-1.11,1.12-1.66,2.55-1.66,4.3c0,1.76,0.55,3.21,1.66,4.36
			c1.11,1.15,2.52,1.72,4.23,1.72s3.13-0.57,4.24-1.72s1.67-2.6,1.67-4.36c0-1.74-0.55-3.18-1.66-4.3
			C400.39,428.41,398.97,427.85,397.25,427.85z"/>
		<path class="st14" d="M424.25,423.21c3.56,0,6.45,1,8.66,2.99s3.32,4.55,3.32,7.67c0,3.13-1.11,5.7-3.32,7.69s-5.1,2.99-8.66,2.99
			c-3.54,0-6.42-1-8.64-2.99s-3.32-4.56-3.32-7.69c0-3.12,1.11-5.68,3.33-7.67C417.84,424.21,420.72,423.21,424.25,423.21z
			 M424.25,427.85c-1.71,0-3.12,0.56-4.23,1.68c-1.11,1.12-1.66,2.55-1.66,4.3c0,1.76,0.55,3.21,1.66,4.36
			c1.11,1.15,2.52,1.72,4.23,1.72s3.13-0.57,4.24-1.72s1.67-2.6,1.67-4.36c0-1.74-0.55-3.18-1.66-4.3
			C427.4,428.41,425.98,427.85,424.25,427.85z"/>
		<path class="st14" d="M447.76,432.07l4.64-4.17c-0.45-0.15-0.77-0.34-0.93-0.59c-0.17-0.25-0.25-0.64-0.25-1.16
			c0-0.89,0.2-1.52,0.59-1.89s1.1-0.55,2.11-0.55h4.86c1,0,1.7,0.18,2.12,0.55c0.42,0.37,0.63,0.98,0.63,1.85
			c0,0.64-0.12,1.11-0.36,1.41c-0.24,0.29-0.74,0.51-1.48,0.66c-0.69,0.13-1.3,0.35-1.83,0.66c-0.54,0.31-1.15,0.82-1.86,1.54
			l-1.56,1.63l5.8,7.21h0.55c0.85,0,1.49,0.2,1.91,0.59s0.64,0.99,0.64,1.78c0,0.86-0.21,1.49-0.64,1.87s-1.14,0.57-2.15,0.57h-5.38
			c-0.95,0-1.64-0.16-2.07-0.48s-0.64-0.83-0.64-1.54c0-0.53,0.12-0.95,0.37-1.26c0.25-0.31,0.66-0.58,1.23-0.8l-3.58-4.37
			l-2.7,2.48v4.53c0,0.56-0.1,0.94-0.29,1.14s-0.53,0.31-1.03,0.31h-3.96c-0.97,0-1.66-0.19-2.08-0.57c-0.42-0.38-0.63-1-0.63-1.87
			c0-0.78,0.2-1.37,0.59-1.77c0.4-0.4,0.98-0.6,1.76-0.6h0.35v-19.07h-0.35c-0.78,0-1.37-0.21-1.78-0.64s-0.62-1.03-0.62-1.8
			c0-0.85,0.21-1.47,0.64-1.86s1.13-0.58,2.11-0.58h3.96c0.5,0,0.84,0.1,1.03,0.31s0.29,0.59,0.29,1.14V432.07z"/>
	</g>
	<g class="st11">
		<path class="st14" d="M263.63,424.33h4.72c1.01,0,1.73,0.19,2.15,0.56c0.42,0.37,0.64,0.99,0.64,1.83s-0.22,1.46-0.65,1.85
			s-1.15,0.57-2.14,0.57h-4.72v10.04H268c1.01,0,1.73,0.18,2.15,0.55s0.64,0.97,0.64,1.82c0,0.86-0.22,1.49-0.65,1.87
			S269,444,268,444H255.9c-1.01,0-1.73-0.19-2.15-0.57s-0.64-1-0.64-1.87c0-0.85,0.21-1.46,0.63-1.82c0.42-0.37,1.14-0.55,2.16-0.55
			h2.33v-10.04h-2.33c-1.01,0-1.73-0.19-2.15-0.57s-0.64-1-0.64-1.85c0-0.86,0.21-1.48,0.63-1.85c0.42-0.37,1.14-0.55,2.16-0.55
			h2.33v-1.25c0-2.87,0.74-4.91,2.22-6.12c1.48-1.21,4-1.81,7.56-1.81c1.85,0,3.2,0.22,4.08,0.66s1.31,1.12,1.31,2.04
			c0,0.62-0.19,1.11-0.58,1.47c-0.39,0.37-0.91,0.55-1.57,0.55c-0.48,0-1.17-0.07-2.05-0.2s-1.5-0.2-1.86-0.2
			c-1.36,0-2.32,0.3-2.87,0.91c-0.55,0.61-0.82,1.68-0.82,3.22V424.33z"/>
		<path class="st14" d="M298.19,439.19h0.35c0.79,0,1.4,0.21,1.81,0.63c0.42,0.42,0.63,1.01,0.63,1.79c0,0.85-0.22,1.46-0.65,1.83
			c-0.43,0.37-1.15,0.56-2.14,0.56h-2.07c-0.73,0-1.28-0.14-1.64-0.42c-0.36-0.28-0.66-0.78-0.89-1.52
			c-1.22,0.81-2.5,1.42-3.87,1.85s-2.74,0.64-4.13,0.64c-2.36,0-4.21-0.59-5.56-1.76s-2.02-2.78-2.02-4.81c0-2.2,0.87-3.9,2.61-5.12
			s4.19-1.82,7.34-1.82c0.7,0,1.45,0.04,2.24,0.11s1.68,0.19,2.66,0.35v-0.42c0-1.32-0.32-2.32-0.96-3.01
			c-0.64-0.69-1.58-1.03-2.82-1.03c-0.97,0-2.2,0.36-3.7,1.08c-1.5,0.72-2.6,1.08-3.31,1.08c-0.69,0-1.25-0.2-1.67-0.6
			c-0.42-0.4-0.64-0.93-0.64-1.59c0-1.19,0.87-2.13,2.6-2.82c1.74-0.7,4.1-1.04,7.09-1.04c3.12,0,5.35,0.6,6.7,1.8
			s2.02,3.24,2.02,6.11V439.19z M292.88,434.95c-0.73-0.16-1.41-0.28-2.02-0.36s-1.19-0.12-1.71-0.12c-1.61,0-2.88,0.27-3.79,0.81
			c-0.92,0.54-1.37,1.29-1.37,2.24c0,0.85,0.29,1.5,0.88,1.94s1.43,0.67,2.53,0.67c1.01,0,1.96-0.15,2.86-0.44s1.77-0.75,2.64-1.36
			V434.95z"/>
		<path class="st14" d="M322.76,424.88c0.18-0.57,0.45-1,0.82-1.29c0.37-0.29,0.85-0.43,1.44-0.43c0.79,0,1.35,0.24,1.69,0.71
			c0.34,0.48,0.51,1.3,0.51,2.47v3.6c0,0.89-0.18,1.55-0.55,1.98s-0.93,0.64-1.69,0.64c-0.54,0-1-0.12-1.36-0.37
			s-0.75-0.73-1.16-1.43c-0.59-1-1.35-1.73-2.31-2.21s-2.12-0.71-3.49-0.71c-1.71,0-3.12,0.56-4.21,1.68
			c-1.09,1.12-1.64,2.55-1.64,4.3c0,1.83,0.56,3.3,1.69,4.42s2.64,1.67,4.55,1.67c1.73,0,3.45-0.48,5.15-1.44
			c1.71-0.96,2.75-1.44,3.13-1.44c0.54,0,0.99,0.21,1.35,0.63c0.36,0.42,0.54,0.94,0.54,1.57c0,1.38-1.04,2.61-3.13,3.69
			c-2.09,1.08-4.57,1.63-7.44,1.63c-3.54,0-6.43-1-8.65-2.99c-2.22-1.99-3.33-4.56-3.33-7.69c0-3.06,1.1-5.61,3.3-7.65
			s4.97-3.05,8.31-3.05c1.13,0,2.23,0.14,3.3,0.42S321.7,424.3,322.76,424.88z"/>
		<path class="st14" d="M337.26,435.15c0.38,1.63,1.12,2.84,2.21,3.65s2.55,1.21,4.36,1.21s3.61-0.44,5.38-1.33s2.84-1.33,3.21-1.33
			c0.54,0,0.98,0.2,1.33,0.6c0.34,0.4,0.52,0.92,0.52,1.55c0,1.38-1.02,2.56-3.05,3.56s-4.56,1.49-7.56,1.49
			c-3.54,0-6.43-1-8.65-2.99c-2.22-1.99-3.33-4.56-3.33-7.69c0-3.12,1.11-5.68,3.33-7.67c2.22-1.99,5.1-2.99,8.65-2.99
			c3.16,0,5.79,0.93,7.87,2.8c2.08,1.87,3.12,4.16,3.12,6.87c0,0.86-0.21,1.46-0.63,1.78c-0.42,0.32-1.28,0.48-2.58,0.48H337.26z
			 M349.1,431.72c-0.25-1.36-0.89-2.42-1.92-3.16c-1.03-0.75-2.38-1.12-4.03-1.12c-1.6,0-2.88,0.36-3.86,1.07
			c-0.97,0.71-1.65,1.78-2.03,3.22H349.1z"/>
		<path class="st14" d="M366.29,425.67c0.7-0.62,1.54-1.1,2.5-1.45s1.98-0.53,3.03-0.53c3.05,0,5.54,1.01,7.48,3.02
			s2.91,4.6,2.91,7.75c0,2.87-0.99,5.27-2.97,7.2s-4.47,2.89-7.47,2.89c-1.42,0-2.66-0.25-3.7-0.74c-1.05-0.49-1.9-1.23-2.56-2.21
			v1.45c0,0.29-0.11,0.52-0.34,0.69c-0.23,0.17-0.55,0.25-0.96,0.25h-3.38c-1,0-1.7-0.19-2.12-0.56c-0.42-0.37-0.63-1-0.63-1.88
			c0-0.78,0.2-1.37,0.6-1.77c0.4-0.4,1-0.6,1.79-0.6h0.35v-19.07h-0.35c-0.79,0-1.4-0.21-1.81-0.63c-0.42-0.42-0.63-1.02-0.63-1.81
			c0-0.86,0.21-1.49,0.64-1.87s1.14-0.57,2.15-0.57h4.11c0.47,0,0.81,0.11,1.02,0.34c0.21,0.23,0.32,0.6,0.32,1.11V425.67z
			 M371.14,428.38c-1.44,0-2.63,0.54-3.57,1.61c-0.94,1.08-1.42,2.44-1.42,4.1c0,1.7,0.47,3.09,1.41,4.16
			c0.94,1.08,2.13,1.62,3.58,1.62s2.65-0.54,3.59-1.63c0.95-1.08,1.42-2.47,1.42-4.15c0-1.64-0.48-3-1.43-4.09
			S372.58,428.38,371.14,428.38z"/>
		<path class="st14" d="M397.25,423.21c3.56,0,6.45,1,8.66,2.99s3.32,4.55,3.32,7.67c0,3.13-1.11,5.7-3.32,7.69s-5.1,2.99-8.66,2.99
			c-3.54,0-6.42-1-8.64-2.99s-3.32-4.56-3.32-7.69c0-3.12,1.11-5.68,3.33-7.67C390.84,424.21,393.72,423.21,397.25,423.21z
			 M397.25,427.85c-1.71,0-3.12,0.56-4.23,1.68c-1.11,1.12-1.66,2.55-1.66,4.3c0,1.76,0.55,3.21,1.66,4.36
			c1.11,1.15,2.52,1.72,4.23,1.72s3.13-0.57,4.24-1.72s1.67-2.6,1.67-4.36c0-1.74-0.55-3.18-1.66-4.3
			C400.39,428.41,398.97,427.85,397.25,427.85z"/>
		<path class="st14" d="M424.25,423.21c3.56,0,6.45,1,8.66,2.99s3.32,4.55,3.32,7.67c0,3.13-1.11,5.7-3.32,7.69s-5.1,2.99-8.66,2.99
			c-3.54,0-6.42-1-8.64-2.99s-3.32-4.56-3.32-7.69c0-3.12,1.11-5.68,3.33-7.67C417.84,424.21,420.72,423.21,424.25,423.21z
			 M424.25,427.85c-1.71,0-3.12,0.56-4.23,1.68c-1.11,1.12-1.66,2.55-1.66,4.3c0,1.76,0.55,3.21,1.66,4.36
			c1.11,1.15,2.52,1.72,4.23,1.72s3.13-0.57,4.24-1.72s1.67-2.6,1.67-4.36c0-1.74-0.55-3.18-1.66-4.3
			C427.4,428.41,425.98,427.85,424.25,427.85z"/>
		<path class="st14" d="M447.76,432.07l4.64-4.17c-0.45-0.15-0.77-0.34-0.93-0.59c-0.17-0.25-0.25-0.64-0.25-1.16
			c0-0.89,0.2-1.52,0.59-1.89s1.1-0.55,2.11-0.55h4.86c1,0,1.7,0.18,2.12,0.55c0.42,0.37,0.63,0.98,0.63,1.85
			c0,0.64-0.12,1.11-0.36,1.41c-0.24,0.29-0.74,0.51-1.48,0.66c-0.69,0.13-1.3,0.35-1.83,0.66c-0.54,0.31-1.15,0.82-1.86,1.54
			l-1.56,1.63l5.8,7.21h0.55c0.85,0,1.49,0.2,1.91,0.59s0.64,0.99,0.64,1.78c0,0.86-0.21,1.49-0.64,1.87s-1.14,0.57-2.15,0.57h-5.38
			c-0.95,0-1.64-0.16-2.07-0.48s-0.64-0.83-0.64-1.54c0-0.53,0.12-0.95,0.37-1.26c0.25-0.31,0.66-0.58,1.23-0.8l-3.58-4.37
			l-2.7,2.48v4.53c0,0.56-0.1,0.94-0.29,1.14s-0.53,0.31-1.03,0.31h-3.96c-0.97,0-1.66-0.19-2.08-0.57c-0.42-0.38-0.63-1-0.63-1.87
			c0-0.78,0.2-1.37,0.59-1.77c0.4-0.4,0.98-0.6,1.76-0.6h0.35v-19.07h-0.35c-0.78,0-1.37-0.21-1.78-0.64s-0.62-1.03-0.62-1.8
			c0-0.85,0.21-1.47,0.64-1.86s1.13-0.58,2.11-0.58h3.96c0.5,0,0.84,0.1,1.03,0.31s0.29,0.59,0.29,1.14V432.07z"/>
	</g>
	<g class="st11">
		<path class="st14" d="M263.63,424.33h4.72c1.01,0,1.73,0.19,2.15,0.56c0.42,0.37,0.64,0.99,0.64,1.83s-0.22,1.46-0.65,1.85
			s-1.15,0.57-2.14,0.57h-4.72v10.04H268c1.01,0,1.73,0.18,2.15,0.55s0.64,0.97,0.64,1.82c0,0.86-0.22,1.49-0.65,1.87
			S269,444,268,444H255.9c-1.01,0-1.73-0.19-2.15-0.57s-0.64-1-0.64-1.87c0-0.85,0.21-1.46,0.63-1.82c0.42-0.37,1.14-0.55,2.16-0.55
			h2.33v-10.04h-2.33c-1.01,0-1.73-0.19-2.15-0.57s-0.64-1-0.64-1.85c0-0.86,0.21-1.48,0.63-1.85c0.42-0.37,1.14-0.55,2.16-0.55
			h2.33v-1.25c0-2.87,0.74-4.91,2.22-6.12c1.48-1.21,4-1.81,7.56-1.81c1.85,0,3.2,0.22,4.08,0.66s1.31,1.12,1.31,2.04
			c0,0.62-0.19,1.11-0.58,1.47c-0.39,0.37-0.91,0.55-1.57,0.55c-0.48,0-1.17-0.07-2.05-0.2s-1.5-0.2-1.86-0.2
			c-1.36,0-2.32,0.3-2.87,0.91c-0.55,0.61-0.82,1.68-0.82,3.22V424.33z"/>
		<path class="st14" d="M298.19,439.19h0.35c0.79,0,1.4,0.21,1.81,0.63c0.42,0.42,0.63,1.01,0.63,1.79c0,0.85-0.22,1.46-0.65,1.83
			c-0.43,0.37-1.15,0.56-2.14,0.56h-2.07c-0.73,0-1.28-0.14-1.64-0.42c-0.36-0.28-0.66-0.78-0.89-1.52
			c-1.22,0.81-2.5,1.42-3.87,1.85s-2.74,0.64-4.13,0.64c-2.36,0-4.21-0.59-5.56-1.76s-2.02-2.78-2.02-4.81c0-2.2,0.87-3.9,2.61-5.12
			s4.19-1.82,7.34-1.82c0.7,0,1.45,0.04,2.24,0.11s1.68,0.19,2.66,0.35v-0.42c0-1.32-0.32-2.32-0.96-3.01
			c-0.64-0.69-1.58-1.03-2.82-1.03c-0.97,0-2.2,0.36-3.7,1.08c-1.5,0.72-2.6,1.08-3.31,1.08c-0.69,0-1.25-0.2-1.67-0.6
			c-0.42-0.4-0.64-0.93-0.64-1.59c0-1.19,0.87-2.13,2.6-2.82c1.74-0.7,4.1-1.04,7.09-1.04c3.12,0,5.35,0.6,6.7,1.8
			s2.02,3.24,2.02,6.11V439.19z M292.88,434.95c-0.73-0.16-1.41-0.28-2.02-0.36s-1.19-0.12-1.71-0.12c-1.61,0-2.88,0.27-3.79,0.81
			c-0.92,0.54-1.37,1.29-1.37,2.24c0,0.85,0.29,1.5,0.88,1.94s1.43,0.67,2.53,0.67c1.01,0,1.96-0.15,2.86-0.44s1.77-0.75,2.64-1.36
			V434.95z"/>
		<path class="st14" d="M322.76,424.88c0.18-0.57,0.45-1,0.82-1.29c0.37-0.29,0.85-0.43,1.44-0.43c0.79,0,1.35,0.24,1.69,0.71
			c0.34,0.48,0.51,1.3,0.51,2.47v3.6c0,0.89-0.18,1.55-0.55,1.98s-0.93,0.64-1.69,0.64c-0.54,0-1-0.12-1.36-0.37
			s-0.75-0.73-1.16-1.43c-0.59-1-1.35-1.73-2.31-2.21s-2.12-0.71-3.49-0.71c-1.71,0-3.12,0.56-4.21,1.68
			c-1.09,1.12-1.64,2.55-1.64,4.3c0,1.83,0.56,3.3,1.69,4.42s2.64,1.67,4.55,1.67c1.73,0,3.45-0.48,5.15-1.44
			c1.71-0.96,2.75-1.44,3.13-1.44c0.54,0,0.99,0.21,1.35,0.63c0.36,0.42,0.54,0.94,0.54,1.57c0,1.38-1.04,2.61-3.13,3.69
			c-2.09,1.08-4.57,1.63-7.44,1.63c-3.54,0-6.43-1-8.65-2.99c-2.22-1.99-3.33-4.56-3.33-7.69c0-3.06,1.1-5.61,3.3-7.65
			s4.97-3.05,8.31-3.05c1.13,0,2.23,0.14,3.3,0.42S321.7,424.3,322.76,424.88z"/>
		<path class="st14" d="M337.26,435.15c0.38,1.63,1.12,2.84,2.21,3.65s2.55,1.21,4.36,1.21s3.61-0.44,5.38-1.33s2.84-1.33,3.21-1.33
			c0.54,0,0.98,0.2,1.33,0.6c0.34,0.4,0.52,0.92,0.52,1.55c0,1.38-1.02,2.56-3.05,3.56s-4.56,1.49-7.56,1.49
			c-3.54,0-6.43-1-8.65-2.99c-2.22-1.99-3.33-4.56-3.33-7.69c0-3.12,1.11-5.68,3.33-7.67c2.22-1.99,5.1-2.99,8.65-2.99
			c3.16,0,5.79,0.93,7.87,2.8c2.08,1.87,3.12,4.16,3.12,6.87c0,0.86-0.21,1.46-0.63,1.78c-0.42,0.32-1.28,0.48-2.58,0.48H337.26z
			 M349.1,431.72c-0.25-1.36-0.89-2.42-1.92-3.16c-1.03-0.75-2.38-1.12-4.03-1.12c-1.6,0-2.88,0.36-3.86,1.07
			c-0.97,0.71-1.65,1.78-2.03,3.22H349.1z"/>
		<path class="st14" d="M366.29,425.67c0.7-0.62,1.54-1.1,2.5-1.45s1.98-0.53,3.03-0.53c3.05,0,5.54,1.01,7.48,3.02
			s2.91,4.6,2.91,7.75c0,2.87-0.99,5.27-2.97,7.2s-4.47,2.89-7.47,2.89c-1.42,0-2.66-0.25-3.7-0.74c-1.05-0.49-1.9-1.23-2.56-2.21
			v1.45c0,0.29-0.11,0.52-0.34,0.69c-0.23,0.17-0.55,0.25-0.96,0.25h-3.38c-1,0-1.7-0.19-2.12-0.56c-0.42-0.37-0.63-1-0.63-1.88
			c0-0.78,0.2-1.37,0.6-1.77c0.4-0.4,1-0.6,1.79-0.6h0.35v-19.07h-0.35c-0.79,0-1.4-0.21-1.81-0.63c-0.42-0.42-0.63-1.02-0.63-1.81
			c0-0.86,0.21-1.49,0.64-1.87s1.14-0.57,2.15-0.57h4.11c0.47,0,0.81,0.11,1.02,0.34c0.21,0.23,0.32,0.6,0.32,1.11V425.67z
			 M371.14,428.38c-1.44,0-2.63,0.54-3.57,1.61c-0.94,1.08-1.42,2.44-1.42,4.1c0,1.7,0.47,3.09,1.41,4.16
			c0.94,1.08,2.13,1.62,3.58,1.62s2.65-0.54,3.59-1.63c0.95-1.08,1.42-2.47,1.42-4.15c0-1.64-0.48-3-1.43-4.09
			S372.58,428.38,371.14,428.38z"/>
		<path class="st14" d="M397.25,423.21c3.56,0,6.45,1,8.66,2.99s3.32,4.55,3.32,7.67c0,3.13-1.11,5.7-3.32,7.69s-5.1,2.99-8.66,2.99
			c-3.54,0-6.42-1-8.64-2.99s-3.32-4.56-3.32-7.69c0-3.12,1.11-5.68,3.33-7.67C390.84,424.21,393.72,423.21,397.25,423.21z
			 M397.25,427.85c-1.71,0-3.12,0.56-4.23,1.68c-1.11,1.12-1.66,2.55-1.66,4.3c0,1.76,0.55,3.21,1.66,4.36
			c1.11,1.15,2.52,1.72,4.23,1.72s3.13-0.57,4.24-1.72s1.67-2.6,1.67-4.36c0-1.74-0.55-3.18-1.66-4.3
			C400.39,428.41,398.97,427.85,397.25,427.85z"/>
		<path class="st14" d="M424.25,423.21c3.56,0,6.45,1,8.66,2.99s3.32,4.55,3.32,7.67c0,3.13-1.11,5.7-3.32,7.69s-5.1,2.99-8.66,2.99
			c-3.54,0-6.42-1-8.64-2.99s-3.32-4.56-3.32-7.69c0-3.12,1.11-5.68,3.33-7.67C417.84,424.21,420.72,423.21,424.25,423.21z
			 M424.25,427.85c-1.71,0-3.12,0.56-4.23,1.68c-1.11,1.12-1.66,2.55-1.66,4.3c0,1.76,0.55,3.21,1.66,4.36
			c1.11,1.15,2.52,1.72,4.23,1.72s3.13-0.57,4.24-1.72s1.67-2.6,1.67-4.36c0-1.74-0.55-3.18-1.66-4.3
			C427.4,428.41,425.98,427.85,424.25,427.85z"/>
		<path class="st14" d="M447.76,432.07l4.64-4.17c-0.45-0.15-0.77-0.34-0.93-0.59c-0.17-0.25-0.25-0.64-0.25-1.16
			c0-0.89,0.2-1.52,0.59-1.89s1.1-0.55,2.11-0.55h4.86c1,0,1.7,0.18,2.12,0.55c0.42,0.37,0.63,0.98,0.63,1.85
			c0,0.64-0.12,1.11-0.36,1.41c-0.24,0.29-0.74,0.51-1.48,0.66c-0.69,0.13-1.3,0.35-1.83,0.66c-0.54,0.31-1.15,0.82-1.86,1.54
			l-1.56,1.63l5.8,7.21h0.55c0.85,0,1.49,0.2,1.91,0.59s0.64,0.99,0.64,1.78c0,0.86-0.21,1.49-0.64,1.87s-1.14,0.57-2.15,0.57h-5.38
			c-0.95,0-1.64-0.16-2.07-0.48s-0.64-0.83-0.64-1.54c0-0.53,0.12-0.95,0.37-1.26c0.25-0.31,0.66-0.58,1.23-0.8l-3.58-4.37
			l-2.7,2.48v4.53c0,0.56-0.1,0.94-0.29,1.14s-0.53,0.31-1.03,0.31h-3.96c-0.97,0-1.66-0.19-2.08-0.57c-0.42-0.38-0.63-1-0.63-1.87
			c0-0.78,0.2-1.37,0.59-1.77c0.4-0.4,0.98-0.6,1.76-0.6h0.35v-19.07h-0.35c-0.78,0-1.37-0.21-1.78-0.64s-0.62-1.03-0.62-1.8
			c0-0.85,0.21-1.47,0.64-1.86s1.13-0.58,2.11-0.58h3.96c0.5,0,0.84,0.1,1.03,0.31s0.29,0.59,0.29,1.14V432.07z"/>
	</g>
</g>
</svg>
