<svg xmlns="http://www.w3.org/2000/svg" xmlns:xlink="http://www.w3.org/1999/xlink" viewBox="0 0 1080 1080"><defs><style>.cls-1{fill:none;}.cls-2{fill:#ffed7d;}.cls-3{clip-path:url(#clip-path);}.cls-4,.cls-5,.cls-7,.cls-9{fill:#f6e9a0;}.cls-4,.cls-5{stroke:#c19a7c;stroke-linecap:round;stroke-linejoin:round;}.cls-4,.cls-5,.cls-7,.cls-8{stroke-width:7px;}.cls-5{opacity:0.6;isolation:isolate;}.cls-6{fill:#fad3d5;}.cls-7,.cls-8{stroke:#ee8186;stroke-miterlimit:10;}.cls-12,.cls-8{fill:#f2a2b0;}.cls-10{fill:#ee8186;}.cls-11{font-size:57.24px;fill:#fff;font-family:Courier-Bold, Courier;font-weight:700;}</style><clipPath id="clip-path"><rect class="cls-1" width="1080" height="1080"/></clipPath></defs><g id="bg"><rect class="cls-2" width="1080" height="1080"/><g class="cls-3"><path class="cls-4" d="M275.27,129.93c-32.26-6.17-66.19-27.83-95.07-29.55-33.92-2-49,5.56-62.8,10.59l-247,105.82-11.23-16.5L121.61,91c18.32-7.33,37.68-11.74,57.48-11.06,17,.57,33.68,4.54,50.16,8.25,24.82,5.71,13.94,3.25,32.63,7.43C285.74,106.07,292.44,123.23,275.27,129.93Z"/><path class="cls-4" d="M-42,313.13c10.8-31,9-71.25,22-97.11,15.21-30.39,29.32-39.68,40.57-49.09L235.64,5.9l-8.68-18L1.05,160.58c-15.51,12.19-29,26.76-38.32,44.24-8,15-12.9,31.44-17.93,47.57-7.46,24.35-4.16,13.69-9.87,32C-67.93,310.27-56.42,324.65-42,313.13Z"/><path class="cls-5" d="M-97.15,111.22-62,91a71.86,71.86,0,0,1,98.17,26.3l1.85,3.2a71.87,71.87,0,0,1-26.31,98.17l-35.11,20.27a71.86,71.86,0,0,1-98.17-26.31l-1.84-3.19A71.86,71.86,0,0,1-97.15,111.22Z"/><path class="cls-4" d="M-21.6,242.08a75.54,75.54,0,0,1-103.2-27.66l-1.85-3.18A75.56,75.56,0,0,1-99,108l35.11-20.27A75.56,75.56,0,0,1,39.33,115.41l1.84,3.19A75.56,75.56,0,0,1,13.51,221.81Zm-3.68-6.38L9.83,215.43a68.19,68.19,0,0,0,25-93.14l-1.84-3.19a68.18,68.18,0,0,0-93.14-25l-35.1,20.27a68.16,68.16,0,0,0-25,93.13l1.84,3.2A68.19,68.19,0,0,0-25.28,235.7Z"/><path class="cls-5" d="M94.36.65l35.1-20.27A71.89,71.89,0,0,1,227.64,6.69l1.84,3.19a71.87,71.87,0,0,1-26.3,98.18l-35.11,20.27A71.87,71.87,0,0,1,69.9,102l-1.85-3.19A71.88,71.88,0,0,1,94.36.65Z"/><path class="cls-4" d="M169.91,131.52A75.57,75.57,0,0,1,66.7,103.86l-1.84-3.19A75.56,75.56,0,0,1,92.52-2.54l35.11-20.27A75.55,75.55,0,0,1,230.83,4.85L232.67,8A75.56,75.56,0,0,1,205,111.25Zm-3.68-6.39,35.1-20.27a68.17,68.17,0,0,0,25-93.13l-1.85-3.19a68.16,68.16,0,0,0-93.13-25L96.2,3.85A68.17,68.17,0,0,0,71.25,97l1.84,3.2A68.19,68.19,0,0,0,166.23,125.13Z"/><path class="cls-4" d="M215.23-5.29,227-12.07l10,17.28L225.2,12Z"/><path class="cls-4" d="M17.66,110a9.34,9.34,0,0,1-8.3-10.28C10.8,82.45,22.76,67.35,39.81,63.3c9.36-2.22,18.57-.68,27.29,3.06a9.34,9.34,0,1,1-7.57,17.07C52.3,79.78,45,80.2,38,84c-6.31,4-9.3,10.47-10.07,17.7A9.34,9.34,0,0,1,17.66,110Z"/><path class="cls-4" d="M883.31-398.43l530.2,419.21c17.33,13.71,19.58,39.76,5,58.18l-269.59,341c-14.57,18.42-40.43,22.24-57.77,8.53L561,9.25c-17.34-13.71-19.59-39.75-5-58.17l269.59-341C840.1-408.31,866-412.13,883.31-398.43Z"/><path class="cls-4" d="M853.9,32.34l147.24,116.42L921,250.07,773.79,133.66Z"/><path class="cls-4" d="M835.8-14.37l26.37-33.35,215,170-26.37,33.35Z"/><path class="cls-4" d="M1058.17,161.45l26.37-33.35,29.65,23.44-26.37,33.36Z"/><path class="cls-4" d="M1052.84,91l23.44-29.65,30.16,23.84L1083,114.82Z"/><path class="cls-4" d="M979.22,32.77l23.45-29.65,29.65,23.45-23.45,29.65Z"/><path class="cls-4" d="M905.6-25.44,929-55.09,958.19-32,934.75-2.39Z"/><path class="cls-4" d="M942.16,3.47,965.6-26.18,995.25-2.74,971.81,26.91Z"/><path class="cls-4" d="M1016.28,62.07l23.44-29.65,29.15,23-23.44,29.65Z"/><path class="cls-4" d="M1082.14,53.92l23.44-29.65,30.16,23.84L1112.3,77.76Z"/><path class="cls-4" d="M1008.53-4.29,1032-33.94l29.65,23.45-23.44,29.65Z"/><path class="cls-4" d="M1045.58,25,1069-4.64l29.15,23.05-23.44,29.65Z"/><path class="cls-4" d="M1074.89-12l23.44-29.65,29.15,23.05L1104,11Z"/><path class="cls-4" d="M833.3-323.53l26.37-33.35L1378.53,53.36l-26.37,33.35-33.35-26.37L1345.18,27l-7.42-5.86L1311.4,54.48,1281.75,31l26.36-33.35-7.41-5.86-26.36,33.35L1244.69,1.74l26.36-33.35-7.41-5.87L1237.27-4.13l-29.65-23.44L1234-60.92l-7.41-5.86-26.37,33.35-30.15-23.84,26.37-33.35L1189-96.48l-26.37,33.35-29.15-23,26.37-33.35-7.41-5.86L1126.09-92l-29.65-23.45,26.37-33.35-7.42-5.86L1089-121.34l-29.65-23.44,26.36-33.35-7.41-5.86L1052-150.64l-29.15-23.05L1049.18-207l-7.41-5.86-26.36,33.35-30.16-23.84,26.37-33.35-7.41-5.86-26.37,33.35-29.65-23.44L974.56-266l-7.41-5.86-26.37,33.35L911.13-262l26.37-33.35-7.41-5.86-26.37,33.35L874.07-291.3l26.37-33.35L893-330.51l-26.37,33.35Z"/><path class="cls-4" d="M893.72-390.19c-13-10.25-17.22-26.28-16.83-45.8a125,125,0,0,1,3-25.08l.33-1.43L997.52-747.22l1.58-2c18.89-23.89,54-27.17,78.33-7.92l640.34,506.29c24.35,19.26,29.25,54.15,10.36,78l-1.58,2L1476.56,9l-1.31.65a125,125,0,0,1-23.71,8.72c-18.9,4.88-35.49,4.44-48.45-5.81Zm22.66-28.65L1425.74-16.11c1.54,1.22,7.82,1.39,16.66-.9a93.79,93.79,0,0,0,11.89-4c3.1-1.32,2-.78,3.5-1.51L1700.47-197c5.78-8.81,1.46-18.66-5.35-25.16l-640.35-506.3c-7.72-5.63-18.57-6.64-25.71.6L915.22-451.5c-.35,1.68-.1.43-.66,3.75a92.2,92.2,0,0,0-1.15,12.49C913.23-426.12,914.84-420.06,916.38-418.84Z"/><path class="cls-4" d="M43.65,688l274.1,302.88a30.14,30.14,0,0,1-2.12,42.57l-402.19,364a30.14,30.14,0,0,1-42.57-2.12l-274.1-302.88a30.14,30.14,0,0,1,2.12-42.57l402.18-364A30.15,30.15,0,0,1,43.65,688Z"/><path class="cls-4" d="M21.06,712.92l269.62,297.92-397.22,359.48-269.62-297.91Z"/><path class="cls-4" d="M86.11,834.69l74.48-67.4,89.87,99.31L176,934Zm69.76,27.19c12.41,13.71,28,19.8,34.88,13.59s2.36-22.35-10.05-36.06-28-19.79-34.88-13.59S143.46,848.17,155.87,861.88Z"/><path class="cls-4" d="M1186.67,856.82l11.7,43.77L815.32,1003l-11.7-43.77Z"/><path class="cls-4" d="M803.62,959.24l11.7,43.77-57.64,3.69-5.85-21.89Z"/><path class="cls-4" d="M751.83,984.81l5.85,21.89-24.82-5.09h0Z"/><path class="cls-4" d="M1026.19,958.36c-1.12-6,.74-9.85,5.88-13.06a12,12,0,0,1,2.14-.81,11.32,11.32,0,0,1,13.87,8c.57,3.51.47,1.5-.15,6l1.91.54,81-21.65a18.64,18.64,0,0,0,3.43-1.3c4.45-2.78,7.27-5.18,9-10.31,1.66-4.87,1.06-6.37.38-10.58L1132,871.45l43.78-11.71,11.7,43.78c2,11.17-6.83,21.21-14.13,28.53a29.13,29.13,0,0,1-11.68,6.52l-109.44,29.26c-4.76.75-4.71,1-10.67,0a17.51,17.51,0,0,1-3-1.19,11,11,0,0,1-8.81-2.65,24.06,24.06,0,0,1-2.7-3.47Z"/></g></g><g id="phone"><rect class="cls-6" x="359.95" y="197.27" width="380.11" height="705.45" rx="33.07"/><rect class="cls-7" x="339.95" y="177.27" width="380.11" height="705.45" rx="33.07"/><rect class="cls-8" x="372.36" y="227.25" width="315.27" height="565.7" rx="13.53"/><path class="cls-9" d="M530,871.75a32.57,32.57,0,1,1,32.57-32.57A32.61,32.61,0,0,1,530,871.75Z"/><path class="cls-10" d="M530,810.12a29.07,29.07,0,1,1-29.07,29.06A29.07,29.07,0,0,1,530,810.12m0-7a36.07,36.07,0,1,0,36.07,36.06A36.11,36.11,0,0,0,530,803.12Z"/><text class="cls-11" transform="translate(391.71 340.17)">07:00<tspan x="171.75" y="0" xml:space="preserve"> AM</tspan></text></g><g id="button"><circle class="cls-12" cx="530" cy="839.18" r="29.07"/></g></svg>