<?xml version="1.0" encoding="utf-8"?>
<!-- Generator: Adobe Illustrator 24.3.0, SVG Export Plug-In . SVG Version: 6.00 Build 0)  -->
<svg version="1.1" xmlns="http://www.w3.org/2000/svg" xmlns:xlink="http://www.w3.org/1999/xlink" x="0px" y="0px" width="1080px"
	 height="1080px" viewBox="0 0 1080 1080" style="enable-background:new 0 0 1080 1080;" xml:space="preserve">
<style type="text/css">
	.st0{fill:#FFED7D;}
	.st1{fill:#7DAF9A;}
	.st2{fill:#C19A7C;}
	.st3{fill:#EE8186;}
	.st4{opacity:0.5;}
	.st5{fill:#F6E9A0;}
	.st6{opacity:0.5;fill:#FFFFFF;}
	.st7{fill:#548899;}
	.st8{display:none;}
	.st9{display:inline;}
	.st10{fill:#BA6540;}
	.st11{fill:#91452A;}
	.st12{fill:#A0563E;}
	.st13{fill:#DC8349;}
	.st14{display:inline;fill:none;stroke:#C19A7C;stroke-width:7;stroke-miterlimit:10;}
</style>
<g id="bg">
	<g>
		<rect x="0" class="st0" width="1080" height="1080"/>
	</g>
	<g>
		<g>
			<g>
				<path class="st1" d="M95.69,223.02c16.54-51.93,44.82-99.91,83.14-138.72c5.29-5.36,10.77-10.54,16.41-15.53
					c5.82-5.15,12.24-9.59,18.03-14.75c1.65-1.48,0.64-7.75-1.91-6.06c-11.17,7.44-21.27,17.66-30.76,27.1
					c-9.7,9.65-18.76,19.89-27.21,30.65c-17.19,21.9-31.83,45.69-43.43,71.01c-6.61,14.43-11.77,29.58-16.03,44.85
					C93.58,222.85,95.08,224.91,95.69,223.02z"/>
			</g>
		</g>
		<g>
			<g>
				<path class="st1" d="M193.08,91.52c1.45,12.11,5.93,23.31,12.62,33.45c0.8,1.21,2.46,1.22,3.17-0.11
					c10.82-20.3,8.93-47.59-6.94-64.82c-0.42-0.45-0.8-0.57-1.13-0.47c-0.48-0.12-0.98-0.01-1.44,0.51
					C191.94,68.56,191.81,80.89,193.08,91.52z"/>
			</g>
		</g>
		<g>
			<g>
				<path class="st1" d="M163.07,123.33c1.02,9.9,3.89,20.7,11.86,27.3c0.93,0.77,1.87,0.24,2.48-0.58
					c7.18-9.63,8.6-22.06,7.23-33.7c-1.12-9.5-3.78-21.82-13.32-26.16c-0.74-0.76-1.76-0.92-2.76,0.37
					c-3.22,4.14-4.26,11.24-5.04,16.32C162.68,112.3,162.51,117.87,163.07,123.33z"/>
			</g>
		</g>
		<g>
			<g>
				<g>
					<path class="st1" d="M154.65,182.6c1.26,1.71,3.24,1.19,3.91-0.77c3.33-9.77,3.8-20.19,1.36-30.22
						c-1.13-4.64-2.79-9.09-5.07-13.3c-2.11-3.89-4.67-8.31-8.73-10.36c-0.1-0.23-0.2-0.46-0.3-0.69c-1.3-2.94-4.5-2.11-4.87,0.98
						C138.66,147.32,143.16,167.04,154.65,182.6z M146.2,143.3c-0.12,0.07-0.24,0.15-0.36,0.24c-0.04-0.48-0.07-0.96-0.1-1.43
						C145.89,142.51,146.05,142.91,146.2,143.3z"/>
				</g>
			</g>
		</g>
		<g>
			<g>
				<path class="st1" d="M120.92,162.97c0.21,0.22,0.42,0.44,0.62,0.66c-0.1,0.55-0.14,1.07-0.09,1.46
					c1.71,12.99,6.49,25.32,14.14,35.97c1.34,1.87,3.35,0.3,3.49-1.55c0.59-7.72-0.32-15.33-3.22-22.55
					c-1.39-3.47-3.22-6.76-5.46-9.75c-1.35-1.8-2.74-3.25-4.29-4.56c-0.27-0.41-0.54-0.82-0.81-1.23c-0.78-1.16-1.5-1.33-2.11-0.96
					c-0.38-0.25-0.76-0.5-1.16-0.75C120.2,158.56,119.97,161.99,120.92,162.97z"/>
			</g>
		</g>
		<g>
			<g>
				<path class="st1" d="M119.21,227.49c1.39,1.46,2.97-0.82,3.06-2.04c1.04-14.62-2.59-30.67-12.79-41.63
					c-0.65-0.7-1.14-0.49-1.46,0.1c-1.21,0.14-2.26,1.22-2.37,3.13C104.8,201.83,108.86,216.61,119.21,227.49z"/>
			</g>
		</g>
		<g>
			<g>
				<path class="st1" d="M91.38,255.54c1.03,2.57,3.34,2.01,4.33-0.15c4.51-9.82,5.27-21.6,1.32-31.74
					c0.03-0.66,0.06-1.31,0.09-1.96c0.12-2.64-2.74-5.72-4.76-2.77C84.89,229.82,86.71,243.89,91.38,255.54z"/>
			</g>
		</g>
		<g>
			<g>
				<path class="st1" d="M70.9,205.13c7.38-0.2,14.64-1.8,21.32-4.98c3.63-1.73,8-4.06,11.34-7.09c0.79-0.26,1.58-0.51,2.37-0.77
					c1.59-0.52,2.23-2.91,1.97-5.04c0.27-0.94-0.11-2.46-1.06-2.69c-0.33-0.38-0.73-0.66-1.21-0.76
					c-14.18-3.08-28.65,2.86-36.71,14.92C67.78,200.43,68.09,205.2,70.9,205.13z"/>
			</g>
		</g>
		<g>
			<g>
				<path class="st1" d="M68.86,165.24c14.22,8.48,35.75,3.25,49.31-3.48c1.61-0.8,1.67-3.99-0.48-4.01
					c-0.34-1.24-1.2-2.35-2.45-2.68c-15.79-4.18-33-2.47-46.63,4.67C66.44,160.88,67.01,164.14,68.86,165.24z"/>
			</g>
		</g>
		<g>
			<g>
				<path class="st1" d="M86.12,130.07c13.76,7.08,33.58,11.19,47.26,2.47c0.91-0.2,1.82-0.4,2.73-0.62
					c1.6-0.39,2.49-2.06,2.61-3.81c0.5-0.53,0.98-1.08,1.45-1.66c0.86-1.07,0.37-4.73-1.4-3.3c-0.47,0.38-0.95,0.75-1.43,1.11
					c-0.24-0.2-0.49-0.37-0.79-0.49c-16.33-6.55-35.99-13.12-51.25-0.52C83.35,124.85,83.97,128.96,86.12,130.07z"/>
			</g>
		</g>
		<g>
			<g>
				<path class="st1" d="M114.8,87.43c16.55,6.93,35.82,13.8,51.61,4.33c1.02-0.07,2.03-0.15,3.05-0.27
					c2.02-0.22,2.84-2.21,2.86-4.24c0.09-0.08,0.18-0.16,0.27-0.24c0.93-0.89,0.36-3.8-1.02-3.1c-0.07-0.14-0.15-0.27-0.24-0.38
					c-6.32-8.82-16.21-12.82-26.92-11.79c-10.26,0.99-21.84,3.32-30.39,9.3C112.17,82.32,112.78,86.58,114.8,87.43z"/>
			</g>
		</g>
	</g>
	<g>
		<g>
			<g>
				<path class="st1" d="M928.42,932.89c0.43-0.26,0.84-0.45,1.18-0.53c0.61-0.14,1.23-0.28,1.86-0.41
					c0.12-0.08,0.25-0.15,0.37-0.23c3.81-5.06,7.54-10.15,11.22-15.25c4.88-6.76,9.56-13.63,14.12-20.58
					c-1.62-1.44,1.5-4.57,3.15-4.98c0.03-0.01,0.06-0.01,0.1-0.02c7.22-11.25,14.07-22.73,20.66-34.41
					c-0.78,0.28-1.47,0.24-2.01-0.03c-0.52,0.17-1.03,0.24-1.48,0.18c-4.47,7.33-9.09,14.59-13.84,21.76
					c-0.84,4.71-2.44,9.27-4.76,13.03c-0.7,1.14-4.15,2.66-4.86,1.18c-5,7.21-10.11,14.35-15.31,21.39
					c-2.44,3.31-4.93,6.56-7.44,9.8C930.9,927.01,930.11,930.28,928.42,932.89z"/>
			</g>
		</g>
		<g>
			<g>
				<path class="st1" d="M926.79,938.33c-0.1-0.06-0.19-0.1-0.29-0.16c-0.86-0.53-1.07-1.24-0.91-1.98
					c-0.99,0.56-2.11,0.75-2.85,0.17c-0.27-0.21-0.53-0.45-0.8-0.67c-10.03,12.34-20.43,24.35-30.88,36.42
					c-3.46,3.99,1.69,6.05,4.65,2.92C906.69,963.45,916.98,951.05,926.79,938.33z"/>
			</g>
		</g>
		<g>
			<g>
				<path class="st1" d="M981.08,856.48c0.47-0.17,0.97-0.45,1.5-0.88c6.97-5.74,12.69-12.56,16.92-20.55
					c1.96-3.7,3.6-7.57,4.8-11.58c1.05-3.49,2.72-7.89,1.03-11.36c-0.53-1.09-2.14-0.3-2.97,0.42c-7.46,2.22-14.22,10.24-18.27,16.3
					c-5.15,7.71-7.88,16.83-7.87,26.09c0,1.09,0.58,1.6,1.37,1.71c0.45,0.06,0.97-0.01,1.48-0.18
					C979.6,856.72,980.29,856.76,981.08,856.48z"/>
			</g>
		</g>
		<g>
			<g>
				<path class="st1" d="M958.98,891.42c2.32-3.76,3.92-8.32,4.76-13.03c0.88-4.92,0.93-10.01,0.09-14.52
					c-0.85-4.54-2.64-8.89-4.75-12.98c-1.66-3.21-3.48-8.2-7.51-8.44c-0.42-0.03-0.95,0.38-1.09,0.77c0,0,0,0.01,0,0.01
					c-1.06,0.23-2.4,1.26-2.61,2.15c-3.81,15.79-2.46,30.77,4.91,45.37c0.28,0.56,0.71,0.9,1.23,1.06c-0.02,0.33,0.02,0.59,0.12,0.8
					C954.84,894.08,958.28,892.56,958.98,891.42z"/>
			</g>
		</g>
		<g>
			<g>
				<path class="st1" d="M957.17,895.88c0.23,0.2,0.55,0.37,0.98,0.5c13.75,3.89,27.69,1.41,39.9-5.68c0.96-0.56,2.35-2.7,0.89-3.55
					c-11.28-6.58-25.33-3.21-36.21,3.22c-0.77,0.16-1.54,0.32-2.32,0.51c-0.03,0.01-0.06,0.01-0.1,0.02
					C958.67,891.31,955.55,894.45,957.17,895.88z"/>
			</g>
		</g>
		<g>
			<g>
				<path class="st1" d="M925.59,936.19c-0.17,0.74,0.04,1.45,0.91,1.98c0.09,0.06,0.19,0.11,0.29,0.16
					c11.56,6.96,26.2,5.95,37.27-1.5c1.33-0.89,3.16-3.53,1.22-4.83c-10.36-6.91-23.26-6.65-33.44-0.28
					c-0.12,0.08-0.25,0.15-0.37,0.23c-0.63,0.13-1.25,0.27-1.86,0.41c-0.34,0.08-0.75,0.27-1.18,0.53c1.69-2.6,2.48-5.88,2.96-9.1
					c0.23-1.52,0.38-3.04,0.53-4.47c0.49-4.87,0.48-9.77-0.14-14.63c-0.65-5.09-1.98-10.09-3.93-14.83
					c-1.56-3.8-3.66-9.37-7.36-11.47c-0.48-0.27-1.08-0.24-1.64-0.03c-0.72,0.04-1.67,0.47-2.01,0.95
					c-10.97,15.5-9.91,43.62,5.11,56.38c0.26,0.22,0.52,0.46,0.8,0.67C923.48,936.93,924.6,936.74,925.59,936.19z"/>
			</g>
		</g>
	</g>
	<g>
		<g>
			<path class="st2" d="M181.18,821.58c-36.09,0-65.45-29.36-65.45-65.45V323.87c0-36.09,29.36-65.44,65.45-65.44h717.65
				c36.09,0,65.44,29.36,65.44,65.44v432.27c0,36.09-29.36,65.45-65.44,65.45H181.18z"/>
			<path class="st3" d="M898.82,261.92c34.21,0,61.94,27.73,61.94,61.94v432.27c0,34.21-27.73,61.94-61.94,61.94H181.18
				c-34.21,0-61.94-27.73-61.94-61.94V323.87c0-34.21,27.73-61.94,61.94-61.94H898.82 M898.82,254.92H181.18
				c-38.02,0-68.94,30.93-68.94,68.94v432.27c0,38.02,30.93,68.94,68.94,68.94h717.65c38.02,0,68.94-30.93,68.94-68.94V323.87
				C967.77,285.85,936.84,254.92,898.82,254.92L898.82,254.92z"/>
		</g>
		<g class="st4">
			<path class="st5" d="M842.27,780.71H237.73c-34.21,0-61.94-27.73-61.94-61.94V361.24c0-34.21,27.73-61.94,61.94-61.94h604.55
				c34.21,0,61.94,27.73,61.94,61.94v357.52C904.22,752.97,876.48,780.71,842.27,780.71z"/>
		</g>
	</g>
</g>
<g id="main_shelf">
</g>
<g id="hover">
	<rect x="0" class="st6" width="1080" height="1080"/>
	<g>
		<path class="st7" d="M319.36,439.53c0.42-0.75,0.84-1.28,1.28-1.59s0.99-0.47,1.66-0.47c1.02,0,1.74,0.27,2.17,0.81
			c0.43,0.54,0.64,1.47,0.64,2.78l0.06,8.12c0,1.44-0.23,2.41-0.7,2.91s-1.32,0.75-2.55,0.75c-0.88,0-1.55-0.21-2.02-0.63
			s-0.87-1.19-1.2-2.32c-0.54-1.99-1.41-3.41-2.59-4.28c-1.19-0.87-2.83-1.3-4.94-1.3c-3.21,0-5.67,1.08-7.38,3.25
			c-1.71,2.17-2.56,5.31-2.56,9.42c0,4.09,0.86,7.23,2.59,9.42c1.73,2.19,4.2,3.29,7.41,3.29c2.19,0,4.6-0.73,7.23-2.19
			c2.63-1.46,4.3-2.19,4.98-2.19c0.81,0,1.49,0.34,2.05,1.03c0.55,0.69,0.83,1.54,0.83,2.56c0,1.83-1.62,3.56-4.84,5.19
			c-3.23,1.62-6.87,2.44-10.91,2.44c-5.46,0-9.88-1.8-13.25-5.41c-3.38-3.6-5.06-8.31-5.06-14.12c0-5.6,1.71-10.26,5.12-13.97
			c3.42-3.71,7.75-5.56,13-5.56c1.48,0,2.94,0.17,4.38,0.5C316.2,438.3,317.73,438.82,319.36,439.53z"/>
		<path class="st7" d="M351.8,468.71h6.72c1.44,0,2.45,0.26,3.03,0.78c0.58,0.52,0.88,1.39,0.88,2.59c0,1.23-0.3,2.11-0.89,2.66
			c-0.59,0.54-1.6,0.81-3.02,0.81h-21.19c-1.4,0-2.39-0.27-2.98-0.81c-0.59-0.54-0.89-1.43-0.89-2.66c0-1.23,0.29-2.1,0.86-2.61
			c0.57-0.51,1.58-0.77,3.02-0.77h6.72v-27.12h-3.44c-1.42,0-2.43-0.28-3.05-0.83c-0.62-0.55-0.92-1.43-0.92-2.64
			c0-1.23,0.3-2.11,0.91-2.66c0.6-0.54,1.62-0.81,3.06-0.81h9.34c0.58,0,1.04,0.12,1.36,0.36c0.32,0.24,0.48,0.57,0.48,0.98V468.71z
			"/>
		<path class="st7" d="M390.73,468.71h6.72c1.44,0,2.46,0.26,3.06,0.78c0.6,0.52,0.91,1.39,0.91,2.59c0,1.23-0.31,2.11-0.92,2.66
			c-0.62,0.54-1.63,0.81-3.05,0.81h-21.12c-1.42,0-2.43-0.27-3.05-0.81c-0.62-0.54-0.92-1.43-0.92-2.66c0-1.21,0.3-2.07,0.89-2.59
			c0.59-0.52,1.62-0.78,3.08-0.78h6.72v-15.19h-3.53c-1.4,0-2.4-0.27-3-0.8c-0.6-0.53-0.91-1.41-0.91-2.64
			c0-1.23,0.29-2.1,0.88-2.62c0.58-0.52,1.59-0.78,3.03-0.78h9.41c0.58,0,1.03,0.12,1.34,0.36c0.31,0.24,0.47,0.57,0.47,0.98V468.71
			z M386.23,432.56c1.52,0,2.53,0.29,3.03,0.88c0.5,0.58,0.75,1.98,0.75,4.19c0,2.12-0.22,3.44-0.67,3.95
			c-0.45,0.51-1.51,0.77-3.17,0.77c-1.62,0-2.67-0.24-3.14-0.72c-0.47-0.48-0.7-1.44-0.7-2.88c0-2.67,0.24-4.36,0.72-5.09
			C383.53,432.92,384.59,432.56,386.23,432.56z"/>
		<path class="st7" d="M434.05,448.37c0.25-0.81,0.64-1.42,1.17-1.83s1.21-0.61,2.05-0.61c1.12,0,1.93,0.34,2.41,1.02
			c0.48,0.68,0.72,1.85,0.72,3.52v5.12c0,1.27-0.26,2.21-0.78,2.81c-0.52,0.6-1.32,0.91-2.41,0.91c-0.77,0-1.42-0.18-1.94-0.53
			c-0.52-0.35-1.07-1.03-1.66-2.03c-0.83-1.42-1.93-2.46-3.28-3.14c-1.35-0.68-3.01-1.02-4.97-1.02c-2.44,0-4.43,0.8-5.98,2.39
			c-1.55,1.59-2.33,3.63-2.33,6.11c0,2.6,0.8,4.7,2.41,6.28c1.6,1.58,3.76,2.38,6.47,2.38c2.46,0,4.9-0.68,7.33-2.05
			c2.43-1.36,3.91-2.05,4.45-2.05c0.77,0,1.41,0.3,1.92,0.89c0.51,0.59,0.77,1.34,0.77,2.23c0,1.96-1.48,3.71-4.45,5.25
			s-6.5,2.31-10.58,2.31c-5.04,0-9.14-1.42-12.3-4.25c-3.16-2.83-4.73-6.48-4.73-10.94c0-4.35,1.56-7.98,4.69-10.88
			c3.12-2.9,7.06-4.34,11.81-4.34c1.6,0,3.17,0.2,4.69,0.59C431.04,446.92,432.55,447.54,434.05,448.37z"/>
		<path class="st7" d="M458.2,458.59l6.59-5.94c-0.65-0.21-1.09-0.49-1.33-0.84c-0.24-0.35-0.36-0.91-0.36-1.66
			c0-1.27,0.28-2.17,0.84-2.69c0.56-0.52,1.56-0.78,3-0.78h6.91c1.42,0,2.42,0.26,3.02,0.78c0.59,0.52,0.89,1.4,0.89,2.62
			c0,0.92-0.17,1.58-0.52,2c-0.34,0.42-1.05,0.73-2.11,0.94c-0.98,0.19-1.85,0.5-2.61,0.94c-0.76,0.44-1.64,1.17-2.64,2.19
			l-2.22,2.31l8.25,10.25h0.78c1.21,0,2.11,0.28,2.72,0.84c0.6,0.56,0.91,1.41,0.91,2.53c0,1.23-0.3,2.11-0.91,2.66
			c-0.6,0.54-1.62,0.81-3.06,0.81h-7.66c-1.35,0-2.33-0.23-2.94-0.69c-0.6-0.46-0.91-1.19-0.91-2.19c0-0.75,0.18-1.35,0.53-1.8
			c0.35-0.45,0.94-0.83,1.75-1.14l-5.09-6.22l-3.84,3.53v6.44c0,0.79-0.14,1.33-0.41,1.62c-0.27,0.29-0.76,0.44-1.47,0.44h-5.62
			c-1.38,0-2.36-0.27-2.95-0.81c-0.59-0.54-0.89-1.43-0.89-2.66c0-1.1,0.28-1.94,0.84-2.52c0.56-0.57,1.4-0.86,2.5-0.86h0.5v-27.12
			h-0.5c-1.1,0-1.95-0.3-2.53-0.91c-0.58-0.6-0.88-1.46-0.88-2.56c0-1.21,0.3-2.09,0.91-2.64c0.6-0.55,1.6-0.83,3-0.83h5.62
			c0.71,0,1.2,0.15,1.47,0.44c0.27,0.29,0.41,0.83,0.41,1.62V458.59z"/>
		<path class="st7" d="M537.83,448.43h9.53c1.44,0,2.46,0.26,3.06,0.78c0.6,0.52,0.91,1.39,0.91,2.59c0,1.23-0.31,2.11-0.92,2.66
			c-0.62,0.54-1.63,0.81-3.05,0.81h-9.53v8c0,2.25,0.34,3.79,1.03,4.62c0.69,0.83,1.9,1.25,3.62,1.25c1.62,0,3.54-0.47,5.75-1.41
			c2.21-0.94,3.69-1.41,4.44-1.41c0.85,0,1.59,0.34,2.2,1.02c0.61,0.68,0.92,1.5,0.92,2.45c0,1.6-1.45,3.07-4.36,4.39
			c-2.91,1.32-6.2,1.98-9.89,1.98c-2.15,0-4.03-0.29-5.66-0.88s-2.91-1.42-3.84-2.5c-0.69-0.83-1.18-1.83-1.47-3
			c-0.29-1.17-0.44-3.11-0.44-5.84v-0.69v-8h-2.94c-1.42,0-2.42-0.27-3.02-0.81c-0.59-0.54-0.89-1.43-0.89-2.66
			c0-1.23,0.29-2.1,0.88-2.61c0.58-0.51,1.59-0.77,3.03-0.77h2.94v-7.31c0-1.44,0.3-2.45,0.89-3.03c0.59-0.58,1.58-0.88,2.95-0.88
			s2.36,0.29,2.95,0.88c0.59,0.58,0.89,1.59,0.89,3.03V448.43z"/>
		<path class="st7" d="M578.39,446c5.06,0,9.17,1.42,12.31,4.25c3.15,2.83,4.72,6.47,4.72,10.91c0,4.46-1.57,8.1-4.72,10.94
			c-3.15,2.83-7.25,4.25-12.31,4.25c-5.04,0-9.14-1.42-12.28-4.25c-3.15-2.83-4.72-6.48-4.72-10.94c0-4.44,1.58-8.07,4.73-10.91
			C569.28,447.41,573.37,446,578.39,446z M578.39,452.59c-2.44,0-4.44,0.8-6.02,2.39c-1.57,1.59-2.36,3.63-2.36,6.11
			c0,2.5,0.79,4.57,2.36,6.2c1.57,1.64,3.58,2.45,6.02,2.45s4.45-0.82,6.03-2.45c1.58-1.64,2.38-3.7,2.38-6.2
			c0-2.48-0.79-4.52-2.36-6.11C582.86,453.39,580.85,452.59,578.39,452.59z"/>
		<path class="st7" d="M668.52,468.71h0.53c1.12,0,1.97,0.29,2.53,0.86c0.56,0.57,0.84,1.41,0.84,2.52c0,1.23-0.3,2.11-0.89,2.66
			c-0.59,0.54-1.6,0.81-3.02,0.81h-4.78c-0.6,0-1.07-0.12-1.39-0.36c-0.32-0.24-0.48-0.57-0.48-0.98v-2.19
			c-1.02,1.4-2.33,2.46-3.94,3.2c-1.6,0.74-3.41,1.11-5.41,1.11c-4.08,0-7.5-1.39-10.25-4.17s-4.12-6.25-4.12-10.42
			c0-4.33,1.39-7.93,4.17-10.78c2.78-2.85,6.32-4.28,10.61-4.28c1.48,0,2.92,0.25,4.33,0.73c1.41,0.49,2.69,1.18,3.86,2.08v-7.91
			h-4.16c-1.44,0-2.46-0.28-3.06-0.83c-0.6-0.55-0.91-1.43-0.91-2.64c0-1.23,0.3-2.11,0.91-2.66c0.6-0.54,1.62-0.81,3.06-0.81h9.72
			c0.71,0,1.19,0.15,1.45,0.44c0.26,0.29,0.39,0.83,0.39,1.62V468.71z M653.86,453.34c-2.04,0-3.73,0.77-5.08,2.3
			s-2.02,3.47-2.02,5.83c0,2.42,0.67,4.39,2,5.92c1.33,1.53,3.03,2.3,5.09,2.3s3.77-0.77,5.11-2.31c1.34-1.54,2.02-3.51,2.02-5.91
			c0-2.33-0.68-4.27-2.03-5.81C657.6,454.11,655.9,453.34,653.86,453.34z"/>
		<path class="st7" d="M692.2,458.59v10.12h7.38c1.42,0,2.42,0.26,3.02,0.78c0.59,0.52,0.89,1.39,0.89,2.59
			c0,1.23-0.3,2.11-0.89,2.66c-0.59,0.54-1.6,0.81-3.02,0.81h-17.47c-1.44,0-2.46-0.27-3.06-0.81c-0.6-0.54-0.91-1.43-0.91-2.66
			c0-1.21,0.3-2.07,0.89-2.59c0.6-0.52,1.63-0.78,3.09-0.78h2.39v-15.19h-1.35c-1.43,0-2.44-0.27-3.03-0.8s-0.9-1.41-0.9-2.64
			c0-1.23,0.29-2.1,0.86-2.62c0.57-0.52,1.59-0.78,3.05-0.78h6.66c0.56,0,1,0.12,1.31,0.36c0.31,0.24,0.47,0.57,0.47,0.98v4.62
			c2.27-2.44,4.39-4.18,6.36-5.22c1.97-1.04,4.09-1.56,6.36-1.56c2.06,0,3.7,0.46,4.91,1.39c1.21,0.93,1.81,2.17,1.81,3.73
			c0,1.21-0.42,2.2-1.25,2.98c-0.83,0.78-1.91,1.17-3.22,1.17c-0.94,0-2.05-0.34-3.33-1.03s-2.17-1.03-2.67-1.03
			c-1,0-2.18,0.45-3.53,1.34C695.66,455.33,694.06,456.71,692.2,458.59z"/>
		<path class="st7" d="M732.02,446c5.06,0,9.17,1.42,12.31,4.25c3.15,2.83,4.72,6.47,4.72,10.91c0,4.46-1.57,8.1-4.72,10.94
			c-3.15,2.83-7.25,4.25-12.31,4.25c-5.04,0-9.14-1.42-12.28-4.25c-3.15-2.83-4.72-6.48-4.72-10.94c0-4.44,1.58-8.07,4.73-10.91
			C722.91,447.41,726.99,446,732.02,446z M732.02,452.59c-2.44,0-4.44,0.8-6.02,2.39c-1.57,1.59-2.36,3.63-2.36,6.11
			c0,2.5,0.79,4.57,2.36,6.2c1.57,1.64,3.58,2.45,6.02,2.45s4.45-0.82,6.03-2.45c1.58-1.64,2.38-3.7,2.38-6.2
			c0-2.48-0.79-4.52-2.36-6.11C736.49,453.39,734.47,452.59,732.02,452.59z"/>
		<path class="st7" d="M764.48,472.62v8.5h3.97c1.42,0,2.43,0.27,3.05,0.81c0.61,0.54,0.92,1.43,0.92,2.66
			c0,1.21-0.3,2.07-0.91,2.59c-0.6,0.52-1.62,0.78-3.06,0.78H755.2c-1.44,0-2.45-0.26-3.03-0.77c-0.58-0.51-0.88-1.38-0.88-2.61
			c0-1.23,0.3-2.11,0.89-2.66c0.59-0.54,1.6-0.81,3.02-0.81h1.84v-27.59h-0.5c-1.1,0-1.95-0.29-2.53-0.88
			c-0.58-0.58-0.88-1.44-0.88-2.56c0-1.23,0.29-2.1,0.88-2.62c0.58-0.52,1.59-0.78,3.03-0.78h4.81c0.6,0,1.05,0.11,1.34,0.33
			c0.29,0.22,0.44,0.54,0.44,0.95v2.25c1.06-1.42,2.35-2.48,3.86-3.2c1.51-0.72,3.21-1.08,5.11-1.08c4.27,0,7.81,1.36,10.62,4.09
			c2.81,2.73,4.22,6.17,4.22,10.31c0,4.33-1.37,7.92-4.09,10.77c-2.73,2.84-6.17,4.27-10.31,4.27c-1.69,0-3.27-0.23-4.73-0.7
			S765.57,473.52,764.48,472.62z M771.7,452.59c-2.06,0-3.76,0.76-5.09,2.28c-1.33,1.52-2,3.47-2,5.84s0.67,4.32,2,5.84
			c1.33,1.52,3.03,2.28,5.09,2.28s3.77-0.77,5.11-2.3s2.02-3.47,2.02-5.83c0-2.38-0.67-4.32-2-5.84
			C775.49,453.35,773.79,452.59,771.7,452.59z"/>
		<path class="st7" d="M186.08,551.92c-0.54,0.42-1.1,0.73-1.67,0.95c-0.57,0.22-1.16,0.33-1.77,0.33c-0.9,0-1.53-0.24-1.89-0.72
			c-0.37-0.48-0.55-1.38-0.55-2.69v-4.16c0-1.38,0.23-2.35,0.69-2.92c0.46-0.57,1.25-0.86,2.38-0.86c1.23,0,2.23,0.59,3,1.78
			c0.46,0.65,0.84,1.12,1.16,1.44c1.02,0.92,2.21,1.6,3.56,2.06c1.35,0.46,2.9,0.69,4.62,0.69c1.5,0,2.7-0.29,3.59-0.88
			c0.9-0.58,1.34-1.34,1.34-2.28c0-1.69-2.41-2.85-7.22-3.5c-1.06-0.12-1.9-0.24-2.5-0.34c-3.62-0.5-6.32-1.48-8.09-2.95
			c-1.77-1.47-2.66-3.44-2.66-5.92c0-2.94,1.06-5.21,3.19-6.81c2.12-1.6,5.16-2.41,9.09-2.41c1.35,0,2.74,0.11,4.17,0.33
			c1.43,0.22,2.89,0.56,4.39,1.02c0.44-0.52,0.9-0.91,1.39-1.16c0.49-0.25,1.04-0.38,1.64-0.38c0.85,0,1.5,0.27,1.95,0.8
			c0.45,0.53,0.67,1.33,0.67,2.39v3.84c0,0.9-0.23,1.59-0.69,2.08c-0.46,0.49-1.1,0.73-1.94,0.73c-0.85,0-2.32-0.74-4.39-2.23
			c-2.07-1.49-4.15-2.23-6.23-2.23c-1.62,0-2.89,0.27-3.78,0.8c-0.9,0.53-1.34,1.27-1.34,2.2c0,1.46,1.88,2.44,5.62,2.94
			c1.08,0.12,1.94,0.23,2.56,0.31c4.71,0.69,7.94,1.71,9.7,3.08c1.76,1.36,2.64,3.39,2.64,6.08c0,3.15-1.16,5.58-3.48,7.3
			c-2.32,1.72-5.62,2.58-9.89,2.58c-1.67,0-3.27-0.11-4.81-0.33C189,552.65,187.52,552.34,186.08,551.92z"/>
		<path class="st7" d="M226.8,549.42v8.5h3.97c1.42,0,2.43,0.27,3.05,0.81c0.61,0.54,0.92,1.43,0.92,2.66c0,1.21-0.3,2.07-0.91,2.59
			c-0.6,0.52-1.62,0.78-3.06,0.78h-13.25c-1.44,0-2.45-0.26-3.03-0.77c-0.58-0.51-0.88-1.38-0.88-2.61c0-1.23,0.3-2.12,0.89-2.66
			c0.59-0.54,1.6-0.81,3.02-0.81h1.84v-27.59h-0.5c-1.1,0-1.95-0.29-2.53-0.88c-0.58-0.58-0.88-1.44-0.88-2.56
			c0-1.23,0.29-2.1,0.88-2.62c0.58-0.52,1.59-0.78,3.03-0.78h4.81c0.6,0,1.05,0.11,1.34,0.33c0.29,0.22,0.44,0.54,0.44,0.95v2.25
			c1.06-1.42,2.35-2.48,3.86-3.2c1.51-0.72,3.21-1.08,5.11-1.08c4.27,0,7.81,1.36,10.62,4.09c2.81,2.73,4.22,6.17,4.22,10.31
			c0,4.33-1.37,7.92-4.09,10.77c-2.73,2.84-6.17,4.27-10.31,4.27c-1.69,0-3.27-0.23-4.73-0.7S227.88,550.32,226.8,549.42z
			 M234.02,529.39c-2.06,0-3.76,0.76-5.09,2.28c-1.33,1.52-2,3.47-2,5.84s0.67,4.32,2,5.84c1.33,1.52,3.03,2.28,5.09,2.28
			s3.77-0.77,5.11-2.3s2.02-3.47,2.02-5.83c0-2.38-0.67-4.32-2-5.84C237.81,530.15,236.1,529.39,234.02,529.39z"/>
		<path class="st7" d="M271.14,522.79c5.06,0,9.17,1.42,12.31,4.25c3.15,2.83,4.72,6.47,4.72,10.91c0,4.46-1.57,8.1-4.72,10.94
			c-3.15,2.83-7.25,4.25-12.31,4.25c-5.04,0-9.14-1.42-12.28-4.25c-3.15-2.83-4.72-6.48-4.72-10.94c0-4.44,1.58-8.07,4.73-10.91
			C262.03,524.21,266.12,522.79,271.14,522.79z M271.14,529.39c-2.44,0-4.44,0.8-6.02,2.39c-1.57,1.59-2.36,3.63-2.36,6.11
			c0,2.5,0.79,4.57,2.36,6.2c1.57,1.64,3.58,2.45,6.02,2.45s4.45-0.82,6.03-2.45c1.58-1.63,2.38-3.7,2.38-6.2
			c0-2.48-0.79-4.52-2.36-6.11C275.61,530.19,273.6,529.39,271.14,529.39z"/>
		<path class="st7" d="M309.55,522.79c5.06,0,9.17,1.42,12.31,4.25c3.15,2.83,4.72,6.47,4.72,10.91c0,4.46-1.57,8.1-4.72,10.94
			c-3.15,2.83-7.25,4.25-12.31,4.25c-5.04,0-9.14-1.42-12.28-4.25c-3.15-2.83-4.72-6.48-4.72-10.94c0-4.44,1.58-8.07,4.73-10.91
			C300.44,524.21,304.53,522.79,309.55,522.79z M309.55,529.39c-2.44,0-4.44,0.8-6.02,2.39c-1.57,1.59-2.36,3.63-2.36,6.11
			c0,2.5,0.79,4.57,2.36,6.2c1.57,1.64,3.58,2.45,6.02,2.45s4.45-0.82,6.03-2.45c1.58-1.63,2.38-3.7,2.38-6.2
			c0-2.48-0.79-4.52-2.36-6.11C314.02,530.19,312,529.39,309.55,529.39z"/>
		<path class="st7" d="M361.08,545.45h0.41c1.17,0,2.04,0.29,2.62,0.86c0.58,0.57,0.88,1.43,0.88,2.58c0,1.23-0.3,2.12-0.89,2.66
			c-0.59,0.54-1.6,0.81-3.02,0.81h-7.69c-1.4,0-2.4-0.27-3.02-0.81c-0.62-0.54-0.92-1.43-0.92-2.66c0-1.15,0.3-2,0.89-2.58
			c0.59-0.57,1.48-0.86,2.67-0.86h0.38v-9.03c0-2.5-0.35-4.28-1.05-5.33c-0.7-1.05-1.86-1.58-3.48-1.58c-1.73,0-3.14,0.63-4.23,1.89
			c-1.09,1.26-1.64,2.93-1.64,5.02v9.03h0.38c1.19,0,2.07,0.29,2.66,0.86c0.58,0.57,0.88,1.43,0.88,2.58c0,1.23-0.3,2.12-0.91,2.66
			c-0.6,0.54-1.6,0.81-3,0.81h-7.75c-1.4,0-2.4-0.27-3-0.81c-0.6-0.54-0.91-1.43-0.91-2.66c0-1.15,0.29-2,0.88-2.58
			c0.58-0.57,1.47-0.86,2.66-0.86h0.38v-15.12h-0.53c-1.12,0-1.98-0.29-2.56-0.86c-0.58-0.57-0.88-1.41-0.88-2.52
			c0-1.23,0.3-2.11,0.91-2.66c0.6-0.54,1.62-0.81,3.06-0.81h5.31c0.58,0,1.03,0.11,1.33,0.34c0.3,0.23,0.45,0.56,0.45,1v2.44
			c0.96-1.5,2.18-2.63,3.67-3.39c1.49-0.76,3.21-1.14,5.17-1.14c3.33,0,5.82,1.01,7.45,3.03c1.63,2.02,2.45,5.1,2.45,9.25V545.45z"
			/>
		<path class="st7" d="M388.36,524.39h6.72c1.44,0,2.46,0.27,3.06,0.8c0.6,0.53,0.91,1.4,0.91,2.61c0,1.21-0.31,2.08-0.92,2.62
			c-0.62,0.54-1.63,0.81-3.05,0.81h-6.72v14.28h6.22c1.44,0,2.46,0.26,3.06,0.78c0.6,0.52,0.91,1.39,0.91,2.59
			c0,1.23-0.31,2.12-0.92,2.66c-0.62,0.54-1.63,0.81-3.05,0.81h-17.22c-1.44,0-2.46-0.27-3.06-0.81c-0.6-0.54-0.91-1.43-0.91-2.66
			c0-1.21,0.3-2.07,0.89-2.59c0.59-0.52,1.62-0.78,3.08-0.78h3.31v-14.28h-3.31c-1.44,0-2.46-0.27-3.06-0.81
			c-0.6-0.54-0.91-1.42-0.91-2.62c0-1.23,0.3-2.1,0.89-2.62c0.59-0.52,1.62-0.78,3.08-0.78h3.31v-1.78c0-4.08,1.05-6.98,3.16-8.7
			c2.1-1.72,5.69-2.58,10.75-2.58c2.62,0,4.56,0.31,5.8,0.94c1.24,0.62,1.86,1.59,1.86,2.91c0,0.88-0.28,1.57-0.83,2.09
			c-0.55,0.52-1.3,0.78-2.23,0.78c-0.69,0-1.66-0.09-2.92-0.28c-1.26-0.19-2.14-0.28-2.64-0.28c-1.94,0-3.3,0.43-4.08,1.3
			c-0.78,0.86-1.17,2.39-1.17,4.58V524.39z"/>
		<path class="st7" d="M429.7,530.33h-0.5c-1.12,0-1.97-0.29-2.55-0.88c-0.57-0.58-0.86-1.44-0.86-2.56c0-1.23,0.29-2.1,0.88-2.62
			c0.58-0.52,1.59-0.78,3.03-0.78h5.91c0.56,0,1,0.12,1.31,0.36c0.31,0.24,0.47,0.57,0.47,0.98v20.69h0.5
			c1.12,0,1.98,0.29,2.58,0.88c0.59,0.58,0.89,1.42,0.89,2.5c0,1.25-0.3,2.14-0.91,2.67c-0.6,0.53-1.62,0.8-3.06,0.8h-5.25
			c-0.58,0-1.04-0.12-1.36-0.38c-0.32-0.25-0.48-0.59-0.48-1.03v-2.38c-1,1.5-2.22,2.62-3.67,3.38c-1.45,0.75-3.15,1.12-5.11,1.12
			c-3.35,0-5.84-1.01-7.47-3.03c-1.62-2.02-2.44-5.11-2.44-9.28v-10.44h-0.53c-1.12,0-1.98-0.29-2.56-0.88
			c-0.58-0.58-0.88-1.44-0.88-2.56c0-1.23,0.3-2.1,0.89-2.62c0.59-0.52,1.62-0.78,3.08-0.78h5.88c0.56,0,0.99,0.12,1.28,0.36
			c0.29,0.24,0.44,0.57,0.44,0.98v14.53c0,2.56,0.35,4.37,1.06,5.41c0.71,1.04,1.88,1.56,3.5,1.56c1.73,0,3.15-0.64,4.27-1.92
			c1.11-1.28,1.67-2.96,1.67-5.05V530.33z"/>
		<path class="st7" d="M467.02,545.51h6.72c1.44,0,2.45,0.26,3.03,0.78c0.58,0.52,0.88,1.39,0.88,2.59c0,1.23-0.3,2.12-0.89,2.66
			c-0.59,0.54-1.6,0.81-3.02,0.81h-21.19c-1.4,0-2.39-0.27-2.98-0.81c-0.59-0.54-0.89-1.43-0.89-2.66c0-1.23,0.29-2.1,0.86-2.61
			c0.57-0.51,1.58-0.77,3.02-0.77h6.72v-27.12h-3.44c-1.42,0-2.43-0.28-3.05-0.83c-0.62-0.55-0.92-1.43-0.92-2.64
			c0-1.23,0.3-2.11,0.91-2.66c0.6-0.54,1.62-0.81,3.06-0.81h9.34c0.58,0,1.04,0.12,1.36,0.36c0.32,0.24,0.48,0.57,0.48,0.98V545.51z
			"/>
		<path class="st7" d="M493.33,551.92c-0.54,0.42-1.1,0.73-1.67,0.95c-0.57,0.22-1.16,0.33-1.77,0.33c-0.9,0-1.53-0.24-1.89-0.72
			c-0.37-0.48-0.55-1.38-0.55-2.69v-4.16c0-1.38,0.23-2.35,0.69-2.92c0.46-0.57,1.25-0.86,2.38-0.86c1.23,0,2.23,0.59,3,1.78
			c0.46,0.65,0.84,1.12,1.16,1.44c1.02,0.92,2.21,1.6,3.56,2.06c1.35,0.46,2.9,0.69,4.62,0.69c1.5,0,2.7-0.29,3.59-0.88
			c0.9-0.58,1.34-1.34,1.34-2.28c0-1.69-2.41-2.85-7.22-3.5c-1.06-0.12-1.9-0.24-2.5-0.34c-3.62-0.5-6.32-1.48-8.09-2.95
			c-1.77-1.47-2.66-3.44-2.66-5.92c0-2.94,1.06-5.21,3.19-6.81c2.12-1.6,5.16-2.41,9.09-2.41c1.35,0,2.74,0.11,4.17,0.33
			c1.43,0.22,2.89,0.56,4.39,1.02c0.44-0.52,0.9-0.91,1.39-1.16c0.49-0.25,1.04-0.38,1.64-0.38c0.85,0,1.5,0.27,1.95,0.8
			c0.45,0.53,0.67,1.33,0.67,2.39v3.84c0,0.9-0.23,1.59-0.69,2.08c-0.46,0.49-1.1,0.73-1.94,0.73c-0.85,0-2.32-0.74-4.39-2.23
			c-2.07-1.49-4.15-2.23-6.23-2.23c-1.62,0-2.89,0.27-3.78,0.8c-0.9,0.53-1.34,1.27-1.34,2.2c0,1.46,1.88,2.44,5.62,2.94
			c1.08,0.12,1.94,0.23,2.56,0.31c4.71,0.69,7.94,1.71,9.7,3.08c1.76,1.36,2.64,3.39,2.64,6.08c0,3.15-1.16,5.58-3.48,7.3
			c-2.32,1.72-5.62,2.58-9.89,2.58c-1.67,0-3.27-0.11-4.81-0.33C496.25,552.65,494.77,552.34,493.33,551.92z"/>
		<path class="st7" d="M578.39,522.79c5.06,0,9.17,1.42,12.31,4.25c3.15,2.83,4.72,6.47,4.72,10.91c0,4.46-1.57,8.1-4.72,10.94
			c-3.15,2.83-7.25,4.25-12.31,4.25c-5.04,0-9.14-1.42-12.28-4.25c-3.15-2.83-4.72-6.48-4.72-10.94c0-4.44,1.58-8.07,4.73-10.91
			C569.28,524.21,573.37,522.79,578.39,522.79z M578.39,529.39c-2.44,0-4.44,0.8-6.02,2.39c-1.57,1.59-2.36,3.63-2.36,6.11
			c0,2.5,0.79,4.57,2.36,6.2c1.57,1.64,3.58,2.45,6.02,2.45s4.45-0.82,6.03-2.45c1.58-1.63,2.38-3.7,2.38-6.2
			c0-2.48-0.79-4.52-2.36-6.11C582.86,530.19,580.85,529.39,578.39,529.39z"/>
		<path class="st7" d="M618.8,524.39h6.72c1.44,0,2.46,0.27,3.06,0.8c0.6,0.53,0.91,1.4,0.91,2.61c0,1.21-0.31,2.08-0.92,2.62
			c-0.62,0.54-1.63,0.81-3.05,0.81h-6.72v14.28h6.22c1.44,0,2.46,0.26,3.06,0.78c0.6,0.52,0.91,1.39,0.91,2.59
			c0,1.23-0.31,2.12-0.92,2.66c-0.62,0.54-1.63,0.81-3.05,0.81H607.8c-1.44,0-2.46-0.27-3.06-0.81c-0.6-0.54-0.91-1.43-0.91-2.66
			c0-1.21,0.3-2.07,0.89-2.59c0.59-0.52,1.62-0.78,3.08-0.78h3.31v-14.28h-3.31c-1.44,0-2.46-0.27-3.06-0.81
			c-0.6-0.54-0.91-1.42-0.91-2.62c0-1.23,0.3-2.1,0.89-2.62c0.59-0.52,1.62-0.78,3.08-0.78h3.31v-1.78c0-4.08,1.05-6.98,3.16-8.7
			c2.1-1.72,5.69-2.58,10.75-2.58c2.62,0,4.56,0.31,5.8,0.94c1.24,0.62,1.86,1.59,1.86,2.91c0,0.88-0.28,1.57-0.83,2.09
			c-0.55,0.52-1.3,0.78-2.23,0.78c-0.69,0-1.66-0.09-2.92-0.28c-1.26-0.19-2.14-0.28-2.64-0.28c-1.94,0-3.3,0.43-4.08,1.3
			c-0.78,0.86-1.17,2.39-1.17,4.58V524.39z"/>
		<path class="st7" d="M687.98,526.29c1-0.88,2.19-1.56,3.56-2.06s2.81-0.75,4.31-0.75c4.33,0,7.88,1.43,10.64,4.3
			c2.76,2.86,4.14,6.54,4.14,11.02c0,4.08-1.41,7.5-4.22,10.23c-2.81,2.74-6.35,4.11-10.62,4.11c-2.02,0-3.78-0.35-5.27-1.05
			c-1.49-0.7-2.7-1.74-3.64-3.14v2.06c0,0.42-0.16,0.75-0.48,0.98c-0.32,0.24-0.78,0.36-1.36,0.36h-4.81c-1.42,0-2.42-0.27-3.02-0.8
			s-0.89-1.42-0.89-2.67c0-1.1,0.29-1.94,0.86-2.52c0.57-0.57,1.42-0.86,2.55-0.86h0.5v-27.12h-0.5c-1.12,0-1.98-0.3-2.58-0.89
			s-0.89-1.45-0.89-2.58c0-1.23,0.3-2.11,0.91-2.66c0.6-0.54,1.62-0.81,3.06-0.81h5.84c0.67,0,1.15,0.16,1.45,0.48
			c0.3,0.32,0.45,0.85,0.45,1.58V526.29z M694.89,530.14c-2.04,0-3.73,0.77-5.08,2.3s-2.02,3.47-2.02,5.83c0,2.42,0.67,4.39,2,5.92
			c1.33,1.53,3.03,2.3,5.09,2.3s3.77-0.77,5.11-2.31c1.34-1.54,2.02-3.51,2.02-5.91c0-2.33-0.68-4.27-2.03-5.81
			C698.63,530.91,696.93,530.14,694.89,530.14z"/>
		<path class="st7" d="M744.77,545.51h0.5c1.12,0,1.98,0.3,2.58,0.89s0.89,1.44,0.89,2.55c0,1.21-0.31,2.08-0.92,2.61
			c-0.62,0.53-1.63,0.8-3.05,0.8h-2.94c-1.04,0-1.82-0.2-2.33-0.59c-0.51-0.4-0.93-1.11-1.27-2.16c-1.73,1.15-3.56,2.02-5.5,2.62
			s-3.9,0.91-5.88,0.91c-3.35,0-5.99-0.83-7.91-2.5c-1.92-1.67-2.88-3.95-2.88-6.84c0-3.12,1.24-5.55,3.72-7.28
			c2.48-1.73,5.96-2.59,10.44-2.59c1,0,2.06,0.05,3.19,0.16c1.12,0.1,2.38,0.27,3.78,0.5v-0.59c0-1.88-0.45-3.3-1.36-4.28
			c-0.91-0.98-2.25-1.47-4.02-1.47c-1.38,0-3.13,0.51-5.27,1.53c-2.14,1.02-3.7,1.53-4.7,1.53c-0.98,0-1.77-0.29-2.38-0.86
			c-0.6-0.57-0.91-1.33-0.91-2.27c0-1.69,1.23-3.03,3.7-4.02c2.47-0.99,5.83-1.48,10.08-1.48c4.44,0,7.61,0.85,9.53,2.56
			c1.92,1.71,2.88,4.6,2.88,8.69V545.51z M737.2,539.48c-1.04-0.23-2-0.4-2.88-0.52c-0.88-0.11-1.69-0.17-2.44-0.17
			c-2.29,0-4.09,0.39-5.39,1.16c-1.3,0.77-1.95,1.83-1.95,3.19c0,1.21,0.42,2.13,1.25,2.77c0.83,0.64,2.03,0.95,3.59,0.95
			c1.44,0,2.79-0.21,4.06-0.62c1.27-0.42,2.52-1.06,3.75-1.94V539.48z"/>
		<path class="st7" d="M768.27,525.23h9.53c1.44,0,2.46,0.26,3.06,0.78c0.6,0.52,0.91,1.39,0.91,2.59c0,1.23-0.31,2.11-0.92,2.66
			c-0.62,0.54-1.63,0.81-3.05,0.81h-9.53v8c0,2.25,0.34,3.79,1.03,4.62c0.69,0.83,1.9,1.25,3.62,1.25c1.62,0,3.54-0.47,5.75-1.41
			c2.21-0.94,3.69-1.41,4.44-1.41c0.85,0,1.59,0.34,2.2,1.02c0.61,0.68,0.92,1.5,0.92,2.45c0,1.6-1.45,3.07-4.36,4.39
			c-2.91,1.32-6.2,1.98-9.89,1.98c-2.15,0-4.03-0.29-5.66-0.88s-2.91-1.42-3.84-2.5c-0.69-0.83-1.18-1.83-1.47-3
			c-0.29-1.17-0.44-3.11-0.44-5.84v-0.69v-8h-2.94c-1.42,0-2.42-0.27-3.02-0.81c-0.59-0.54-0.89-1.43-0.89-2.66
			c0-1.23,0.29-2.1,0.88-2.61c0.58-0.51,1.59-0.77,3.03-0.77h2.94v-7.31c0-1.44,0.3-2.45,0.89-3.03c0.59-0.58,1.58-0.88,2.95-0.88
			s2.36,0.29,2.95,0.88c0.59,0.58,0.89,1.59,0.89,3.03V525.23z"/>
		<path class="st7" d="M806.67,525.23h9.53c1.44,0,2.46,0.26,3.06,0.78c0.6,0.52,0.91,1.39,0.91,2.59c0,1.23-0.31,2.11-0.92,2.66
			c-0.62,0.54-1.63,0.81-3.05,0.81h-9.53v8c0,2.25,0.34,3.79,1.03,4.62c0.69,0.83,1.89,1.25,3.62,1.25c1.62,0,3.54-0.47,5.75-1.41
			c2.21-0.94,3.69-1.41,4.44-1.41c0.85,0,1.59,0.34,2.2,1.02c0.61,0.68,0.92,1.5,0.92,2.45c0,1.6-1.45,3.07-4.36,4.39
			c-2.91,1.32-6.2,1.98-9.89,1.98c-2.15,0-4.03-0.29-5.66-0.88s-2.91-1.42-3.84-2.5c-0.69-0.83-1.18-1.83-1.47-3
			c-0.29-1.17-0.44-3.11-0.44-5.84v-0.69v-8h-2.94c-1.42,0-2.42-0.27-3.02-0.81c-0.59-0.54-0.89-1.43-0.89-2.66
			c0-1.23,0.29-2.1,0.88-2.61c0.58-0.51,1.59-0.77,3.03-0.77h2.94v-7.31c0-1.44,0.3-2.45,0.89-3.03c0.59-0.58,1.58-0.88,2.95-0.88
			s2.36,0.29,2.95,0.88c0.59,0.58,0.89,1.59,0.89,3.03V525.23z"/>
		<path class="st7" d="M838.73,539.76c0.54,2.31,1.59,4.04,3.14,5.19c1.55,1.15,3.62,1.72,6.2,1.72c2.58,0,5.13-0.63,7.66-1.89
			c2.52-1.26,4.04-1.89,4.56-1.89c0.77,0,1.4,0.29,1.89,0.86c0.49,0.57,0.73,1.31,0.73,2.2c0,1.96-1.45,3.65-4.34,5.06
			c-2.9,1.42-6.48,2.12-10.75,2.12c-5.04,0-9.14-1.42-12.3-4.25c-3.16-2.83-4.73-6.48-4.73-10.94c0-4.44,1.58-8.07,4.73-10.91
			c3.16-2.83,7.25-4.25,12.3-4.25c4.5,0,8.23,1.33,11.19,3.98c2.96,2.66,4.44,5.91,4.44,9.77c0,1.23-0.3,2.07-0.89,2.53
			c-0.59,0.46-1.82,0.69-3.67,0.69H838.73z M855.58,534.89c-0.35-1.94-1.27-3.44-2.73-4.5s-3.38-1.59-5.73-1.59
			c-2.27,0-4.1,0.51-5.48,1.52c-1.39,1.01-2.35,2.54-2.89,4.58H855.58z"/>
		<path class="st7" d="M884.23,535.39v10.12h7.38c1.42,0,2.42,0.26,3.02,0.78c0.59,0.52,0.89,1.39,0.89,2.59
			c0,1.23-0.3,2.12-0.89,2.66c-0.59,0.54-1.6,0.81-3.02,0.81h-17.47c-1.44,0-2.46-0.27-3.06-0.81c-0.6-0.54-0.91-1.43-0.91-2.66
			c0-1.21,0.3-2.07,0.89-2.59c0.6-0.52,1.63-0.78,3.09-0.78h2.39v-15.19h-1.35c-1.43,0-2.44-0.27-3.03-0.8
			c-0.6-0.53-0.9-1.41-0.9-2.64c0-1.23,0.29-2.1,0.86-2.62c0.57-0.52,1.59-0.78,3.05-0.78h6.66c0.56,0,1,0.12,1.31,0.36
			c0.31,0.24,0.47,0.57,0.47,0.98v4.62c2.27-2.44,4.39-4.18,6.36-5.22c1.97-1.04,4.09-1.56,6.36-1.56c2.06,0,3.7,0.46,4.91,1.39
			c1.21,0.93,1.81,2.17,1.81,3.73c0,1.21-0.42,2.2-1.25,2.98c-0.83,0.78-1.91,1.17-3.22,1.17c-0.94,0-2.05-0.34-3.33-1.03
			s-2.17-1.03-2.67-1.03c-1,0-2.18,0.45-3.53,1.34C887.69,532.13,886.09,533.51,884.23,535.39z"/>
		<path class="st7" d="M175.12,599.59c5.06,0,9.17,1.42,12.31,4.25c3.15,2.83,4.72,6.47,4.72,10.91c0,4.46-1.57,8.1-4.72,10.94
			c-3.15,2.83-7.25,4.25-12.31,4.25c-5.04,0-9.14-1.42-12.28-4.25c-3.15-2.83-4.72-6.48-4.72-10.94c0-4.44,1.58-8.07,4.73-10.91
			C166.02,601.01,170.1,599.59,175.12,599.59z M175.12,606.19c-2.44,0-4.44,0.8-6.02,2.39c-1.57,1.59-2.36,3.63-2.36,6.11
			c0,2.5,0.79,4.57,2.36,6.2c1.57,1.64,3.58,2.45,6.02,2.45s4.45-0.82,6.03-2.45c1.58-1.63,2.38-3.7,2.38-6.2
			c0-2.48-0.79-4.52-2.36-6.11C179.6,606.99,177.58,606.19,175.12,606.19z"/>
		<path class="st7" d="M226.66,622.25h0.41c1.17,0,2.04,0.29,2.62,0.86c0.58,0.57,0.88,1.43,0.88,2.58c0,1.23-0.3,2.12-0.89,2.66
			c-0.59,0.54-1.6,0.81-3.02,0.81h-7.69c-1.4,0-2.4-0.27-3.02-0.81c-0.62-0.54-0.92-1.43-0.92-2.66c0-1.15,0.3-2,0.89-2.58
			c0.59-0.57,1.48-0.86,2.67-0.86h0.38v-9.03c0-2.5-0.35-4.28-1.05-5.33c-0.7-1.05-1.86-1.58-3.48-1.58c-1.73,0-3.14,0.63-4.23,1.89
			c-1.09,1.26-1.64,2.93-1.64,5.02v9.03h0.38c1.19,0,2.07,0.29,2.66,0.86c0.58,0.57,0.88,1.43,0.88,2.58c0,1.23-0.3,2.12-0.91,2.66
			c-0.6,0.54-1.6,0.81-3,0.81h-7.75c-1.4,0-2.4-0.27-3-0.81c-0.6-0.54-0.91-1.43-0.91-2.66c0-1.15,0.29-2,0.88-2.58
			c0.58-0.57,1.47-0.86,2.66-0.86h0.38v-15.12h-0.53c-1.12,0-1.98-0.29-2.56-0.86c-0.58-0.57-0.88-1.41-0.88-2.52
			c0-1.23,0.3-2.11,0.91-2.66c0.6-0.54,1.62-0.81,3.06-0.81h5.31c0.58,0,1.03,0.12,1.33,0.34c0.3,0.23,0.45,0.56,0.45,1v2.44
			c0.96-1.5,2.18-2.63,3.67-3.39c1.49-0.76,3.21-1.14,5.17-1.14c3.33,0,5.82,1.01,7.45,3.03c1.63,2.02,2.45,5.1,2.45,9.25V622.25z"
			/>
		<path class="st7" d="M249.78,602.03h9.53c1.44,0,2.46,0.26,3.06,0.78c0.6,0.52,0.91,1.39,0.91,2.59c0,1.23-0.31,2.12-0.92,2.66
			c-0.62,0.54-1.63,0.81-3.05,0.81h-9.53v8c0,2.25,0.34,3.79,1.03,4.62c0.69,0.83,1.9,1.25,3.62,1.25c1.62,0,3.54-0.47,5.75-1.41
			c2.21-0.94,3.69-1.41,4.44-1.41c0.85,0,1.59,0.34,2.2,1.02c0.61,0.68,0.92,1.5,0.92,2.45c0,1.6-1.45,3.07-4.36,4.39
			c-2.91,1.32-6.2,1.98-9.89,1.98c-2.15,0-4.03-0.29-5.66-0.88s-2.91-1.42-3.84-2.5c-0.69-0.83-1.18-1.83-1.47-3
			c-0.29-1.17-0.44-3.11-0.44-5.84v-0.69v-8h-2.94c-1.42,0-2.42-0.27-3.02-0.81c-0.59-0.54-0.89-1.43-0.89-2.66
			c0-1.23,0.29-2.1,0.88-2.61c0.58-0.51,1.59-0.77,3.03-0.77h2.94v-7.31c0-1.44,0.3-2.45,0.89-3.03c0.59-0.58,1.58-0.88,2.95-0.88
			s2.36,0.29,2.95,0.88c0.59,0.58,0.89,1.59,0.89,3.03V602.03z"/>
		<path class="st7" d="M290.34,599.59c5.06,0,9.17,1.42,12.31,4.25c3.15,2.83,4.72,6.47,4.72,10.91c0,4.46-1.57,8.1-4.72,10.94
			c-3.15,2.83-7.25,4.25-12.31,4.25c-5.04,0-9.14-1.42-12.28-4.25c-3.15-2.83-4.72-6.48-4.72-10.94c0-4.44,1.58-8.07,4.73-10.91
			C281.23,601.01,285.32,599.59,290.34,599.59z M290.34,606.19c-2.44,0-4.44,0.8-6.02,2.39c-1.57,1.59-2.36,3.63-2.36,6.11
			c0,2.5,0.79,4.57,2.36,6.2c1.57,1.64,3.58,2.45,6.02,2.45s4.45-0.82,6.03-2.45c1.58-1.63,2.38-3.7,2.38-6.2
			c0-2.48-0.79-4.52-2.36-6.11C294.82,606.99,292.8,606.19,290.34,606.19z"/>
		<path class="st7" d="M379.91,622.31h0.5c1.12,0,1.98,0.3,2.58,0.89s0.89,1.44,0.89,2.55c0,1.21-0.31,2.08-0.92,2.61
			c-0.62,0.53-1.63,0.8-3.05,0.8h-2.94c-1.04,0-1.82-0.2-2.33-0.59c-0.51-0.4-0.93-1.11-1.27-2.16c-1.73,1.15-3.56,2.02-5.5,2.62
			s-3.9,0.91-5.88,0.91c-3.35,0-5.99-0.83-7.91-2.5c-1.92-1.67-2.88-3.95-2.88-6.84c0-3.12,1.24-5.55,3.72-7.28
			c2.48-1.73,5.96-2.59,10.44-2.59c1,0,2.06,0.05,3.19,0.16c1.12,0.1,2.38,0.27,3.78,0.5v-0.59c0-1.88-0.45-3.3-1.36-4.28
			c-0.91-0.98-2.25-1.47-4.02-1.47c-1.38,0-3.13,0.51-5.27,1.53c-2.14,1.02-3.7,1.53-4.7,1.53c-0.98,0-1.77-0.29-2.38-0.86
			c-0.6-0.57-0.91-1.33-0.91-2.27c0-1.69,1.23-3.03,3.7-4.02c2.47-0.99,5.83-1.48,10.08-1.48c4.44,0,7.61,0.85,9.53,2.56
			c1.92,1.71,2.88,4.6,2.88,8.69V622.31z M372.34,616.28c-1.04-0.23-2-0.4-2.88-0.52c-0.88-0.11-1.69-0.17-2.44-0.17
			c-2.29,0-4.09,0.39-5.39,1.16c-1.3,0.77-1.95,1.83-1.95,3.19c0,1.21,0.42,2.13,1.25,2.77c0.83,0.64,2.03,0.95,3.59,0.95
			c1.44,0,2.79-0.21,4.06-0.62c1.27-0.42,2.52-1.06,3.75-1.94V616.28z"/>
		<path class="st7" d="M438.34,603.09c1-0.88,2.19-1.56,3.56-2.06s2.81-0.75,4.31-0.75c4.33,0,7.88,1.43,10.64,4.3
			c2.76,2.87,4.14,6.54,4.14,11.02c0,4.08-1.41,7.5-4.22,10.23c-2.81,2.74-6.35,4.11-10.62,4.11c-2.02,0-3.78-0.35-5.27-1.05
			c-1.49-0.7-2.7-1.74-3.64-3.14v2.06c0,0.42-0.16,0.75-0.48,0.98c-0.32,0.24-0.78,0.36-1.36,0.36h-4.81c-1.42,0-2.42-0.27-3.02-0.8
			s-0.89-1.42-0.89-2.67c0-1.1,0.29-1.94,0.86-2.52c0.57-0.57,1.42-0.86,2.55-0.86h0.5v-27.12h-0.5c-1.12,0-1.98-0.3-2.58-0.89
			s-0.89-1.45-0.89-2.58c0-1.23,0.3-2.11,0.91-2.66c0.6-0.54,1.62-0.81,3.06-0.81h5.84c0.67,0,1.15,0.16,1.45,0.48
			c0.3,0.32,0.45,0.85,0.45,1.58V603.09z M445.25,606.94c-2.04,0-3.73,0.77-5.08,2.3s-2.02,3.47-2.02,5.83c0,2.42,0.67,4.39,2,5.92
			c1.33,1.53,3.03,2.3,5.09,2.3s3.77-0.77,5.11-2.31c1.34-1.54,2.02-3.51,2.02-5.91c0-2.33-0.68-4.27-2.03-5.81
			C448.99,607.71,447.29,606.94,445.25,606.94z"/>
		<path class="st7" d="M495.12,622.31h0.5c1.12,0,1.98,0.3,2.58,0.89s0.89,1.44,0.89,2.55c0,1.21-0.31,2.08-0.92,2.61
			c-0.62,0.53-1.63,0.8-3.05,0.8h-2.94c-1.04,0-1.82-0.2-2.33-0.59c-0.51-0.4-0.93-1.11-1.27-2.16c-1.73,1.15-3.56,2.02-5.5,2.62
			s-3.9,0.91-5.88,0.91c-3.35,0-5.99-0.83-7.91-2.5c-1.92-1.67-2.88-3.95-2.88-6.84c0-3.12,1.24-5.55,3.72-7.28
			c2.48-1.73,5.96-2.59,10.44-2.59c1,0,2.06,0.05,3.19,0.16c1.12,0.1,2.38,0.27,3.78,0.5v-0.59c0-1.88-0.45-3.3-1.36-4.28
			c-0.91-0.98-2.25-1.47-4.02-1.47c-1.38,0-3.13,0.51-5.27,1.53c-2.14,1.02-3.7,1.53-4.7,1.53c-0.98,0-1.77-0.29-2.38-0.86
			c-0.6-0.57-0.91-1.33-0.91-2.27c0-1.69,1.23-3.03,3.7-4.02c2.47-0.99,5.83-1.48,10.08-1.48c4.44,0,7.61,0.85,9.53,2.56
			c1.92,1.71,2.88,4.6,2.88,8.69V622.31z M487.56,616.28c-1.04-0.23-2-0.4-2.88-0.52c-0.88-0.11-1.69-0.17-2.44-0.17
			c-2.29,0-4.09,0.39-5.39,1.16c-1.3,0.77-1.95,1.83-1.95,3.19c0,1.21,0.42,2.13,1.25,2.77c0.83,0.64,2.03,0.95,3.59,0.95
			c1.44,0,2.79-0.21,4.06-0.62c1.27-0.42,2.52-1.06,3.75-1.94V616.28z"/>
		<path class="st7" d="M515.81,612.19l6.59-5.94c-0.65-0.21-1.09-0.49-1.33-0.84c-0.24-0.35-0.36-0.91-0.36-1.66
			c0-1.27,0.28-2.17,0.84-2.69c0.56-0.52,1.56-0.78,3-0.78h6.91c1.42,0,2.42,0.26,3.02,0.78c0.59,0.52,0.89,1.4,0.89,2.62
			c0,0.92-0.17,1.58-0.52,2c-0.34,0.42-1.05,0.73-2.11,0.94c-0.98,0.19-1.85,0.5-2.61,0.94c-0.76,0.44-1.64,1.17-2.64,2.19
			l-2.22,2.31l8.25,10.25h0.78c1.21,0,2.11,0.28,2.72,0.84c0.6,0.56,0.91,1.41,0.91,2.53c0,1.23-0.3,2.12-0.91,2.66
			c-0.6,0.54-1.62,0.81-3.06,0.81h-7.66c-1.35,0-2.33-0.23-2.94-0.69c-0.6-0.46-0.91-1.19-0.91-2.19c0-0.75,0.18-1.35,0.53-1.8
			c0.35-0.45,0.94-0.83,1.75-1.14l-5.09-6.22l-3.84,3.53v6.44c0,0.79-0.14,1.33-0.41,1.62c-0.27,0.29-0.76,0.44-1.47,0.44h-5.62
			c-1.38,0-2.36-0.27-2.95-0.81c-0.59-0.54-0.89-1.43-0.89-2.66c0-1.1,0.28-1.94,0.84-2.52c0.56-0.57,1.4-0.86,2.5-0.86h0.5v-27.12
			h-0.5c-1.1,0-1.95-0.3-2.53-0.91c-0.58-0.6-0.88-1.46-0.88-2.56c0-1.21,0.3-2.09,0.91-2.64c0.6-0.55,1.6-0.83,3-0.83h5.62
			c0.71,0,1.2,0.15,1.47,0.44c0.27,0.29,0.41,0.83,0.41,1.62V612.19z"/>
		<path class="st7" d="M563.56,622.31h6.72c1.44,0,2.46,0.26,3.06,0.78c0.6,0.52,0.91,1.39,0.91,2.59c0,1.23-0.31,2.12-0.92,2.66
			c-0.62,0.54-1.63,0.81-3.05,0.81h-21.12c-1.42,0-2.43-0.27-3.05-0.81c-0.62-0.54-0.92-1.43-0.92-2.66c0-1.21,0.3-2.07,0.89-2.59
			c0.59-0.52,1.62-0.78,3.08-0.78h6.72v-15.19h-3.53c-1.4,0-2.4-0.27-3-0.8c-0.6-0.53-0.91-1.41-0.91-2.64
			c0-1.23,0.29-2.1,0.88-2.62c0.58-0.52,1.59-0.78,3.03-0.78h9.41c0.58,0,1.03,0.12,1.34,0.36c0.31,0.24,0.47,0.57,0.47,0.98V622.31
			z M559.06,586.16c1.52,0,2.53,0.29,3.03,0.88c0.5,0.58,0.75,1.98,0.75,4.19c0,2.12-0.22,3.44-0.67,3.95
			c-0.45,0.51-1.51,0.77-3.17,0.77c-1.62,0-2.67-0.24-3.14-0.72c-0.47-0.48-0.7-1.44-0.7-2.88c0-2.67,0.24-4.36,0.72-5.09
			C556.35,586.52,557.42,586.16,559.06,586.16z"/>
		<path class="st7" d="M610.72,622.25h0.41c1.17,0,2.04,0.29,2.62,0.86c0.58,0.57,0.88,1.43,0.88,2.58c0,1.23-0.3,2.12-0.89,2.66
			c-0.59,0.54-1.6,0.81-3.02,0.81h-7.69c-1.4,0-2.4-0.27-3.02-0.81c-0.62-0.54-0.92-1.43-0.92-2.66c0-1.15,0.3-2,0.89-2.58
			c0.59-0.57,1.48-0.86,2.67-0.86h0.38v-9.03c0-2.5-0.35-4.28-1.05-5.33c-0.7-1.05-1.86-1.58-3.48-1.58c-1.73,0-3.14,0.63-4.23,1.89
			c-1.09,1.26-1.64,2.93-1.64,5.02v9.03H593c1.19,0,2.07,0.29,2.66,0.86c0.58,0.57,0.88,1.43,0.88,2.58c0,1.23-0.3,2.12-0.91,2.66
			c-0.6,0.54-1.6,0.81-3,0.81h-7.75c-1.4,0-2.4-0.27-3-0.81c-0.6-0.54-0.91-1.43-0.91-2.66c0-1.15,0.29-2,0.88-2.58
			c0.58-0.57,1.47-0.86,2.66-0.86h0.38v-15.12h-0.53c-1.12,0-1.98-0.29-2.56-0.86c-0.58-0.57-0.88-1.41-0.88-2.52
			c0-1.23,0.3-2.11,0.91-2.66c0.6-0.54,1.62-0.81,3.06-0.81h5.31c0.58,0,1.03,0.12,1.33,0.34c0.3,0.23,0.45,0.56,0.45,1v2.44
			c0.96-1.5,2.18-2.63,3.67-3.39c1.49-0.76,3.21-1.14,5.17-1.14c3.33,0,5.82,1.01,7.45,3.03c1.63,2.02,2.45,5.1,2.45,9.25V622.25z"
			/>
		<path class="st7" d="M642.41,603.19v-1.62c0-0.42,0.15-0.73,0.45-0.95c0.3-0.22,0.75-0.33,1.36-0.33h5.09
			c1.44,0,2.45,0.27,3.03,0.8c0.58,0.53,0.88,1.4,0.88,2.61c0,1.12-0.29,1.98-0.86,2.56c-0.57,0.58-1.41,0.88-2.52,0.88h-0.53v21.53
			c0,4.56-1.24,7.88-3.72,9.94c-2.48,2.06-6.46,3.09-11.94,3.09c-3.4,0-5.89-0.33-7.48-1c-1.59-0.67-2.39-1.72-2.39-3.16
			c0-1,0.32-1.81,0.97-2.44c0.65-0.62,1.5-0.94,2.56-0.94c0.27,0,1.17,0.09,2.69,0.28c1.52,0.19,2.93,0.28,4.22,0.28
			c2.98,0,5.04-0.56,6.17-1.69c1.13-1.12,1.7-3.15,1.7-6.06v-1.41c-1.48,0.85-2.94,1.48-4.39,1.89c-1.45,0.41-2.95,0.61-4.52,0.61
			c-4.19,0-7.61-1.31-10.27-3.92c-2.66-2.61-3.98-5.97-3.98-10.08c0-4.23,1.39-7.71,4.17-10.44c2.78-2.73,6.34-4.09,10.67-4.09
			c1.88,0,3.52,0.3,4.94,0.89C640.13,601.02,641.36,601.94,642.41,603.19z M634.66,606.13c-2.04,0-3.73,0.74-5.08,2.22
			c-1.34,1.48-2.02,3.37-2.02,5.66c0,2.25,0.67,4.11,2.02,5.58s3.04,2.2,5.08,2.2c2.06,0,3.77-0.73,5.11-2.2s2.02-3.33,2.02-5.58
			c0-2.29-0.67-4.18-2.02-5.66C638.42,606.87,636.72,606.13,634.66,606.13z"/>
		<path class="st7" d="M704.56,628.72c-0.54,0.42-1.1,0.73-1.67,0.95c-0.57,0.22-1.16,0.33-1.77,0.33c-0.9,0-1.53-0.24-1.89-0.72
			c-0.37-0.48-0.55-1.38-0.55-2.69v-4.16c0-1.38,0.23-2.35,0.69-2.92c0.46-0.57,1.25-0.86,2.38-0.86c1.23,0,2.23,0.59,3,1.78
			c0.46,0.65,0.84,1.12,1.16,1.44c1.02,0.92,2.21,1.6,3.56,2.06c1.35,0.46,2.9,0.69,4.62,0.69c1.5,0,2.7-0.29,3.59-0.88
			c0.9-0.58,1.34-1.34,1.34-2.28c0-1.69-2.41-2.85-7.22-3.5c-1.06-0.12-1.9-0.24-2.5-0.34c-3.62-0.5-6.32-1.48-8.09-2.95
			c-1.77-1.47-2.66-3.44-2.66-5.92c0-2.94,1.06-5.21,3.19-6.81c2.12-1.6,5.16-2.41,9.09-2.41c1.35,0,2.74,0.11,4.17,0.33
			c1.43,0.22,2.89,0.56,4.39,1.02c0.44-0.52,0.9-0.91,1.39-1.16c0.49-0.25,1.04-0.38,1.64-0.38c0.85,0,1.5,0.27,1.95,0.8
			c0.45,0.53,0.67,1.33,0.67,2.39v3.84c0,0.9-0.23,1.59-0.69,2.08c-0.46,0.49-1.1,0.73-1.94,0.73c-0.85,0-2.32-0.74-4.39-2.23
			c-2.07-1.49-4.15-2.23-6.23-2.23c-1.62,0-2.89,0.27-3.78,0.8c-0.9,0.53-1.34,1.27-1.34,2.2c0,1.46,1.88,2.44,5.62,2.94
			c1.08,0.12,1.94,0.23,2.56,0.31c4.71,0.69,7.94,1.71,9.7,3.08c1.76,1.37,2.64,3.39,2.64,6.08c0,3.15-1.16,5.58-3.48,7.3
			c-2.32,1.72-5.62,2.58-9.89,2.58c-1.67,0-3.27-0.11-4.81-0.33C707.49,629.45,706,629.14,704.56,628.72z"/>
		<path class="st7" d="M746.19,603.44c0.73-1.27,1.76-2.24,3.09-2.91c1.33-0.67,2.93-1,4.78-1c3.29,0,5.83,0.96,7.61,2.88
			c1.78,1.92,2.67,4.67,2.67,8.25v11.66h0.53c1.1,0,1.94,0.29,2.52,0.86c0.57,0.57,0.86,1.41,0.86,2.52c0,1.23-0.3,2.12-0.89,2.66
			c-0.59,0.54-1.6,0.81-3.02,0.81h-7.75c-1.4,0-2.39-0.27-2.98-0.81c-0.59-0.54-0.89-1.43-0.89-2.66c0-1.12,0.28-1.97,0.84-2.53
			s1.41-0.84,2.53-0.84h0.5v-9.09c0-2.67-0.33-4.52-0.98-5.55s-1.78-1.55-3.36-1.55c-1.67,0-3.09,0.67-4.28,2.02
			s-1.78,3.04-1.78,5.08v9.09h0.5c1.12,0,1.97,0.29,2.55,0.86c0.57,0.57,0.86,1.41,0.86,2.52c0,1.23-0.3,2.12-0.91,2.66
			c-0.6,0.54-1.6,0.81-3,0.81h-7.75c-1.44,0-2.45-0.27-3.03-0.8c-0.58-0.53-0.88-1.42-0.88-2.67c0-1.1,0.29-1.94,0.86-2.52
			c0.57-0.57,1.41-0.86,2.52-0.86h0.53v-27.12h-0.53c-1.1,0-1.95-0.3-2.55-0.89s-0.89-1.45-0.89-2.58c0-1.23,0.3-2.11,0.91-2.66
			c0.6-0.54,1.62-0.81,3.06-0.81h5.88c0.71,0,1.2,0.15,1.47,0.44c0.27,0.29,0.41,0.83,0.41,1.62V603.44z"/>
		<path class="st7" d="M781.12,616.56c0.54,2.31,1.59,4.04,3.14,5.19c1.55,1.15,3.62,1.72,6.2,1.72c2.58,0,5.13-0.63,7.66-1.89
			c2.52-1.26,4.04-1.89,4.56-1.89c0.77,0,1.4,0.29,1.89,0.86c0.49,0.57,0.73,1.31,0.73,2.2c0,1.96-1.45,3.65-4.34,5.06
			c-2.9,1.42-6.48,2.12-10.75,2.12c-5.04,0-9.14-1.42-12.3-4.25c-3.16-2.83-4.73-6.48-4.73-10.94c0-4.44,1.58-8.07,4.73-10.91
			c3.16-2.83,7.25-4.25,12.3-4.25c4.5,0,8.23,1.33,11.19,3.98c2.96,2.66,4.44,5.91,4.44,9.77c0,1.23-0.3,2.07-0.89,2.53
			c-0.59,0.46-1.82,0.69-3.67,0.69H781.12z M797.97,611.69c-0.36-1.94-1.27-3.44-2.73-4.5s-3.38-1.59-5.73-1.59
			c-2.27,0-4.1,0.51-5.48,1.52c-1.39,1.01-2.35,2.54-2.89,4.58H797.97z"/>
		<path class="st7" d="M819.53,616.56c0.54,2.31,1.59,4.04,3.14,5.19c1.55,1.15,3.62,1.72,6.2,1.72c2.58,0,5.13-0.63,7.66-1.89
			c2.52-1.26,4.04-1.89,4.56-1.89c0.77,0,1.4,0.29,1.89,0.86c0.49,0.57,0.73,1.31,0.73,2.2c0,1.96-1.45,3.65-4.34,5.06
			c-2.9,1.42-6.48,2.12-10.75,2.12c-5.04,0-9.14-1.42-12.3-4.25c-3.16-2.83-4.73-6.48-4.73-10.94c0-4.44,1.58-8.07,4.73-10.91
			c3.16-2.83,7.25-4.25,12.3-4.25c4.5,0,8.23,1.33,11.19,3.98c2.96,2.66,4.44,5.91,4.44,9.77c0,1.23-0.3,2.07-0.89,2.53
			c-0.59,0.46-1.82,0.69-3.67,0.69H819.53z M836.38,611.69c-0.35-1.94-1.27-3.44-2.73-4.5s-3.38-1.59-5.73-1.59
			c-2.27,0-4.1,0.51-5.48,1.52c-1.39,1.01-2.35,2.54-2.89,4.58H836.38z"/>
		<path class="st7" d="M864.28,602.03h9.53c1.44,0,2.46,0.26,3.06,0.78c0.6,0.52,0.91,1.39,0.91,2.59c0,1.23-0.31,2.12-0.92,2.66
			c-0.62,0.54-1.63,0.81-3.05,0.81h-9.53v8c0,2.25,0.34,3.79,1.03,4.62c0.69,0.83,1.9,1.25,3.62,1.25c1.62,0,3.54-0.47,5.75-1.41
			c2.21-0.94,3.69-1.41,4.44-1.41c0.85,0,1.59,0.34,2.2,1.02c0.61,0.68,0.92,1.5,0.92,2.45c0,1.6-1.45,3.07-4.36,4.39
			c-2.91,1.32-6.2,1.98-9.89,1.98c-2.15,0-4.03-0.29-5.66-0.88s-2.91-1.42-3.84-2.5c-0.69-0.83-1.18-1.83-1.47-3
			c-0.29-1.17-0.44-3.11-0.44-5.84v-0.69v-8h-2.94c-1.42,0-2.42-0.27-3.02-0.81c-0.59-0.54-0.89-1.43-0.89-2.66
			c0-1.23,0.29-2.1,0.88-2.61c0.58-0.51,1.59-0.77,3.03-0.77h2.94v-7.31c0-1.44,0.3-2.45,0.89-3.03c0.59-0.58,1.58-0.88,2.95-0.88
			s2.36,0.29,2.95,0.88c0.59,0.58,0.89,1.59,0.89,3.03V602.03z"/>
		<path class="st7" d="M904.84,619.38c1.88,0,3.37,0.47,4.48,1.42c1.11,0.95,1.67,2.2,1.67,3.77s-0.56,2.84-1.69,3.83
			s-2.62,1.48-4.47,1.48c-1.79,0-3.26-0.5-4.41-1.5c-1.15-1-1.72-2.27-1.72-3.81c0-1.52,0.57-2.77,1.72-3.73
			C901.58,619.86,903.05,619.38,904.84,619.38z M908.94,594.22l-1.19,20.28c-0.04,0.69-0.33,1.26-0.86,1.7
			c-0.53,0.45-1.21,0.67-2.05,0.67c-0.79,0-1.46-0.23-2-0.69c-0.54-0.46-0.83-1.02-0.88-1.69l-1.22-20.28v-0.25
			c0-1.23,0.36-2.2,1.09-2.91c0.73-0.71,1.73-1.06,3-1.06c1.29,0,2.3,0.34,3.02,1.03s1.08,1.65,1.08,2.88V594.22z"/>
	</g>
</g>
<g id="choco_cook" class="st8">
	<g class="st9">
		<g>
			<path class="st10" d="M393.73,414.57c2.64,8.16-2.51,17.43-2.52,25.56c-0.01,8.43,5.01,17.73,2.44,25.57
				c-2.6,7.92-12.18,12.45-17.08,19.19c-4.86,6.67-6.21,17.2-13.03,22.14c-6.59,4.77-16.95,2.83-25.11,5.47
				c-8.16,2.64-15.43,10.27-23.56,10.26c-8.43-0.01-15.68-7.76-23.53-10.33c-7.92-2.6-18.34-0.66-25.08-5.57
				c-6.67-4.86-8.04-15.34-12.98-22.17c-4.77-6.59-14.36-11.1-17-19.26c-2.64-8.16,2.51-17.43,2.52-25.56
				c0.01-8.43-5.01-17.73-2.44-25.57c2.6-7.92,12.18-12.45,17.08-19.19c4.86-6.67,6.21-17.2,13.03-22.14
				c6.59-4.77,16.95-2.83,25.11-5.47c8.16-2.64,15.43-10.27,23.56-10.26c8.43,0.01,15.68,7.76,23.53,10.33
				c7.92,2.6,18.34,0.66,25.08,5.57c6.67,4.86,8.04,15.34,12.98,22.17C381.5,401.9,391.1,406.41,393.73,414.57z"/>
			<g>
				<path class="st11" d="M393.65,455.09c-2.6,7.92-12.18,12.45-17.08,19.19c-4.86,6.67-6.21,17.2-13.03,22.14
					c-6.59,4.77-16.95,2.83-25.11,5.47c-8.16,2.64-15.43,10.27-23.56,10.26c-8.43-0.01-15.68-7.76-23.53-10.33
					c-7.92-2.6-18.34-0.66-25.08-5.57c-6.67-4.86-8.04-15.34-12.98-22.17c-4.77-6.59-14.36-11.1-17-19.26
					c-0.04-0.13-0.06-0.26-0.1-0.39c-0.72,3.75-1.04,7.48,0.1,11c2.64,8.16,12.23,12.67,17,19.26c4.94,6.83,6.31,17.31,12.98,22.17
					c6.74,4.91,17.16,2.97,25.08,5.57c7.84,2.57,15.1,10.32,23.53,10.33c8.13,0.01,15.4-7.62,23.56-10.26
					c8.16-2.64,18.52-0.7,25.11-5.47c6.83-4.94,8.18-15.47,13.03-22.14c4.91-6.74,14.49-11.27,17.08-19.19
					c1.12-3.42,0.8-7.12,0.08-10.9C393.7,454.9,393.68,454.99,393.65,455.09z"/>
			</g>
			<path class="st12" d="M318.92,373.4c-1.78,0.49-17.29,5.86-14.34,20.01c2.95,14.15,15.8,10.42,18.69,11.11
				c6.61,1.6,13.34-2.07,16.14-8.09C345.38,383.58,332.1,369.78,318.92,373.4z"/>
			<path class="st12" d="M371.36,401.59c-3.17-1.68-6.94-1.83-10.08-0.45c-6.33-1.39-13.02,5.3-11.42,12.35
				c1.04,4.56,5.33,9.48,8.99,12.19c4.13,3.05,9.89,4.3,14.57,1.6C383.56,421.45,380.82,406.61,371.36,401.59z"/>
			<path class="st12" d="M368.15,451.25c-5.81-5.74-15.01-0.62-16.53,6.4c-0.58,1.18-0.91,2.49-0.92,3.77
				c-0.02,7.34,8.13,10.82,13.97,6.92C370.27,464.61,373.65,456.69,368.15,451.25z"/>
			<path class="st12" d="M310.45,476.14c-3.89-3.28-10.19-3.63-13.89,0.23c-0.33,0.35-0.63,0.73-0.91,1.14
				c-4.07,0.52-6.72,4.62-6.67,8.57c0.12,8.51,10.73,13.49,18.09,11.33C316.41,494.68,317.4,482,310.45,476.14z"/>
			<path class="st12" d="M331.88,486c-0.04-0.98-0.3-1.92-0.75-2.79c-0.35-0.64-0.82-1.16-1.42-1.55c-0.53-0.49-1.16-0.82-1.88-0.99
				c-0.27-0.1-0.62-0.1-0.88-0.14c-0.97-0.13-0.59-0.13-1.56,0c-0.77,0.1-1.47,0.3-2.16,0.69c-0.31,0.18-0.94,0.67-1.2,0.92
				c-0.4,0.38-0.8,0.9-1.07,1.38c-0.18,0.32-0.51,1.08-0.6,1.43c-0.02,0.06-0.03,0.12-0.05,0.19c-0.26,1.14-0.27,2.1-0.01,3.25
				c0.19,0.82,0.58,1.52,1.09,2.18c0.26,0.43,0.6,0.78,1.04,1.04c0.19,0.18,0.4,0.33,0.61,0.47c0.45,0.29,0.95,0.49,1.46,0.61
				c1.57,0.35,3.03,0.18,4.47-0.59c1.66-0.88,2.87-2.96,2.78-4.85c0-0.01,0-0.03,0-0.05C331.84,486.81,331.89,486.41,331.88,486z"/>
			<path class="st12" d="M270.74,438.23c-4.05-4.41-11-5.33-15.92-1.96c-2.44,1.66-16.27,9.63-5.43,24.88
				c7.16,10.07,21.16,4.12,24.6-6.68C275.71,449.04,274.63,442.48,270.74,438.23z"/>
			<path class="st12" d="M255.47,423.83c-0.28-0.88-0.75-1.67-1.37-2.35c-0.92-1-2.45-1.54-3.77-1.56c-0.71-0.01-1.45,0.08-2.13,0.3
				c-0.5,0.16-1.11,0.42-1.57,0.68c-0.94,0.52-1.62,1.35-2.19,2.23c-0.4,0.61-0.67,1.34-0.89,2.03c-0.33,1.05-0.27,2.18-0.03,3.24
				c0.13,0.6,0.39,1.18,0.73,1.69c0.5,0.85,1.18,1.53,2.04,2.04c0.89,0.51,1.84,0.77,2.86,0.77c2.08,0,3.79-1.11,4.9-2.81
				c0.06-0.1,0.12-0.19,0.18-0.29c0.32-0.54,0.49-1.1,0.61-1.69c0.01-0.01,0.01-0.02,0.02-0.04c-0.01,0.06-0.02,0.13-0.03,0.19
				c0.02-0.09,0.05-0.18,0.07-0.27c0.01-0.02,0.02-0.04,0.03-0.05c0,0-0.01,0-0.01,0c0.11-0.2,0.21-0.41,0.28-0.64
				C255.65,426.25,255.83,424.96,255.47,423.83z"/>
			<path class="st12" d="M282.01,386.69c-1.23-2.91-4.05-5.01-7.3-4.96c-3.2,0.05-6.07,2.3-6.97,5.37c-0.2,0.68-0.3,1.35-0.31,2.02
				c-0.44,1.3-0.54,2.72-0.21,4.03c0.64,2.51,2.77,4.31,5.26,4.81c2.81,0.57,5.94-0.61,7.86-2.71
				C282.48,392.93,283.26,389.64,282.01,386.69z"/>
			<path class="st13" d="M291.44,415.01c-1.27-3.26-5.08-4.84-8.36-5.05c-2.86-0.18-5.41,0.8-7.26,2.45
				c-1.05,0.4-2.04,0.94-2.93,1.76c-2.43,2.25-3.13,5.7-1.57,8.67c3.64,6.93,12.19,4.64,16.97,0.59
				C290.81,421.3,292.75,418.39,291.44,415.01z"/>
			<path class="st13" d="M343.47,409.8c-5.93-3.62-14.73-0.05-15.27,7.17c-0.5,6.55,6.73,11.56,12.22,8.4
				c0.14-0.02,0.29-0.02,0.43-0.05c3.3-0.58,5.9-3.32,6.57-6.58C348.16,415.17,346.58,411.7,343.47,409.8z"/>
			<path class="st13" d="M281.56,470.8c-3.3-3.12-8.38-2.76-11.51,0.4c-3.16,3.2-3.38,8.04-1.31,11.88c0,0.01,0.01,0.02,0.02,0.03
				c0.02,0.11,0.05,0.23,0.08,0.33c1.04,3.8,4.7,6.49,8.66,5.78C285.46,487.79,286.83,475.78,281.56,470.8z"/>
			<path class="st13" d="M351.9,478.16c-2.86,0-5.41,1.78-6.69,4.28c-0.18,0.34-0.32,0.69-0.45,1.05c-0.01,0.03-0.02,0.05-0.03,0.08
				c-0.94,2.68-0.51,5.54,1.32,7.82c0.95,1.18,2.84,1.56,4.38,1.2c2.35,0.53,4.93,0.04,6.88-1.77
				C362.16,486.31,358.24,478.16,351.9,478.16z"/>
			<path class="st13" d="M291.49,399.43c-0.65-1.25-2.3-1.84-3.62-1.47c-2.73,0.76-5.97,3.73-4.14,6.81
				c0.8,1.35,2.04,2.15,3.58,2.36c1.26,0.17,2.51-0.08,3.45-1.02c0.34-0.34,0.57-0.72,0.74-1.12c0.31-0.46,0.53-0.97,0.65-1.49
				C292.47,402.08,292.15,400.68,291.49,399.43z"/>
			<path class="st13" d="M362.6,387.89c-0.99-5.37-8.33-8.41-11.74-3.29c-1.46,2.19-1.33,5.1,0.42,7.09
				c0.66,1.25,1.75,2.27,3.34,2.83C358.99,396.04,363.45,392.51,362.6,387.89z"/>
		</g>
		<g>
			<path class="st10" d="M618.73,414.57c2.64,8.16-2.51,17.43-2.52,25.56c-0.01,8.43,5.01,17.73,2.44,25.57
				c-2.6,7.92-12.18,12.45-17.08,19.19c-4.86,6.67-6.21,17.2-13.03,22.14c-6.59,4.77-16.95,2.83-25.11,5.47
				c-8.16,2.64-15.43,10.27-23.56,10.26c-8.43-0.01-15.68-7.76-23.53-10.33c-7.92-2.6-18.34-0.66-25.08-5.57
				c-6.67-4.86-8.04-15.34-12.98-22.17c-4.77-6.59-14.36-11.1-17-19.26c-2.64-8.16,2.51-17.43,2.52-25.56
				c0.01-8.43-5.01-17.73-2.44-25.57c2.6-7.92,12.18-12.45,17.08-19.19c4.86-6.67,6.21-17.2,13.03-22.14
				c6.59-4.77,16.95-2.83,25.11-5.47c8.16-2.64,15.43-10.27,23.56-10.26c8.43,0.01,15.68,7.76,23.53,10.33
				c7.92,2.6,18.34,0.66,25.08,5.57c6.67,4.86,8.04,15.34,12.98,22.17C606.5,401.9,616.1,406.41,618.73,414.57z"/>
			<g>
				<path class="st11" d="M618.65,455.09c-2.6,7.92-12.18,12.45-17.08,19.19c-4.86,6.67-6.21,17.2-13.03,22.14
					c-6.59,4.77-16.95,2.83-25.11,5.47c-8.16,2.64-15.43,10.27-23.56,10.26c-8.43-0.01-15.68-7.76-23.53-10.33
					c-7.92-2.6-18.34-0.66-25.08-5.57c-6.67-4.86-8.04-15.34-12.98-22.17c-4.77-6.59-14.36-11.1-17-19.26
					c-0.04-0.13-0.06-0.26-0.1-0.39c-0.72,3.75-1.04,7.48,0.1,11c2.64,8.16,12.23,12.67,17,19.26c4.94,6.83,6.31,17.31,12.98,22.17
					c6.74,4.91,17.16,2.97,25.08,5.57c7.84,2.57,15.1,10.32,23.53,10.33c8.13,0.01,15.4-7.62,23.56-10.26
					c8.16-2.64,18.52-0.7,25.11-5.47c6.83-4.94,8.18-15.47,13.03-22.14c4.91-6.74,14.49-11.27,17.08-19.19
					c1.12-3.42,0.8-7.12,0.08-10.9C618.7,454.9,618.68,454.99,618.65,455.09z"/>
			</g>
			<path class="st12" d="M543.92,373.4c-1.78,0.49-17.29,5.86-14.34,20.01c2.95,14.15,15.8,10.42,18.69,11.11
				c6.61,1.6,13.34-2.07,16.14-8.09C570.38,383.58,557.1,369.78,543.92,373.4z"/>
			<path class="st12" d="M596.36,401.59c-3.17-1.68-6.94-1.83-10.08-0.45c-6.33-1.39-13.02,5.3-11.42,12.35
				c1.04,4.56,5.33,9.48,8.99,12.19c4.13,3.05,9.89,4.3,14.57,1.6C608.56,421.45,605.82,406.61,596.36,401.59z"/>
			<path class="st12" d="M593.15,451.25c-5.81-5.74-15.01-0.62-16.53,6.4c-0.58,1.18-0.91,2.49-0.92,3.77
				c-0.02,7.34,8.13,10.82,13.97,6.92C595.27,464.61,598.65,456.69,593.15,451.25z"/>
			<path class="st12" d="M535.45,476.14c-3.89-3.28-10.19-3.63-13.89,0.23c-0.33,0.35-0.63,0.73-0.91,1.14
				c-4.07,0.52-6.72,4.62-6.67,8.57c0.12,8.51,10.73,13.49,18.09,11.33C541.41,494.68,542.4,482,535.45,476.14z"/>
			<path class="st12" d="M556.88,486c-0.04-0.98-0.3-1.92-0.76-2.79c-0.35-0.64-0.82-1.16-1.42-1.55c-0.53-0.49-1.16-0.82-1.88-0.99
				c-0.27-0.1-0.62-0.1-0.88-0.14c-0.97-0.13-0.59-0.13-1.56,0c-0.77,0.1-1.47,0.3-2.16,0.69c-0.31,0.18-0.94,0.67-1.2,0.92
				c-0.4,0.38-0.8,0.9-1.07,1.38c-0.18,0.32-0.51,1.08-0.6,1.43c-0.02,0.06-0.03,0.12-0.05,0.19c-0.26,1.14-0.27,2.1-0.01,3.25
				c0.19,0.82,0.58,1.52,1.09,2.18c0.26,0.43,0.6,0.78,1.04,1.04c0.19,0.18,0.4,0.33,0.61,0.47c0.45,0.29,0.95,0.49,1.46,0.61
				c1.57,0.35,3.03,0.18,4.47-0.59c1.66-0.88,2.87-2.96,2.78-4.85c0-0.01,0-0.03,0-0.05C556.84,486.81,556.89,486.41,556.88,486z"/>
			<path class="st12" d="M495.74,438.23c-4.05-4.41-11-5.33-15.92-1.96c-2.44,1.66-16.27,9.63-5.43,24.88
				c7.16,10.07,21.16,4.12,24.6-6.68C500.71,449.04,499.63,442.48,495.74,438.23z"/>
			<path class="st12" d="M480.47,423.83c-0.28-0.88-0.75-1.67-1.37-2.35c-0.92-1-2.45-1.54-3.77-1.56c-0.71-0.01-1.45,0.08-2.13,0.3
				c-0.5,0.16-1.11,0.42-1.57,0.68c-0.94,0.52-1.62,1.35-2.19,2.23c-0.4,0.61-0.67,1.34-0.89,2.03c-0.33,1.05-0.27,2.18-0.03,3.24
				c0.13,0.6,0.39,1.18,0.73,1.69c0.5,0.85,1.18,1.53,2.04,2.04c0.89,0.51,1.84,0.77,2.86,0.77c2.08,0,3.79-1.11,4.9-2.81
				c0.06-0.1,0.12-0.19,0.18-0.29c0.32-0.54,0.49-1.1,0.61-1.69c0.01-0.01,0.01-0.02,0.02-0.04c-0.01,0.06-0.02,0.13-0.03,0.19
				c0.02-0.09,0.05-0.18,0.07-0.27c0.01-0.02,0.02-0.04,0.03-0.05c0,0-0.01,0-0.01,0c0.11-0.2,0.21-0.41,0.28-0.64
				C480.65,426.25,480.83,424.96,480.47,423.83z"/>
			<path class="st12" d="M507.01,386.69c-1.23-2.91-4.05-5.01-7.3-4.96c-3.2,0.05-6.07,2.3-6.97,5.37c-0.2,0.68-0.3,1.35-0.31,2.02
				c-0.44,1.3-0.54,2.72-0.21,4.03c0.64,2.51,2.77,4.31,5.26,4.81c2.81,0.57,5.94-0.61,7.86-2.71
				C507.48,392.93,508.26,389.64,507.01,386.69z"/>
			<path class="st13" d="M516.44,415.01c-1.27-3.26-5.08-4.84-8.36-5.05c-2.86-0.18-5.41,0.8-7.26,2.45
				c-1.05,0.4-2.04,0.94-2.93,1.76c-2.43,2.25-3.13,5.7-1.57,8.67c3.64,6.93,12.19,4.64,16.97,0.59
				C515.81,421.3,517.75,418.39,516.44,415.01z"/>
			<path class="st13" d="M568.47,409.8c-5.93-3.62-14.73-0.05-15.27,7.17c-0.5,6.55,6.73,11.56,12.22,8.4
				c0.14-0.02,0.29-0.02,0.43-0.05c3.3-0.58,5.9-3.32,6.57-6.58C573.16,415.17,571.58,411.7,568.47,409.8z"/>
			<path class="st13" d="M506.56,470.8c-3.3-3.12-8.38-2.76-11.51,0.4c-3.16,3.2-3.38,8.04-1.31,11.88c0,0.01,0.01,0.02,0.02,0.03
				c0.02,0.11,0.05,0.23,0.08,0.33c1.04,3.8,4.7,6.49,8.66,5.78C510.46,487.79,511.83,475.78,506.56,470.8z"/>
			<path class="st13" d="M576.9,478.16c-2.86,0-5.41,1.78-6.69,4.28c-0.18,0.34-0.32,0.69-0.45,1.05c-0.01,0.03-0.02,0.05-0.03,0.08
				c-0.94,2.68-0.51,5.54,1.32,7.82c0.95,1.18,2.84,1.56,4.38,1.2c2.35,0.53,4.93,0.04,6.88-1.77
				C587.16,486.31,583.24,478.16,576.9,478.16z"/>
			<path class="st13" d="M516.49,399.43c-0.65-1.25-2.3-1.84-3.62-1.47c-2.73,0.76-5.97,3.73-4.14,6.81
				c0.8,1.35,2.04,2.15,3.58,2.36c1.26,0.17,2.51-0.08,3.45-1.02c0.34-0.34,0.57-0.72,0.74-1.12c0.31-0.46,0.53-0.97,0.65-1.49
				C517.47,402.08,517.15,400.68,516.49,399.43z"/>
			<path class="st13" d="M587.6,387.89c-0.99-5.37-8.33-8.41-11.74-3.29c-1.46,2.19-1.33,5.1,0.42,7.09
				c0.66,1.25,1.75,2.27,3.34,2.83C583.99,396.04,588.45,392.51,587.6,387.89z"/>
		</g>
		<g>
			<g>
				<path class="st10" d="M843.73,414.57c2.64,8.16-2.51,17.43-2.52,25.56c-0.01,8.43,5.01,17.73,2.44,25.57
					c-2.6,7.92-12.18,12.45-17.08,19.19c-4.86,6.67-6.21,17.2-13.03,22.14c-6.59,4.77-16.95,2.83-25.11,5.47
					c-8.16,2.64-15.43,10.27-23.56,10.26c-8.43-0.01-15.68-7.76-23.53-10.33c-7.92-2.6-18.34-0.66-25.08-5.57
					c-6.67-4.86-8.04-15.34-12.98-22.17c-4.77-6.59-14.36-11.1-17-19.26c-2.64-8.16,2.51-17.43,2.52-25.56
					c0.01-8.43-5.01-17.73-2.44-25.57c2.6-7.92,12.18-12.45,17.08-19.19c4.86-6.67,6.21-17.2,13.03-22.14
					c6.59-4.77,16.95-2.83,25.11-5.47c8.16-2.64,15.43-10.27,23.56-10.26c8.43,0.01,15.68,7.76,23.53,10.33
					c7.92,2.6,18.34,0.66,25.08,5.57c6.67,4.86,8.04,15.34,12.98,22.17C831.5,401.9,841.1,406.41,843.73,414.57z"/>
				<g>
					<path class="st11" d="M843.65,455.09c-2.6,7.92-12.18,12.45-17.08,19.19c-4.86,6.67-6.21,17.2-13.03,22.14
						c-6.59,4.77-16.95,2.83-25.11,5.47c-8.16,2.64-15.43,10.27-23.56,10.26c-8.43-0.01-15.68-7.76-23.53-10.33
						c-7.92-2.6-18.34-0.66-25.08-5.57c-6.67-4.86-8.04-15.34-12.98-22.17c-4.77-6.59-14.36-11.1-17-19.26
						c-0.04-0.13-0.06-0.26-0.1-0.39c-0.72,3.75-1.04,7.48,0.1,11c2.64,8.16,12.23,12.67,17,19.26c4.94,6.83,6.31,17.31,12.98,22.17
						c6.74,4.91,17.16,2.97,25.08,5.57c7.84,2.57,15.1,10.32,23.53,10.33c8.13,0.01,15.4-7.62,23.56-10.26
						c8.16-2.64,18.52-0.7,25.11-5.47c6.83-4.94,8.18-15.47,13.03-22.14c4.91-6.74,14.49-11.27,17.08-19.19
						c1.12-3.42,0.8-7.12,0.08-10.9C843.7,454.9,843.68,454.99,843.65,455.09z"/>
				</g>
				<path class="st12" d="M768.92,373.4c-1.78,0.49-17.29,5.86-14.34,20.01c2.95,14.15,15.8,10.42,18.69,11.11
					c6.61,1.6,13.34-2.07,16.14-8.09C795.38,383.58,782.1,369.78,768.92,373.4z"/>
				<path class="st12" d="M821.36,401.59c-3.17-1.68-6.94-1.83-10.08-0.45c-6.33-1.39-13.02,5.3-11.42,12.35
					c1.04,4.56,5.33,9.48,8.99,12.19c4.13,3.05,9.89,4.3,14.57,1.6C833.56,421.45,830.82,406.61,821.36,401.59z"/>
				<path class="st12" d="M818.15,451.25c-5.81-5.74-15.01-0.62-16.53,6.4c-0.58,1.18-0.91,2.49-0.92,3.77
					c-0.02,7.34,8.13,10.82,13.97,6.92C820.27,464.61,823.65,456.69,818.15,451.25z"/>
				<path class="st12" d="M760.45,476.14c-3.89-3.28-10.19-3.63-13.89,0.23c-0.33,0.35-0.63,0.73-0.91,1.14
					c-4.07,0.52-6.72,4.62-6.67,8.57c0.12,8.51,10.73,13.49,18.09,11.33C766.41,494.68,767.4,482,760.45,476.14z"/>
				<path class="st12" d="M781.88,486c-0.04-0.98-0.3-1.92-0.76-2.79c-0.35-0.64-0.82-1.16-1.42-1.55
					c-0.53-0.49-1.16-0.82-1.88-0.99c-0.27-0.1-0.62-0.1-0.88-0.14c-0.97-0.13-0.59-0.13-1.56,0c-0.77,0.1-1.47,0.3-2.16,0.69
					c-0.31,0.18-0.94,0.67-1.2,0.92c-0.4,0.38-0.8,0.9-1.07,1.38c-0.18,0.32-0.51,1.08-0.6,1.43c-0.02,0.06-0.03,0.12-0.05,0.19
					c-0.26,1.14-0.27,2.1-0.01,3.25c0.19,0.82,0.58,1.52,1.09,2.18c0.26,0.43,0.6,0.78,1.04,1.04c0.19,0.18,0.4,0.33,0.61,0.47
					c0.45,0.29,0.95,0.49,1.46,0.61c1.57,0.35,3.03,0.18,4.47-0.59c1.66-0.88,2.87-2.96,2.78-4.85c0-0.01,0-0.03,0-0.05
					C781.84,486.81,781.89,486.41,781.88,486z"/>
				<path class="st12" d="M720.74,438.23c-4.05-4.41-11-5.33-15.92-1.96c-2.44,1.66-16.27,9.63-5.43,24.88
					c7.16,10.07,21.16,4.12,24.6-6.68C725.71,449.04,724.63,442.48,720.74,438.23z"/>
				<path class="st12" d="M705.47,423.83c-0.28-0.88-0.75-1.67-1.37-2.35c-0.92-1-2.45-1.54-3.77-1.56
					c-0.71-0.01-1.45,0.08-2.13,0.3c-0.51,0.16-1.11,0.42-1.57,0.68c-0.94,0.52-1.62,1.35-2.19,2.23c-0.4,0.61-0.67,1.34-0.89,2.03
					c-0.33,1.05-0.27,2.18-0.03,3.24c0.13,0.6,0.39,1.18,0.73,1.69c0.5,0.85,1.18,1.53,2.04,2.04c0.89,0.51,1.84,0.77,2.86,0.77
					c2.08,0,3.79-1.11,4.9-2.81c0.06-0.1,0.12-0.19,0.18-0.29c0.32-0.54,0.49-1.1,0.61-1.69c0.01-0.01,0.01-0.02,0.02-0.04
					c-0.01,0.06-0.02,0.13-0.03,0.19c0.02-0.09,0.05-0.18,0.07-0.27c0.01-0.02,0.02-0.04,0.03-0.05c0,0-0.01,0-0.01,0
					c0.11-0.2,0.21-0.41,0.28-0.64C705.65,426.25,705.83,424.96,705.47,423.83z"/>
				<path class="st12" d="M732.01,386.69c-1.23-2.91-4.05-5.01-7.3-4.96c-3.2,0.05-6.07,2.3-6.97,5.37c-0.2,0.68-0.3,1.35-0.31,2.02
					c-0.44,1.3-0.54,2.72-0.21,4.03c0.64,2.51,2.77,4.31,5.26,4.81c2.81,0.57,5.94-0.61,7.86-2.71
					C732.48,392.93,733.26,389.64,732.01,386.69z"/>
				<path class="st13" d="M741.44,415.01c-1.27-3.26-5.08-4.84-8.36-5.05c-2.86-0.18-5.41,0.8-7.26,2.45
					c-1.05,0.4-2.04,0.94-2.93,1.76c-2.43,2.25-3.13,5.7-1.57,8.67c3.64,6.93,12.19,4.64,16.97,0.59
					C740.81,421.3,742.75,418.39,741.44,415.01z"/>
				<path class="st13" d="M793.47,409.8c-5.93-3.62-14.73-0.05-15.27,7.17c-0.5,6.55,6.73,11.56,12.22,8.4
					c0.14-0.02,0.29-0.02,0.43-0.05c3.3-0.58,5.9-3.32,6.57-6.58C798.16,415.17,796.58,411.7,793.47,409.8z"/>
				<path class="st13" d="M731.56,470.8c-3.3-3.12-8.38-2.76-11.51,0.4c-3.16,3.2-3.38,8.04-1.31,11.88c0,0.01,0.01,0.02,0.02,0.03
					c0.02,0.11,0.05,0.23,0.08,0.33c1.04,3.8,4.7,6.49,8.66,5.78C735.46,487.79,736.83,475.78,731.56,470.8z"/>
				<path class="st13" d="M801.9,478.16c-2.86,0-5.41,1.78-6.69,4.28c-0.18,0.34-0.32,0.69-0.45,1.05
					c-0.01,0.03-0.02,0.05-0.03,0.08c-0.94,2.68-0.51,5.54,1.32,7.82c0.95,1.18,2.84,1.56,4.38,1.2c2.35,0.53,4.93,0.04,6.88-1.77
					C812.16,486.31,808.24,478.16,801.9,478.16z"/>
				<path class="st13" d="M741.49,399.43c-0.65-1.25-2.3-1.84-3.62-1.47c-2.73,0.76-5.97,3.73-4.14,6.81
					c0.8,1.35,2.04,2.15,3.58,2.36c1.26,0.17,2.51-0.08,3.45-1.02c0.34-0.34,0.57-0.72,0.74-1.12c0.31-0.46,0.53-0.97,0.65-1.49
					C742.47,402.08,742.15,400.68,741.49,399.43z"/>
				<path class="st13" d="M812.6,387.89c-0.99-5.37-8.33-8.41-11.74-3.29c-1.46,2.19-1.33,5.1,0.42,7.09
					c0.66,1.25,1.75,2.27,3.34,2.83C808.99,396.04,813.45,392.51,812.6,387.89z"/>
			</g>
			<g>
				<path class="st10" d="M393.73,614.57c2.64,8.16-2.51,17.43-2.52,25.56c-0.01,8.43,5.01,17.73,2.44,25.57
					c-2.6,7.92-12.18,12.45-17.08,19.19c-4.86,6.67-6.21,17.2-13.03,22.14c-6.59,4.77-16.95,2.83-25.11,5.47
					c-8.16,2.64-15.43,10.27-23.56,10.26c-8.43-0.01-15.68-7.76-23.53-10.33c-7.92-2.6-18.34-0.66-25.08-5.57
					c-6.67-4.86-8.04-15.34-12.98-22.17c-4.77-6.59-14.36-11.1-17-19.26c-2.64-8.16,2.51-17.43,2.52-25.56
					c0.01-8.43-5.01-17.73-2.44-25.57c2.6-7.92,12.18-12.45,17.08-19.19c4.86-6.67,6.21-17.2,13.03-22.14
					c6.59-4.77,16.95-2.83,25.11-5.47c8.16-2.64,15.43-10.27,23.56-10.26c8.43,0.01,15.68,7.76,23.53,10.33
					c7.92,2.6,18.34,0.66,25.08,5.57c6.67,4.86,8.04,15.34,12.98,22.17C381.5,601.9,391.1,606.41,393.73,614.57z"/>
				<g>
					<path class="st11" d="M393.65,655.09c-2.6,7.92-12.18,12.45-17.08,19.19c-4.86,6.67-6.21,17.2-13.03,22.14
						c-6.59,4.77-16.95,2.83-25.11,5.47c-8.16,2.64-15.43,10.27-23.56,10.26c-8.43-0.01-15.68-7.76-23.53-10.33
						c-7.92-2.6-18.34-0.66-25.08-5.57c-6.67-4.86-8.04-15.34-12.98-22.17c-4.77-6.59-14.36-11.1-17-19.26
						c-0.04-0.13-0.06-0.26-0.1-0.39c-0.72,3.75-1.04,7.48,0.1,11c2.64,8.16,12.23,12.67,17,19.26c4.94,6.83,6.31,17.31,12.98,22.17
						c6.74,4.91,17.16,2.97,25.08,5.57c7.84,2.57,15.1,10.32,23.53,10.33c8.13,0.01,15.4-7.62,23.56-10.26
						c8.16-2.64,18.52-0.7,25.11-5.47c6.83-4.94,8.18-15.47,13.03-22.14c4.91-6.74,14.49-11.27,17.08-19.19
						c1.12-3.42,0.8-7.12,0.08-10.9C393.7,654.9,393.68,654.99,393.65,655.09z"/>
				</g>
				<path class="st12" d="M318.92,573.4c-1.78,0.49-17.29,5.86-14.34,20.01c2.95,14.15,15.8,10.42,18.69,11.11
					c6.61,1.6,13.34-2.07,16.14-8.09C345.38,583.58,332.1,569.78,318.92,573.4z"/>
				<path class="st12" d="M371.36,601.59c-3.17-1.68-6.94-1.83-10.08-0.45c-6.33-1.39-13.02,5.3-11.42,12.35
					c1.04,4.56,5.33,9.48,8.99,12.19c4.13,3.05,9.89,4.3,14.57,1.6C383.56,621.45,380.82,606.61,371.36,601.59z"/>
				<path class="st12" d="M368.15,651.25c-5.81-5.74-15.01-0.62-16.53,6.4c-0.58,1.18-0.91,2.49-0.92,3.77
					c-0.02,7.34,8.13,10.82,13.97,6.92C370.27,664.61,373.65,656.69,368.15,651.25z"/>
				<path class="st12" d="M310.45,676.14c-3.89-3.28-10.19-3.63-13.89,0.23c-0.33,0.35-0.63,0.73-0.91,1.14
					c-4.07,0.52-6.72,4.62-6.67,8.57c0.12,8.51,10.73,13.49,18.09,11.33C316.41,694.68,317.4,682,310.45,676.14z"/>
				<path class="st12" d="M331.88,686c-0.04-0.98-0.3-1.92-0.75-2.79c-0.35-0.64-0.82-1.16-1.42-1.55
					c-0.53-0.49-1.16-0.82-1.88-0.99c-0.27-0.1-0.62-0.1-0.88-0.14c-0.97-0.13-0.59-0.13-1.56,0c-0.77,0.1-1.47,0.3-2.16,0.69
					c-0.31,0.18-0.94,0.67-1.2,0.92c-0.4,0.38-0.8,0.9-1.07,1.38c-0.18,0.32-0.51,1.08-0.6,1.43c-0.02,0.06-0.03,0.12-0.05,0.19
					c-0.26,1.14-0.27,2.1-0.01,3.25c0.19,0.82,0.58,1.52,1.09,2.18c0.26,0.43,0.6,0.78,1.04,1.04c0.19,0.18,0.4,0.33,0.61,0.47
					c0.45,0.29,0.95,0.49,1.46,0.61c1.57,0.35,3.03,0.18,4.47-0.59c1.66-0.88,2.87-2.96,2.78-4.85c0-0.01,0-0.03,0-0.05
					C331.84,686.81,331.89,686.41,331.88,686z"/>
				<path class="st12" d="M270.74,638.23c-4.05-4.41-11-5.33-15.92-1.96c-2.44,1.66-16.27,9.63-5.43,24.88
					c7.16,10.07,21.16,4.12,24.6-6.68C275.71,649.04,274.63,642.48,270.74,638.23z"/>
				<path class="st12" d="M255.47,623.83c-0.28-0.88-0.75-1.67-1.37-2.35c-0.92-1-2.45-1.54-3.77-1.56
					c-0.71-0.01-1.45,0.08-2.13,0.3c-0.5,0.16-1.11,0.42-1.57,0.68c-0.94,0.52-1.62,1.35-2.19,2.23c-0.4,0.61-0.67,1.34-0.89,2.03
					c-0.33,1.05-0.27,2.18-0.03,3.24c0.13,0.6,0.39,1.18,0.73,1.69c0.5,0.85,1.18,1.53,2.04,2.04c0.89,0.51,1.84,0.77,2.86,0.77
					c2.08,0,3.79-1.11,4.9-2.81c0.06-0.1,0.12-0.19,0.18-0.29c0.32-0.54,0.49-1.1,0.61-1.69c0.01-0.01,0.01-0.02,0.02-0.04
					c-0.01,0.06-0.02,0.13-0.03,0.19c0.02-0.09,0.05-0.18,0.07-0.27c0.01-0.02,0.02-0.04,0.03-0.05c0,0-0.01,0-0.01,0
					c0.11-0.2,0.21-0.41,0.28-0.64C255.65,626.25,255.83,624.96,255.47,623.83z"/>
				<path class="st12" d="M282.01,586.69c-1.23-2.91-4.05-5.01-7.3-4.96c-3.2,0.05-6.07,2.3-6.97,5.37c-0.2,0.68-0.3,1.35-0.31,2.02
					c-0.44,1.3-0.54,2.72-0.21,4.03c0.64,2.51,2.77,4.31,5.26,4.81c2.81,0.57,5.94-0.61,7.86-2.71
					C282.48,592.93,283.26,589.64,282.01,586.69z"/>
				<path class="st13" d="M291.44,615.01c-1.27-3.26-5.08-4.84-8.36-5.05c-2.86-0.18-5.41,0.8-7.26,2.45
					c-1.05,0.4-2.04,0.94-2.93,1.76c-2.43,2.25-3.13,5.7-1.57,8.67c3.64,6.93,12.19,4.64,16.97,0.59
					C290.81,621.3,292.75,618.39,291.44,615.01z"/>
				<path class="st13" d="M343.47,609.8c-5.93-3.62-14.73-0.05-15.27,7.17c-0.5,6.55,6.73,11.56,12.22,8.4
					c0.14-0.02,0.29-0.02,0.43-0.05c3.3-0.58,5.9-3.32,6.57-6.58C348.16,615.17,346.58,611.7,343.47,609.8z"/>
				<path class="st13" d="M281.56,670.8c-3.3-3.12-8.38-2.76-11.51,0.4c-3.16,3.2-3.38,8.04-1.31,11.88c0,0.01,0.01,0.02,0.02,0.03
					c0.02,0.11,0.05,0.23,0.08,0.33c1.04,3.8,4.7,6.49,8.66,5.78C285.46,687.79,286.83,675.78,281.56,670.8z"/>
				<path class="st13" d="M351.9,678.16c-2.86,0-5.41,1.78-6.69,4.28c-0.18,0.34-0.32,0.69-0.45,1.05
					c-0.01,0.03-0.02,0.05-0.03,0.08c-0.94,2.68-0.51,5.54,1.32,7.82c0.95,1.18,2.84,1.56,4.38,1.2c2.35,0.53,4.93,0.04,6.88-1.77
					C362.16,686.31,358.24,678.16,351.9,678.16z"/>
				<path class="st13" d="M291.49,599.43c-0.65-1.25-2.3-1.84-3.62-1.47c-2.73,0.76-5.97,3.73-4.14,6.81
					c0.8,1.35,2.04,2.15,3.58,2.36c1.26,0.17,2.51-0.08,3.45-1.02c0.34-0.34,0.57-0.72,0.74-1.12c0.31-0.46,0.53-0.97,0.65-1.49
					C292.47,602.08,292.15,600.68,291.49,599.43z"/>
				<path class="st13" d="M362.6,587.89c-0.99-5.37-8.33-8.41-11.74-3.29c-1.46,2.19-1.33,5.1,0.42,7.09
					c0.66,1.25,1.75,2.27,3.34,2.83C358.99,596.04,363.45,592.51,362.6,587.89z"/>
			</g>
			<g>
				<path class="st10" d="M618.73,614.57c2.64,8.16-2.51,17.43-2.52,25.56c-0.01,8.43,5.01,17.73,2.44,25.57
					c-2.6,7.92-12.18,12.45-17.08,19.19c-4.86,6.67-6.21,17.2-13.03,22.14c-6.59,4.77-16.95,2.83-25.11,5.47
					c-8.16,2.64-15.43,10.27-23.56,10.26c-8.43-0.01-15.68-7.76-23.53-10.33c-7.92-2.6-18.34-0.66-25.08-5.57
					c-6.67-4.86-8.04-15.34-12.98-22.17c-4.77-6.59-14.36-11.1-17-19.26c-2.64-8.16,2.51-17.43,2.52-25.56
					c0.01-8.43-5.01-17.73-2.44-25.57c2.6-7.92,12.18-12.45,17.08-19.19c4.86-6.67,6.21-17.2,13.03-22.14
					c6.59-4.77,16.95-2.83,25.11-5.47c8.16-2.64,15.43-10.27,23.56-10.26c8.43,0.01,15.68,7.76,23.53,10.33
					c7.92,2.6,18.34,0.66,25.08,5.57c6.67,4.86,8.04,15.34,12.98,22.17C606.5,601.9,616.1,606.41,618.73,614.57z"/>
				<g>
					<path class="st11" d="M618.65,655.09c-2.6,7.92-12.18,12.45-17.08,19.19c-4.86,6.67-6.21,17.2-13.03,22.14
						c-6.59,4.77-16.95,2.83-25.11,5.47c-8.16,2.64-15.43,10.27-23.56,10.26c-8.43-0.01-15.68-7.76-23.53-10.33
						c-7.92-2.6-18.34-0.66-25.08-5.57c-6.67-4.86-8.04-15.34-12.98-22.17c-4.77-6.59-14.36-11.1-17-19.26
						c-0.04-0.13-0.06-0.26-0.1-0.39c-0.72,3.75-1.04,7.48,0.1,11c2.64,8.16,12.23,12.67,17,19.26c4.94,6.83,6.31,17.31,12.98,22.17
						c6.74,4.91,17.16,2.97,25.08,5.57c7.84,2.57,15.1,10.32,23.53,10.33c8.13,0.01,15.4-7.62,23.56-10.26
						c8.16-2.64,18.52-0.7,25.11-5.47c6.83-4.94,8.18-15.47,13.03-22.14c4.91-6.74,14.49-11.27,17.08-19.19
						c1.12-3.42,0.8-7.12,0.08-10.9C618.7,654.9,618.68,654.99,618.65,655.09z"/>
				</g>
				<path class="st12" d="M543.92,573.4c-1.78,0.49-17.29,5.86-14.34,20.01c2.95,14.15,15.8,10.42,18.69,11.11
					c6.61,1.6,13.34-2.07,16.14-8.09C570.38,583.58,557.1,569.78,543.92,573.4z"/>
				<path class="st12" d="M596.36,601.59c-3.17-1.68-6.94-1.83-10.08-0.45c-6.33-1.39-13.02,5.3-11.42,12.35
					c1.04,4.56,5.33,9.48,8.99,12.19c4.13,3.05,9.89,4.3,14.57,1.6C608.56,621.45,605.82,606.61,596.36,601.59z"/>
				<path class="st12" d="M593.15,651.25c-5.81-5.74-15.01-0.62-16.53,6.4c-0.58,1.18-0.91,2.49-0.92,3.77
					c-0.02,7.34,8.13,10.82,13.97,6.92C595.27,664.61,598.65,656.69,593.15,651.25z"/>
				<path class="st12" d="M535.45,676.14c-3.89-3.28-10.19-3.63-13.89,0.23c-0.33,0.35-0.63,0.73-0.91,1.14
					c-4.07,0.52-6.72,4.62-6.67,8.57c0.12,8.51,10.73,13.49,18.09,11.33C541.41,694.68,542.4,682,535.45,676.14z"/>
				<path class="st12" d="M556.88,686c-0.04-0.98-0.3-1.92-0.76-2.79c-0.35-0.64-0.82-1.16-1.42-1.55
					c-0.53-0.49-1.16-0.82-1.88-0.99c-0.27-0.1-0.62-0.1-0.88-0.14c-0.97-0.13-0.59-0.13-1.56,0c-0.77,0.1-1.47,0.3-2.16,0.69
					c-0.31,0.18-0.94,0.67-1.2,0.92c-0.4,0.38-0.8,0.9-1.07,1.38c-0.18,0.32-0.51,1.08-0.6,1.43c-0.02,0.06-0.03,0.12-0.05,0.19
					c-0.26,1.14-0.27,2.1-0.01,3.25c0.19,0.82,0.58,1.52,1.09,2.18c0.26,0.43,0.6,0.78,1.04,1.04c0.19,0.18,0.4,0.33,0.61,0.47
					c0.45,0.29,0.95,0.49,1.46,0.61c1.57,0.35,3.03,0.18,4.47-0.59c1.66-0.88,2.87-2.96,2.78-4.85c0-0.01,0-0.03,0-0.05
					C556.84,686.81,556.89,686.41,556.88,686z"/>
				<path class="st12" d="M495.74,638.23c-4.05-4.41-11-5.33-15.92-1.96c-2.44,1.66-16.27,9.63-5.43,24.88
					c7.16,10.07,21.16,4.12,24.6-6.68C500.71,649.04,499.63,642.48,495.74,638.23z"/>
				<path class="st12" d="M480.47,623.83c-0.28-0.88-0.75-1.67-1.37-2.35c-0.92-1-2.45-1.54-3.77-1.56
					c-0.71-0.01-1.45,0.08-2.13,0.3c-0.5,0.16-1.11,0.42-1.57,0.68c-0.94,0.52-1.62,1.35-2.19,2.23c-0.4,0.61-0.67,1.34-0.89,2.03
					c-0.33,1.05-0.27,2.18-0.03,3.24c0.13,0.6,0.39,1.18,0.73,1.69c0.5,0.85,1.18,1.53,2.04,2.04c0.89,0.51,1.84,0.77,2.86,0.77
					c2.08,0,3.79-1.11,4.9-2.81c0.06-0.1,0.12-0.19,0.18-0.29c0.32-0.54,0.49-1.1,0.61-1.69c0.01-0.01,0.01-0.02,0.02-0.04
					c-0.01,0.06-0.02,0.13-0.03,0.19c0.02-0.09,0.05-0.18,0.07-0.27c0.01-0.02,0.02-0.04,0.03-0.05c0,0-0.01,0-0.01,0
					c0.11-0.2,0.21-0.41,0.28-0.64C480.65,626.25,480.83,624.96,480.47,623.83z"/>
				<path class="st12" d="M507.01,586.69c-1.23-2.91-4.05-5.01-7.3-4.96c-3.2,0.05-6.07,2.3-6.97,5.37c-0.2,0.68-0.3,1.35-0.31,2.02
					c-0.44,1.3-0.54,2.72-0.21,4.03c0.64,2.51,2.77,4.31,5.26,4.81c2.81,0.57,5.94-0.61,7.86-2.71
					C507.48,592.93,508.26,589.64,507.01,586.69z"/>
				<path class="st13" d="M516.44,615.01c-1.27-3.26-5.08-4.84-8.36-5.05c-2.86-0.18-5.41,0.8-7.26,2.45
					c-1.05,0.4-2.04,0.94-2.93,1.76c-2.43,2.25-3.13,5.7-1.57,8.67c3.64,6.93,12.19,4.64,16.97,0.59
					C515.81,621.3,517.75,618.39,516.44,615.01z"/>
				<path class="st13" d="M568.47,609.8c-5.93-3.62-14.73-0.05-15.27,7.17c-0.5,6.55,6.73,11.56,12.22,8.4
					c0.14-0.02,0.29-0.02,0.43-0.05c3.3-0.58,5.9-3.32,6.57-6.58C573.16,615.17,571.58,611.7,568.47,609.8z"/>
				<path class="st13" d="M506.56,670.8c-3.3-3.12-8.38-2.76-11.51,0.4c-3.16,3.2-3.38,8.04-1.31,11.88c0,0.01,0.01,0.02,0.02,0.03
					c0.02,0.11,0.05,0.23,0.08,0.33c1.04,3.8,4.7,6.49,8.66,5.78C510.46,687.79,511.83,675.78,506.56,670.8z"/>
				<path class="st13" d="M576.9,678.16c-2.86,0-5.41,1.78-6.69,4.28c-0.18,0.34-0.32,0.69-0.45,1.05
					c-0.01,0.03-0.02,0.05-0.03,0.08c-0.94,2.68-0.51,5.54,1.32,7.82c0.95,1.18,2.84,1.56,4.38,1.2c2.35,0.53,4.93,0.04,6.88-1.77
					C587.16,686.31,583.24,678.16,576.9,678.16z"/>
				<path class="st13" d="M516.49,599.43c-0.65-1.25-2.3-1.84-3.62-1.47c-2.73,0.76-5.97,3.73-4.14,6.81
					c0.8,1.35,2.04,2.15,3.58,2.36c1.26,0.17,2.51-0.08,3.45-1.02c0.34-0.34,0.57-0.72,0.74-1.12c0.31-0.46,0.53-0.97,0.65-1.49
					C517.47,602.08,517.15,600.68,516.49,599.43z"/>
				<path class="st13" d="M587.6,587.89c-0.99-5.37-8.33-8.41-11.74-3.29c-1.46,2.19-1.33,5.1,0.42,7.09
					c0.66,1.25,1.75,2.27,3.34,2.83C583.99,596.04,588.45,592.51,587.6,587.89z"/>
			</g>
			<g>
				<path class="st10" d="M843.73,614.57c2.64,8.16-2.51,17.43-2.52,25.56c-0.01,8.43,5.01,17.73,2.44,25.57
					c-2.6,7.92-12.18,12.45-17.08,19.19c-4.86,6.67-6.21,17.2-13.03,22.14c-6.59,4.77-16.95,2.83-25.11,5.47
					c-8.16,2.64-15.43,10.27-23.56,10.26c-8.43-0.01-15.68-7.76-23.53-10.33c-7.92-2.6-18.34-0.66-25.08-5.57
					c-6.67-4.86-8.04-15.34-12.98-22.17c-4.77-6.59-14.36-11.1-17-19.26c-2.64-8.16,2.51-17.43,2.52-25.56
					c0.01-8.43-5.01-17.73-2.44-25.57c2.6-7.92,12.18-12.45,17.08-19.19c4.86-6.67,6.21-17.2,13.03-22.14
					c6.59-4.77,16.95-2.83,25.11-5.47c8.16-2.64,15.43-10.27,23.56-10.26c8.43,0.01,15.68,7.76,23.53,10.33
					c7.92,2.6,18.34,0.66,25.08,5.57c6.67,4.86,8.04,15.34,12.98,22.17C831.5,601.9,841.1,606.41,843.73,614.57z"/>
				<g>
					<path class="st11" d="M843.65,655.09c-2.6,7.92-12.18,12.45-17.08,19.19c-4.86,6.67-6.21,17.2-13.03,22.14
						c-6.59,4.77-16.95,2.83-25.11,5.47c-8.16,2.64-15.43,10.27-23.56,10.26c-8.43-0.01-15.68-7.76-23.53-10.33
						c-7.92-2.6-18.34-0.66-25.08-5.57c-6.67-4.86-8.04-15.34-12.98-22.17c-4.77-6.59-14.36-11.1-17-19.26
						c-0.04-0.13-0.06-0.26-0.1-0.39c-0.72,3.75-1.04,7.48,0.1,11c2.64,8.16,12.23,12.67,17,19.26c4.94,6.83,6.31,17.31,12.98,22.17
						c6.74,4.91,17.16,2.97,25.08,5.57c7.84,2.57,15.1,10.32,23.53,10.33c8.13,0.01,15.4-7.62,23.56-10.26
						c8.16-2.64,18.52-0.7,25.11-5.47c6.83-4.94,8.18-15.47,13.03-22.14c4.91-6.74,14.49-11.27,17.08-19.19
						c1.12-3.42,0.8-7.12,0.08-10.9C843.7,654.9,843.68,654.99,843.65,655.09z"/>
				</g>
				<path class="st12" d="M768.92,573.4c-1.78,0.49-17.29,5.86-14.34,20.01c2.95,14.15,15.8,10.42,18.69,11.11
					c6.61,1.6,13.34-2.07,16.14-8.09C795.38,583.58,782.1,569.78,768.92,573.4z"/>
				<path class="st12" d="M821.36,601.59c-3.17-1.68-6.94-1.83-10.08-0.45c-6.33-1.39-13.02,5.3-11.42,12.35
					c1.04,4.56,5.33,9.48,8.99,12.19c4.13,3.05,9.89,4.3,14.57,1.6C833.56,621.45,830.82,606.61,821.36,601.59z"/>
				<path class="st12" d="M818.15,651.25c-5.81-5.74-15.01-0.62-16.53,6.4c-0.58,1.18-0.91,2.49-0.92,3.77
					c-0.02,7.34,8.13,10.82,13.97,6.92C820.27,664.61,823.65,656.69,818.15,651.25z"/>
				<path class="st12" d="M760.45,676.14c-3.89-3.28-10.19-3.63-13.89,0.23c-0.33,0.35-0.63,0.73-0.91,1.14
					c-4.07,0.52-6.72,4.62-6.67,8.57c0.12,8.51,10.73,13.49,18.09,11.33C766.41,694.68,767.4,682,760.45,676.14z"/>
				<path class="st12" d="M781.88,686c-0.04-0.98-0.3-1.92-0.76-2.79c-0.35-0.64-0.82-1.16-1.42-1.55
					c-0.53-0.49-1.16-0.82-1.88-0.99c-0.27-0.1-0.62-0.1-0.88-0.14c-0.97-0.13-0.59-0.13-1.56,0c-0.77,0.1-1.47,0.3-2.16,0.69
					c-0.31,0.18-0.94,0.67-1.2,0.92c-0.4,0.38-0.8,0.9-1.07,1.38c-0.18,0.32-0.51,1.08-0.6,1.43c-0.02,0.06-0.03,0.12-0.05,0.19
					c-0.26,1.14-0.27,2.1-0.01,3.25c0.19,0.82,0.58,1.52,1.09,2.18c0.26,0.43,0.6,0.78,1.04,1.04c0.19,0.18,0.4,0.33,0.61,0.47
					c0.45,0.29,0.95,0.49,1.46,0.61c1.57,0.35,3.03,0.18,4.47-0.59c1.66-0.88,2.87-2.96,2.78-4.85c0-0.01,0-0.03,0-0.05
					C781.84,686.81,781.89,686.41,781.88,686z"/>
				<path class="st12" d="M720.74,638.23c-4.05-4.41-11-5.33-15.92-1.96c-2.44,1.66-16.27,9.63-5.43,24.88
					c7.16,10.07,21.16,4.12,24.6-6.68C725.71,649.04,724.63,642.48,720.74,638.23z"/>
				<path class="st12" d="M705.47,623.83c-0.28-0.88-0.75-1.67-1.37-2.35c-0.92-1-2.45-1.54-3.77-1.56
					c-0.71-0.01-1.45,0.08-2.13,0.3c-0.51,0.16-1.11,0.42-1.57,0.68c-0.94,0.52-1.62,1.35-2.19,2.23c-0.4,0.61-0.67,1.34-0.89,2.03
					c-0.33,1.05-0.27,2.18-0.03,3.24c0.13,0.6,0.39,1.18,0.73,1.69c0.5,0.85,1.18,1.53,2.04,2.04c0.89,0.51,1.84,0.77,2.86,0.77
					c2.08,0,3.79-1.11,4.9-2.81c0.06-0.1,0.12-0.19,0.18-0.29c0.32-0.54,0.49-1.1,0.61-1.69c0.01-0.01,0.01-0.02,0.02-0.04
					c-0.01,0.06-0.02,0.13-0.03,0.19c0.02-0.09,0.05-0.18,0.07-0.27c0.01-0.02,0.02-0.04,0.03-0.05c0,0-0.01,0-0.01,0
					c0.11-0.2,0.21-0.41,0.28-0.64C705.65,626.25,705.83,624.96,705.47,623.83z"/>
				<path class="st12" d="M732.01,586.69c-1.23-2.91-4.05-5.01-7.3-4.96c-3.2,0.05-6.07,2.3-6.97,5.37c-0.2,0.68-0.3,1.35-0.31,2.02
					c-0.44,1.3-0.54,2.72-0.21,4.03c0.64,2.51,2.77,4.31,5.26,4.81c2.81,0.57,5.94-0.61,7.86-2.71
					C732.48,592.93,733.26,589.64,732.01,586.69z"/>
				<path class="st13" d="M741.44,615.01c-1.27-3.26-5.08-4.84-8.36-5.05c-2.86-0.18-5.41,0.8-7.26,2.45
					c-1.05,0.4-2.04,0.94-2.93,1.76c-2.43,2.25-3.13,5.7-1.57,8.67c3.64,6.93,12.19,4.64,16.97,0.59
					C740.81,621.3,742.75,618.39,741.44,615.01z"/>
				<path class="st13" d="M793.47,609.8c-5.93-3.62-14.73-0.05-15.27,7.17c-0.5,6.55,6.73,11.56,12.22,8.4
					c0.14-0.02,0.29-0.02,0.43-0.05c3.3-0.58,5.9-3.32,6.57-6.58C798.16,615.17,796.58,611.7,793.47,609.8z"/>
				<path class="st13" d="M731.56,670.8c-3.3-3.12-8.38-2.76-11.51,0.4c-3.16,3.2-3.38,8.04-1.31,11.88c0,0.01,0.01,0.02,0.02,0.03
					c0.02,0.11,0.05,0.23,0.08,0.33c1.04,3.8,4.7,6.49,8.66,5.78C735.46,687.79,736.83,675.78,731.56,670.8z"/>
				<path class="st13" d="M801.9,678.16c-2.86,0-5.41,1.78-6.69,4.28c-0.18,0.34-0.32,0.69-0.45,1.05
					c-0.01,0.03-0.02,0.05-0.03,0.08c-0.94,2.68-0.51,5.54,1.32,7.82c0.95,1.18,2.84,1.56,4.38,1.2c2.35,0.53,4.93,0.04,6.88-1.77
					C812.16,686.31,808.24,678.16,801.9,678.16z"/>
				<path class="st13" d="M741.49,599.43c-0.65-1.25-2.3-1.84-3.62-1.47c-2.73,0.76-5.97,3.73-4.14,6.81
					c0.8,1.35,2.04,2.15,3.58,2.36c1.26,0.17,2.51-0.08,3.45-1.02c0.34-0.34,0.57-0.72,0.74-1.12c0.31-0.46,0.53-0.97,0.65-1.49
					C742.47,602.08,742.15,600.68,741.49,599.43z"/>
				<path class="st13" d="M812.6,587.89c-0.99-5.37-8.33-8.41-11.74-3.29c-1.46,2.19-1.33,5.1,0.42,7.09
					c0.66,1.25,1.75,2.27,3.34,2.83C808.99,596.04,813.45,592.51,812.6,587.89z"/>
			</g>
		</g>
	</g>
</g>
<g id="allmix" class="st8">
	<g class="st9">
		<path class="st5" d="M722.07,541.12c-25.34,97.57-82.9,159.4-206.79,169.6c-83.87,28.65-172.43-108.95-119.19-162.84
			c-9.98-134.17,47.08-176.3,147.82-163.48C640.56,333.03,683.16,466.53,722.07,541.12z"/>
	</g>
	<path class="st14" d="M449.51,494.72c-12.55,34.76-9.5,74.84,8.17,107.3"/>
	<path class="st14" d="M528.92,459.54c15.24,3.94,30.16,9.97,42.61,19.61c12.45,9.64,22.3,23.15,25.59,38.55"/>
	<path class="st14" d="M518.7,601.92c2.4,6.42,8.31,11.03,14.7,13.48c6.4,2.46,13.33,3.05,20.17,3.61
		c32.76,2.69,68.19,4.47,95.85-13.29"/>
	<path class="st14" d="M620.28,467.21c12.17,24.37,17.5,52.11,15.24,79.26"/>
</g>
</svg>
