<?xml version="1.0" encoding="utf-8"?>
<!-- Generator: Adobe Illustrator 24.3.0, SVG Export Plug-In . SVG Version: 6.00 Build 0)  -->
<svg version="1.1" xmlns="http://www.w3.org/2000/svg" xmlns:xlink="http://www.w3.org/1999/xlink" x="0px" y="0px" width="1080px"
	 height="1080px" viewBox="0 0 1080 1080" style="enable-background:new 0 0 1080 1080;" xml:space="preserve">
<style type="text/css">
	.st0{fill:#FFED7D;}
	.st1{fill:#7DAF9A;}
	.st2{display:none;}
	.st3{fill:#EE8186;}
	.st4{display:inline;fill:#FAD3D5;}
	.st5{fill:#548899;}
	.st6{fill:#92BDE3;stroke:#548899;stroke-width:7;stroke-miterlimit:10;}
	.st7{fill:#9ED4C8;}
	.st8{fill:#FFFFFF;}
	.st9{fill:#C19A7C;}
	.st10{opacity:0.5;}
	.st11{fill:#F6E9A0;}
	.st12{opacity:0.7;}
	.st13{fill:#F6B65E;}
	.st14{fill:#DC8349;}
	.st15{fill:#A0563E;}
	.st16{display:inline;}
	.st17{display:inline;fill:none;stroke:#C19A7C;stroke-width:7;stroke-miterlimit:10;}
</style>
<g id="bg">
	<g>
		<rect x="0" class="st0" width="1080" height="1080"/>
	</g>
	<g>
		<g>
			<g>
				<path class="st1" d="M95.69,223.02c16.54-51.93,44.82-99.91,83.14-138.72c5.29-5.36,10.77-10.54,16.41-15.53
					c5.82-5.15,12.24-9.59,18.03-14.75c1.65-1.48,0.64-7.75-1.91-6.06c-11.17,7.44-21.27,17.66-30.76,27.1
					c-9.7,9.65-18.76,19.89-27.21,30.65c-17.19,21.9-31.83,45.69-43.43,71.01c-6.61,14.43-11.77,29.58-16.03,44.85
					C93.58,222.85,95.08,224.91,95.69,223.02z"/>
			</g>
		</g>
		<g>
			<g>
				<path class="st1" d="M193.08,91.52c1.45,12.11,5.93,23.31,12.62,33.45c0.8,1.21,2.46,1.22,3.17-0.11
					c10.82-20.3,8.93-47.59-6.94-64.82c-0.42-0.45-0.8-0.57-1.13-0.47c-0.48-0.12-0.98-0.01-1.44,0.51
					C191.94,68.56,191.81,80.89,193.08,91.52z"/>
			</g>
		</g>
		<g>
			<g>
				<path class="st1" d="M163.07,123.33c1.02,9.9,3.89,20.7,11.86,27.3c0.93,0.77,1.87,0.24,2.48-0.58
					c7.18-9.63,8.6-22.06,7.23-33.7c-1.12-9.5-3.78-21.82-13.32-26.16c-0.74-0.76-1.76-0.92-2.76,0.37
					c-3.22,4.14-4.26,11.24-5.04,16.32C162.68,112.3,162.51,117.87,163.07,123.33z"/>
			</g>
		</g>
		<g>
			<g>
				<g>
					<path class="st1" d="M154.65,182.6c1.26,1.71,3.24,1.19,3.91-0.77c3.33-9.77,3.8-20.19,1.36-30.22
						c-1.13-4.64-2.79-9.09-5.07-13.3c-2.11-3.89-4.67-8.31-8.73-10.36c-0.1-0.23-0.2-0.46-0.3-0.69c-1.3-2.94-4.5-2.11-4.87,0.98
						C138.66,147.32,143.16,167.04,154.65,182.6z M146.2,143.3c-0.12,0.07-0.24,0.15-0.36,0.24c-0.04-0.48-0.07-0.96-0.1-1.43
						C145.89,142.51,146.05,142.91,146.2,143.3z"/>
				</g>
			</g>
		</g>
		<g>
			<g>
				<path class="st1" d="M120.92,162.97c0.21,0.22,0.42,0.44,0.62,0.66c-0.1,0.55-0.14,1.07-0.09,1.46
					c1.71,12.99,6.49,25.32,14.14,35.97c1.34,1.87,3.35,0.3,3.49-1.55c0.59-7.72-0.32-15.33-3.22-22.55
					c-1.39-3.47-3.22-6.76-5.46-9.75c-1.35-1.8-2.74-3.25-4.29-4.56c-0.27-0.41-0.54-0.82-0.81-1.23c-0.78-1.16-1.5-1.33-2.11-0.96
					c-0.38-0.25-0.76-0.5-1.16-0.75C120.2,158.56,119.97,161.99,120.92,162.97z"/>
			</g>
		</g>
		<g>
			<g>
				<path class="st1" d="M119.21,227.49c1.39,1.46,2.97-0.82,3.06-2.04c1.04-14.62-2.59-30.67-12.79-41.63
					c-0.65-0.7-1.14-0.49-1.46,0.1c-1.21,0.14-2.26,1.22-2.37,3.13C104.8,201.83,108.86,216.61,119.21,227.49z"/>
			</g>
		</g>
		<g>
			<g>
				<path class="st1" d="M91.38,255.54c1.03,2.57,3.34,2.01,4.33-0.15c4.51-9.82,5.27-21.6,1.32-31.74
					c0.03-0.66,0.06-1.31,0.09-1.96c0.12-2.64-2.74-5.72-4.76-2.77C84.89,229.82,86.71,243.89,91.38,255.54z"/>
			</g>
		</g>
		<g>
			<g>
				<path class="st1" d="M70.9,205.13c7.38-0.2,14.64-1.8,21.32-4.98c3.63-1.73,8-4.06,11.34-7.09c0.79-0.26,1.58-0.51,2.37-0.77
					c1.59-0.52,2.23-2.91,1.97-5.04c0.27-0.94-0.11-2.46-1.06-2.69c-0.33-0.38-0.73-0.66-1.21-0.76
					c-14.18-3.08-28.65,2.86-36.71,14.92C67.78,200.43,68.09,205.2,70.9,205.13z"/>
			</g>
		</g>
		<g>
			<g>
				<path class="st1" d="M68.86,165.24c14.22,8.48,35.75,3.25,49.31-3.48c1.61-0.8,1.67-3.99-0.48-4.01
					c-0.34-1.24-1.2-2.35-2.45-2.68c-15.79-4.18-33-2.47-46.63,4.67C66.44,160.88,67.01,164.14,68.86,165.24z"/>
			</g>
		</g>
		<g>
			<g>
				<path class="st1" d="M86.12,130.07c13.76,7.08,33.58,11.19,47.26,2.47c0.91-0.2,1.82-0.4,2.73-0.62
					c1.6-0.39,2.49-2.06,2.61-3.81c0.5-0.53,0.98-1.08,1.45-1.66c0.86-1.07,0.37-4.73-1.4-3.3c-0.47,0.38-0.95,0.75-1.43,1.11
					c-0.24-0.2-0.49-0.37-0.79-0.49c-16.33-6.55-35.99-13.12-51.25-0.52C83.35,124.85,83.97,128.96,86.12,130.07z"/>
			</g>
		</g>
		<g>
			<g>
				<path class="st1" d="M114.8,87.43c16.55,6.93,35.82,13.8,51.61,4.33c1.02-0.07,2.03-0.15,3.05-0.27
					c2.02-0.22,2.84-2.21,2.86-4.24c0.09-0.08,0.18-0.16,0.27-0.24c0.93-0.89,0.36-3.8-1.02-3.1c-0.07-0.14-0.15-0.27-0.24-0.38
					c-6.32-8.82-16.21-12.82-26.92-11.79c-10.26,0.99-21.84,3.32-30.39,9.3C112.17,82.32,112.78,86.58,114.8,87.43z"/>
			</g>
		</g>
	</g>
	<g>
		<g>
			<g>
				<path class="st1" d="M928.42,932.89c0.43-0.26,0.84-0.45,1.18-0.53c0.61-0.14,1.23-0.28,1.86-0.41
					c0.12-0.08,0.25-0.15,0.37-0.23c3.81-5.06,7.54-10.15,11.22-15.25c4.88-6.76,9.56-13.63,14.12-20.58
					c-1.62-1.44,1.5-4.57,3.15-4.98c0.03-0.01,0.06-0.01,0.1-0.02c7.22-11.25,14.07-22.73,20.66-34.41
					c-0.78,0.28-1.47,0.24-2.01-0.03c-0.52,0.17-1.03,0.24-1.48,0.18c-4.47,7.33-9.09,14.59-13.84,21.76
					c-0.84,4.71-2.44,9.27-4.76,13.03c-0.7,1.14-4.15,2.66-4.86,1.18c-5,7.21-10.11,14.35-15.31,21.39
					c-2.44,3.31-4.93,6.56-7.44,9.8C930.9,927.01,930.11,930.28,928.42,932.89z"/>
			</g>
		</g>
		<g>
			<g>
				<path class="st1" d="M926.79,938.33c-0.1-0.06-0.19-0.1-0.29-0.16c-0.86-0.53-1.07-1.24-0.91-1.98
					c-0.99,0.56-2.11,0.75-2.85,0.17c-0.27-0.21-0.53-0.45-0.8-0.67c-10.03,12.34-20.43,24.35-30.88,36.42
					c-3.46,3.99,1.69,6.05,4.65,2.92C906.69,963.45,916.98,951.05,926.79,938.33z"/>
			</g>
		</g>
		<g>
			<g>
				<path class="st1" d="M981.08,856.48c0.47-0.17,0.97-0.45,1.5-0.88c6.97-5.74,12.69-12.56,16.92-20.55
					c1.96-3.7,3.6-7.57,4.8-11.58c1.05-3.49,2.72-7.89,1.03-11.36c-0.53-1.09-2.14-0.3-2.97,0.42c-7.46,2.22-14.22,10.24-18.27,16.3
					c-5.15,7.71-7.88,16.83-7.87,26.09c0,1.09,0.58,1.6,1.37,1.71c0.45,0.06,0.97-0.01,1.48-0.18
					C979.6,856.72,980.29,856.76,981.08,856.48z"/>
			</g>
		</g>
		<g>
			<g>
				<path class="st1" d="M958.98,891.42c2.32-3.76,3.92-8.32,4.76-13.03c0.88-4.92,0.93-10.01,0.09-14.52
					c-0.85-4.54-2.64-8.89-4.75-12.98c-1.66-3.21-3.48-8.2-7.51-8.44c-0.42-0.03-0.95,0.38-1.09,0.77c0,0,0,0.01,0,0.01
					c-1.06,0.23-2.4,1.26-2.61,2.15c-3.81,15.79-2.46,30.77,4.91,45.37c0.28,0.56,0.71,0.9,1.23,1.06c-0.02,0.33,0.02,0.59,0.12,0.8
					C954.84,894.08,958.28,892.56,958.98,891.42z"/>
			</g>
		</g>
		<g>
			<g>
				<path class="st1" d="M957.17,895.88c0.23,0.2,0.55,0.37,0.98,0.5c13.75,3.89,27.69,1.41,39.9-5.68c0.96-0.56,2.35-2.7,0.89-3.55
					c-11.28-6.58-25.33-3.21-36.21,3.22c-0.77,0.16-1.54,0.32-2.32,0.51c-0.03,0.01-0.06,0.01-0.1,0.02
					C958.67,891.31,955.55,894.45,957.17,895.88z"/>
			</g>
		</g>
		<g>
			<g>
				<path class="st1" d="M925.59,936.19c-0.17,0.74,0.04,1.45,0.91,1.98c0.09,0.06,0.19,0.11,0.29,0.16
					c11.56,6.96,26.2,5.95,37.27-1.5c1.33-0.89,3.16-3.53,1.22-4.83c-10.36-6.91-23.26-6.65-33.44-0.28
					c-0.12,0.08-0.25,0.15-0.37,0.23c-0.63,0.13-1.25,0.27-1.86,0.41c-0.34,0.08-0.75,0.27-1.18,0.53c1.69-2.6,2.48-5.88,2.96-9.1
					c0.23-1.52,0.38-3.04,0.53-4.47c0.49-4.87,0.48-9.77-0.14-14.63c-0.65-5.09-1.98-10.09-3.93-14.83
					c-1.56-3.8-3.66-9.37-7.36-11.47c-0.48-0.27-1.08-0.24-1.64-0.03c-0.72,0.04-1.67,0.47-2.01,0.95
					c-10.97,15.5-9.91,43.62,5.11,56.38c0.26,0.22,0.52,0.46,0.8,0.67C923.48,936.93,924.6,936.74,925.59,936.19z"/>
			</g>
		</g>
	</g>
</g>
<g id="main_shelf" class="st2">
</g>
<g id="hover">
	<g>
		<path class="st3" d="M319.36,191.93c0.42-0.75,0.84-1.28,1.28-1.59s0.99-0.47,1.66-0.47c1.02,0,1.74,0.27,2.17,0.81
			c0.43,0.54,0.64,1.47,0.64,2.78l0.06,8.12c0,1.44-0.23,2.41-0.7,2.91s-1.32,0.75-2.55,0.75c-0.88,0-1.55-0.21-2.02-0.63
			s-0.87-1.19-1.2-2.32c-0.54-1.99-1.41-3.41-2.59-4.28c-1.19-0.87-2.83-1.3-4.94-1.3c-3.21,0-5.67,1.08-7.38,3.25
			c-1.71,2.17-2.56,5.31-2.56,9.42c0,4.09,0.86,7.23,2.59,9.42c1.73,2.19,4.2,3.29,7.41,3.29c2.19,0,4.6-0.73,7.23-2.19
			c2.64-1.46,4.3-2.19,4.98-2.19c0.81,0,1.49,0.34,2.05,1.03c0.55,0.69,0.83,1.54,0.83,2.56c0,1.83-1.61,3.56-4.84,5.19
			c-3.23,1.62-6.86,2.44-10.91,2.44c-5.46,0-9.88-1.8-13.25-5.41c-3.38-3.6-5.06-8.31-5.06-14.12c0-5.6,1.71-10.26,5.12-13.97
			c3.42-3.71,7.75-5.56,13-5.56c1.48,0,2.94,0.17,4.38,0.5C316.2,190.71,317.73,191.23,319.36,191.93z"/>
		<path class="st3" d="M351.8,221.12h6.72c1.44,0,2.45,0.26,3.03,0.78c0.58,0.52,0.88,1.39,0.88,2.59c0,1.23-0.3,2.11-0.89,2.66
			c-0.59,0.54-1.6,0.81-3.02,0.81h-21.19c-1.4,0-2.39-0.27-2.98-0.81c-0.59-0.54-0.89-1.43-0.89-2.66c0-1.23,0.29-2.1,0.86-2.61
			c0.57-0.51,1.58-0.77,3.02-0.77h6.72V194h-3.44c-1.42,0-2.43-0.28-3.05-0.83c-0.61-0.55-0.92-1.43-0.92-2.64
			c0-1.23,0.3-2.11,0.91-2.66c0.6-0.54,1.62-0.81,3.06-0.81h9.34c0.58,0,1.04,0.12,1.36,0.36c0.32,0.24,0.48,0.57,0.48,0.98V221.12z
			"/>
		<path class="st3" d="M390.73,221.12h6.72c1.44,0,2.46,0.26,3.06,0.78c0.6,0.52,0.91,1.39,0.91,2.59c0,1.23-0.31,2.11-0.92,2.66
			c-0.61,0.54-1.63,0.81-3.05,0.81h-21.12c-1.42,0-2.43-0.27-3.05-0.81c-0.61-0.54-0.92-1.43-0.92-2.66c0-1.21,0.3-2.07,0.89-2.59
			c0.59-0.52,1.62-0.78,3.08-0.78h6.72v-15.19h-3.53c-1.4,0-2.4-0.27-3-0.8c-0.6-0.53-0.91-1.41-0.91-2.64
			c0-1.23,0.29-2.1,0.88-2.62c0.58-0.52,1.59-0.78,3.03-0.78h9.41c0.58,0,1.03,0.12,1.34,0.36c0.31,0.24,0.47,0.57,0.47,0.98V221.12
			z M386.23,184.97c1.52,0,2.53,0.29,3.03,0.88c0.5,0.58,0.75,1.98,0.75,4.19c0,2.12-0.22,3.44-0.67,3.95
			c-0.45,0.51-1.51,0.77-3.17,0.77c-1.62,0-2.67-0.24-3.14-0.72c-0.47-0.48-0.7-1.44-0.7-2.88c0-2.67,0.24-4.36,0.72-5.09
			C383.53,185.33,384.59,184.97,386.23,184.97z"/>
		<path class="st3" d="M434.05,200.78c0.25-0.81,0.64-1.42,1.17-1.83s1.21-0.61,2.05-0.61c1.12,0,1.93,0.34,2.41,1.02
			c0.48,0.68,0.72,1.85,0.72,3.52V208c0,1.27-0.26,2.21-0.78,2.81c-0.52,0.6-1.32,0.91-2.41,0.91c-0.77,0-1.42-0.18-1.94-0.53
			c-0.52-0.35-1.07-1.03-1.66-2.03c-0.83-1.42-1.93-2.46-3.28-3.14c-1.35-0.68-3.01-1.02-4.97-1.02c-2.44,0-4.43,0.8-5.98,2.39
			c-1.55,1.59-2.33,3.63-2.33,6.11c0,2.6,0.8,4.7,2.41,6.28c1.6,1.58,3.76,2.38,6.47,2.38c2.46,0,4.9-0.68,7.33-2.05
			c2.43-1.36,3.91-2.05,4.45-2.05c0.77,0,1.41,0.3,1.92,0.89c0.51,0.59,0.77,1.34,0.77,2.23c0,1.96-1.48,3.71-4.45,5.25
			s-6.5,2.31-10.58,2.31c-5.04,0-9.14-1.42-12.3-4.25c-3.16-2.83-4.73-6.48-4.73-10.94c0-4.35,1.56-7.98,4.69-10.88
			c3.12-2.9,7.06-4.34,11.81-4.34c1.6,0,3.17,0.2,4.69,0.59C431.04,199.33,432.55,199.95,434.05,200.78z"/>
		<path class="st3" d="M458.2,211l6.59-5.94c-0.65-0.21-1.09-0.49-1.33-0.84c-0.24-0.35-0.36-0.91-0.36-1.66
			c0-1.27,0.28-2.17,0.84-2.69c0.56-0.52,1.56-0.78,3-0.78h6.91c1.42,0,2.42,0.26,3.02,0.78c0.59,0.52,0.89,1.4,0.89,2.62
			c0,0.92-0.17,1.58-0.52,2c-0.34,0.42-1.05,0.73-2.11,0.94c-0.98,0.19-1.85,0.5-2.61,0.94c-0.76,0.44-1.64,1.17-2.64,2.19
			l-2.22,2.31l8.25,10.25h0.78c1.21,0,2.11,0.28,2.72,0.84c0.6,0.56,0.91,1.41,0.91,2.53c0,1.23-0.3,2.11-0.91,2.66
			c-0.6,0.54-1.62,0.81-3.06,0.81h-7.66c-1.35,0-2.33-0.23-2.94-0.69c-0.6-0.46-0.91-1.19-0.91-2.19c0-0.75,0.18-1.35,0.53-1.8
			c0.35-0.45,0.94-0.83,1.75-1.14l-5.09-6.22l-3.84,3.53v6.44c0,0.79-0.14,1.33-0.41,1.62c-0.27,0.29-0.76,0.44-1.47,0.44h-5.62
			c-1.38,0-2.36-0.27-2.95-0.81c-0.59-0.54-0.89-1.43-0.89-2.66c0-1.1,0.28-1.94,0.84-2.52c0.56-0.57,1.4-0.86,2.5-0.86h0.5V194
			h-0.5c-1.1,0-1.95-0.3-2.53-0.91c-0.58-0.6-0.88-1.46-0.88-2.56c0-1.21,0.3-2.09,0.91-2.64c0.6-0.55,1.6-0.83,3-0.83h5.62
			c0.71,0,1.2,0.15,1.47,0.44c0.27,0.29,0.41,0.83,0.41,1.62V211z"/>
		<path class="st3" d="M537.83,200.84h9.53c1.44,0,2.46,0.26,3.06,0.78c0.6,0.52,0.91,1.39,0.91,2.59c0,1.23-0.31,2.11-0.92,2.66
			c-0.61,0.54-1.63,0.81-3.05,0.81h-9.53v8c0,2.25,0.34,3.79,1.03,4.62c0.69,0.83,1.9,1.25,3.62,1.25c1.62,0,3.54-0.47,5.75-1.41
			s3.69-1.41,4.44-1.41c0.85,0,1.59,0.34,2.2,1.02c0.61,0.68,0.92,1.5,0.92,2.45c0,1.6-1.45,3.07-4.36,4.39
			c-2.91,1.32-6.2,1.98-9.89,1.98c-2.15,0-4.03-0.29-5.66-0.88s-2.91-1.42-3.84-2.5c-0.69-0.83-1.18-1.83-1.47-3
			c-0.29-1.17-0.44-3.11-0.44-5.84v-0.69v-8h-2.94c-1.42,0-2.42-0.27-3.02-0.81c-0.59-0.54-0.89-1.43-0.89-2.66
			c0-1.23,0.29-2.1,0.88-2.61c0.58-0.51,1.59-0.77,3.03-0.77h2.94v-7.31c0-1.44,0.3-2.45,0.89-3.03c0.59-0.58,1.58-0.88,2.95-0.88
			s2.36,0.29,2.95,0.88c0.59,0.58,0.89,1.59,0.89,3.03V200.84z"/>
		<path class="st3" d="M578.39,198.4c5.06,0,9.17,1.42,12.31,4.25c3.15,2.83,4.72,6.47,4.72,10.91c0,4.46-1.57,8.1-4.72,10.94
			c-3.15,2.83-7.25,4.25-12.31,4.25c-5.04,0-9.14-1.42-12.28-4.25c-3.15-2.83-4.72-6.48-4.72-10.94c0-4.44,1.58-8.07,4.73-10.91
			C569.28,199.82,573.37,198.4,578.39,198.4z M578.39,205c-2.44,0-4.44,0.8-6.02,2.39s-2.36,3.63-2.36,6.11
			c0,2.5,0.79,4.57,2.36,6.2c1.57,1.64,3.58,2.45,6.02,2.45s4.45-0.82,6.03-2.45c1.58-1.64,2.38-3.7,2.38-6.2
			c0-2.48-0.79-4.52-2.36-6.11S580.85,205,578.39,205z"/>
		<path class="st3" d="M649.58,201.9c1-0.88,2.19-1.56,3.56-2.06s2.81-0.75,4.31-0.75c4.33,0,7.88,1.43,10.64,4.3
			c2.76,2.86,4.14,6.54,4.14,11.02c0,4.08-1.41,7.5-4.22,10.23c-2.81,2.74-6.35,4.11-10.62,4.11c-2.02,0-3.78-0.35-5.27-1.05
			s-2.7-1.74-3.64-3.14v2.06c0,0.42-0.16,0.75-0.48,0.98c-0.32,0.24-0.78,0.36-1.36,0.36h-4.81c-1.42,0-2.42-0.27-3.02-0.8
			s-0.89-1.42-0.89-2.67c0-1.1,0.29-1.94,0.86-2.52c0.57-0.57,1.42-0.86,2.55-0.86h0.5V194h-0.5c-1.12,0-1.98-0.3-2.58-0.89
			s-0.89-1.45-0.89-2.58c0-1.23,0.3-2.11,0.91-2.66c0.6-0.54,1.62-0.81,3.06-0.81h5.84c0.67,0,1.15,0.16,1.45,0.48
			c0.3,0.32,0.45,0.85,0.45,1.58V201.9z M656.48,205.75c-2.04,0-3.73,0.77-5.08,2.3s-2.02,3.47-2.02,5.83c0,2.42,0.67,4.39,2,5.92
			s3.03,2.3,5.09,2.3s3.77-0.77,5.11-2.31c1.34-1.54,2.02-3.51,2.02-5.91c0-2.33-0.68-4.27-2.03-5.81
			C660.22,206.52,658.53,205.75,656.48,205.75z"/>
		<path class="st3" d="M706.36,221.12h0.5c1.12,0,1.98,0.3,2.58,0.89s0.89,1.44,0.89,2.55c0,1.21-0.31,2.08-0.92,2.61
			s-1.63,0.8-3.05,0.8h-2.94c-1.04,0-1.82-0.2-2.33-0.59c-0.51-0.4-0.93-1.11-1.27-2.16c-1.73,1.15-3.56,2.02-5.5,2.62
			s-3.9,0.91-5.88,0.91c-3.35,0-5.99-0.83-7.91-2.5c-1.92-1.67-2.88-3.95-2.88-6.84c0-3.12,1.24-5.55,3.72-7.28
			c2.48-1.73,5.96-2.59,10.44-2.59c1,0,2.06,0.05,3.19,0.16c1.12,0.1,2.39,0.27,3.78,0.5v-0.59c0-1.88-0.45-3.3-1.36-4.28
			c-0.91-0.98-2.25-1.47-4.02-1.47c-1.38,0-3.13,0.51-5.27,1.53c-2.14,1.02-3.7,1.53-4.7,1.53c-0.98,0-1.77-0.29-2.38-0.86
			c-0.6-0.57-0.91-1.33-0.91-2.27c0-1.69,1.23-3.03,3.7-4.02c2.47-0.99,5.83-1.48,10.08-1.48c4.44,0,7.61,0.85,9.53,2.56
			c1.92,1.71,2.88,4.6,2.88,8.69V221.12z M698.8,215.09c-1.04-0.23-2-0.4-2.88-0.52c-0.88-0.11-1.69-0.17-2.44-0.17
			c-2.29,0-4.09,0.39-5.39,1.16c-1.3,0.77-1.95,1.83-1.95,3.19c0,1.21,0.42,2.13,1.25,2.77c0.83,0.64,2.03,0.95,3.59,0.95
			c1.44,0,2.79-0.21,4.06-0.62c1.27-0.42,2.52-1.06,3.75-1.94V215.09z"/>
		<path class="st3" d="M727.05,211l6.59-5.94c-0.65-0.21-1.09-0.49-1.33-0.84c-0.24-0.35-0.36-0.91-0.36-1.66
			c0-1.27,0.28-2.17,0.84-2.69c0.56-0.52,1.56-0.78,3-0.78h6.91c1.42,0,2.42,0.26,3.02,0.78c0.59,0.52,0.89,1.4,0.89,2.62
			c0,0.92-0.17,1.58-0.52,2c-0.34,0.42-1.05,0.73-2.11,0.94c-0.98,0.19-1.85,0.5-2.61,0.94s-1.64,1.17-2.64,2.19l-2.22,2.31
			l8.25,10.25h0.78c1.21,0,2.11,0.28,2.72,0.84s0.91,1.41,0.91,2.53c0,1.23-0.3,2.11-0.91,2.66c-0.6,0.54-1.62,0.81-3.06,0.81h-7.66
			c-1.35,0-2.33-0.23-2.94-0.69c-0.6-0.46-0.91-1.19-0.91-2.19c0-0.75,0.18-1.35,0.53-1.8c0.35-0.45,0.94-0.83,1.75-1.14l-5.09-6.22
			l-3.84,3.53v6.44c0,0.79-0.14,1.33-0.41,1.62c-0.27,0.29-0.76,0.44-1.47,0.44h-5.62c-1.38,0-2.36-0.27-2.95-0.81
			c-0.59-0.54-0.89-1.43-0.89-2.66c0-1.1,0.28-1.94,0.84-2.52c0.56-0.57,1.4-0.86,2.5-0.86h0.5V194h-0.5c-1.1,0-1.95-0.3-2.53-0.91
			c-0.58-0.6-0.88-1.46-0.88-2.56c0-1.21,0.3-2.09,0.91-2.64c0.6-0.55,1.6-0.83,3-0.83h5.62c0.71,0,1.2,0.15,1.47,0.44
			c0.27,0.29,0.41,0.83,0.41,1.62V211z"/>
		<path class="st3" d="M761.92,215.37c0.54,2.31,1.59,4.04,3.14,5.19c1.55,1.15,3.62,1.72,6.2,1.72s5.14-0.63,7.66-1.89
			c2.52-1.26,4.04-1.89,4.56-1.89c0.77,0,1.4,0.29,1.89,0.86c0.49,0.57,0.73,1.31,0.73,2.2c0,1.96-1.45,3.65-4.34,5.06
			s-6.48,2.12-10.75,2.12c-5.04,0-9.14-1.42-12.3-4.25c-3.16-2.83-4.73-6.48-4.73-10.94c0-4.44,1.58-8.07,4.73-10.91
			c3.16-2.83,7.25-4.25,12.3-4.25c4.5,0,8.23,1.33,11.19,3.98s4.44,5.91,4.44,9.77c0,1.23-0.3,2.07-0.89,2.53
			c-0.59,0.46-1.82,0.69-3.67,0.69H761.92z M778.77,210.5c-0.35-1.94-1.27-3.44-2.73-4.5s-3.38-1.59-5.73-1.59
			c-2.27,0-4.1,0.51-5.48,1.52c-1.39,1.01-2.35,2.54-2.89,4.58H778.77z"/>
		<path class="st3" d="M330.75,276.8h6.72c1.44,0,2.46,0.27,3.06,0.8c0.6,0.53,0.91,1.4,0.91,2.61c0,1.21-0.31,2.08-0.92,2.62
			c-0.61,0.54-1.63,0.81-3.05,0.81h-6.72v14.28h6.22c1.44,0,2.46,0.26,3.06,0.78c0.6,0.52,0.91,1.39,0.91,2.59
			c0,1.23-0.31,2.11-0.92,2.66c-0.61,0.54-1.63,0.81-3.05,0.81h-17.22c-1.44,0-2.46-0.27-3.06-0.81c-0.6-0.54-0.91-1.43-0.91-2.66
			c0-1.21,0.3-2.07,0.89-2.59c0.59-0.52,1.62-0.78,3.08-0.78h3.31v-14.28h-3.31c-1.44,0-2.46-0.27-3.06-0.81
			c-0.6-0.54-0.91-1.42-0.91-2.62c0-1.23,0.3-2.1,0.89-2.62c0.59-0.52,1.62-0.78,3.08-0.78h3.31v-1.78c0-4.08,1.05-6.98,3.16-8.7
			c2.1-1.72,5.69-2.58,10.75-2.58c2.62,0,4.56,0.31,5.8,0.94c1.24,0.62,1.86,1.59,1.86,2.91c0,0.88-0.28,1.57-0.83,2.09
			c-0.55,0.52-1.3,0.78-2.23,0.78c-0.69,0-1.66-0.09-2.92-0.28c-1.26-0.19-2.14-0.28-2.64-0.28c-1.94,0-3.3,0.43-4.08,1.3
			c-0.78,0.86-1.17,2.39-1.17,4.58V276.8z"/>
		<path class="st3" d="M367.16,275.2c5.06,0,9.17,1.42,12.31,4.25c3.15,2.83,4.72,6.47,4.72,10.91c0,4.46-1.57,8.1-4.72,10.94
			c-3.15,2.83-7.25,4.25-12.31,4.25c-5.04,0-9.14-1.42-12.28-4.25c-3.15-2.83-4.72-6.48-4.72-10.94c0-4.44,1.58-8.07,4.73-10.91
			C358.05,276.62,362.14,275.2,367.16,275.2z M367.16,281.8c-2.44,0-4.44,0.8-6.02,2.39c-1.57,1.59-2.36,3.63-2.36,6.11
			c0,2.5,0.79,4.57,2.36,6.2c1.57,1.64,3.58,2.45,6.02,2.45s4.45-0.82,6.03-2.45c1.58-1.64,2.38-3.7,2.38-6.2
			c0-2.48-0.79-4.52-2.36-6.11C371.63,282.59,369.61,281.8,367.16,281.8z"/>
		<path class="st3" d="M404.16,287.8v10.12h7.38c1.42,0,2.42,0.26,3.02,0.78c0.59,0.52,0.89,1.39,0.89,2.59
			c0,1.23-0.3,2.11-0.89,2.66c-0.59,0.54-1.6,0.81-3.02,0.81h-17.47c-1.44,0-2.46-0.27-3.06-0.81c-0.6-0.54-0.91-1.43-0.91-2.66
			c0-1.21,0.3-2.07,0.9-2.59c0.6-0.52,1.63-0.78,3.09-0.78h2.39v-15.19h-1.35c-1.43,0-2.44-0.27-3.03-0.8
			c-0.6-0.53-0.9-1.41-0.9-2.64c0-1.23,0.29-2.1,0.86-2.62c0.57-0.52,1.59-0.78,3.05-0.78h6.66c0.56,0,1,0.12,1.31,0.36
			c0.31,0.24,0.47,0.57,0.47,0.98v4.62c2.27-2.44,4.39-4.18,6.36-5.22c1.97-1.04,4.09-1.56,6.36-1.56c2.06,0,3.7,0.46,4.91,1.39
			c1.21,0.93,1.81,2.17,1.81,3.73c0,1.21-0.42,2.2-1.25,2.98c-0.83,0.78-1.91,1.17-3.22,1.17c-0.94,0-2.05-0.34-3.33-1.03
			s-2.17-1.03-2.67-1.03c-1,0-2.18,0.45-3.53,1.34C407.61,284.54,406.01,285.92,404.16,287.8z"/>
		<path class="st3" d="M487.12,298.11h5.06c1.4,0,2.41,0.26,3.03,0.78c0.62,0.52,0.94,1.38,0.94,2.56c0,1.17-0.3,2.01-0.91,2.53
			c-0.6,0.52-1.62,0.78-3.06,0.78h-18.44c-1.44,0-2.46-0.26-3.06-0.78c-0.6-0.52-0.91-1.36-0.91-2.53c0-1.19,0.31-2.04,0.92-2.56
			c0.61-0.52,1.63-0.78,3.05-0.78h5.81v-26.38l-3.5,0.91c-0.54,0.12-0.99,0.22-1.34,0.28c-0.35,0.06-0.61,0.09-0.78,0.09
			c-0.85,0-1.52-0.27-1.98-0.81c-0.47-0.54-0.7-1.31-0.7-2.31c0-0.73,0.26-1.34,0.78-1.84c0.52-0.5,1.32-0.89,2.41-1.16l7.75-2.12
			c0.65-0.17,1.18-0.29,1.59-0.38c0.42-0.08,0.76-0.12,1.03-0.12c0.83,0,1.43,0.23,1.78,0.69c0.35,0.46,0.53,1.23,0.53,2.31V298.11z
			"/>
		<path class="st3" d="M515.09,272.33v7.22c1.35-0.4,2.58-0.69,3.69-0.88c1.1-0.19,2.14-0.28,3.09-0.28c3.75,0,6.78,1.23,9.09,3.7
			s3.47,5.71,3.47,9.73c0,4.54-1.42,8.01-4.25,10.39c-2.83,2.39-6.95,3.58-12.34,3.58c-3.88,0-6.82-0.43-8.83-1.28
			c-2.01-0.85-3.02-2.11-3.02-3.78c0-1,0.35-1.86,1.06-2.58c0.71-0.72,1.55-1.08,2.53-1.08c0.6,0,1.91,0.3,3.92,0.91
			c2.01,0.6,3.73,0.91,5.17,0.91c2.35,0,4.18-0.61,5.47-1.83c1.29-1.22,1.94-2.94,1.94-5.17c0-2.17-0.61-3.89-1.83-5.17
			s-2.87-1.92-4.95-1.92c-1.33,0-2.92,0.43-4.75,1.28c-1.83,0.85-3.08,1.28-3.75,1.28c-1.19,0-2.03-0.33-2.53-0.98
			s-0.75-1.78-0.75-3.36v-15.12c0-1.12,0.15-1.83,0.45-2.12c0.3-0.29,0.82-0.44,1.55-0.44H530c1.29,0,2.19,0.26,2.7,0.77
			c0.51,0.51,0.77,1.43,0.77,2.77c0,1.31-0.25,2.22-0.75,2.72s-1.41,0.75-2.72,0.75H515.09z"/>
		<path class="st3" d="M599.59,278.02c0.88-0.94,1.89-1.65,3.03-2.14c1.15-0.49,2.38-0.73,3.69-0.73c2.83,0,4.88,0.84,6.12,2.52
			c1.25,1.68,1.88,4.48,1.88,8.42v11.84h0.44c0.98,0,1.71,0.29,2.2,0.86c0.49,0.57,0.73,1.41,0.73,2.52c0,1.25-0.25,2.14-0.77,2.67
			s-1.38,0.8-2.61,0.8H609c-0.56,0-1-0.12-1.31-0.36c-0.31-0.24-0.47-0.57-0.47-0.98v-17.66c0-1.4-0.22-2.44-0.66-3.12
			s-1.07-1.03-1.91-1.03c-1.04,0-1.85,0.46-2.42,1.39c-0.57,0.93-0.86,2.26-0.86,3.98v10.94h0.47c0.96,0,1.69,0.29,2.19,0.86
			c0.5,0.57,0.75,1.41,0.75,2.52c0,1.25-0.26,2.14-0.78,2.67s-1.4,0.8-2.62,0.8h-5.31c-0.56,0-1.01-0.12-1.34-0.36
			c-0.33-0.24-0.5-0.57-0.5-0.98v-17.66c0-1.4-0.21-2.44-0.62-3.12s-1.04-1.03-1.88-1.03c-1.04,0-1.86,0.47-2.45,1.41
			s-0.89,2.26-0.89,3.97v10.94h0.47c0.98,0,1.71,0.28,2.2,0.84s0.73,1.41,0.73,2.53c0,1.25-0.26,2.14-0.78,2.67s-1.4,0.8-2.62,0.8
			h-7.09c-1.21,0-2.07-0.27-2.59-0.81c-0.52-0.54-0.78-1.43-0.78-2.66c0-1.1,0.25-1.94,0.73-2.52c0.49-0.57,1.22-0.86,2.2-0.86h0.44
			v-15.19h-0.44c-0.98,0-1.72-0.3-2.23-0.89c-0.51-0.59-0.77-1.44-0.77-2.55c0-1.21,0.27-2.08,0.8-2.61s1.41-0.8,2.64-0.8h4.22
			c0.85,0,1.43,0.17,1.73,0.52s0.45,1.01,0.45,1.98c0.77-1.06,1.7-1.87,2.78-2.42c1.08-0.55,2.29-0.83,3.62-0.83
			c1.21,0,2.26,0.23,3.16,0.7S598.93,277.04,599.59,278.02z"/>
		<path class="st3" d="M640.38,297.92h6.72c1.44,0,2.46,0.26,3.06,0.78c0.6,0.52,0.91,1.39,0.91,2.59c0,1.23-0.31,2.11-0.92,2.66
			c-0.61,0.54-1.63,0.81-3.05,0.81h-21.12c-1.42,0-2.43-0.27-3.05-0.81c-0.61-0.54-0.92-1.43-0.92-2.66c0-1.21,0.3-2.07,0.89-2.59
			c0.59-0.52,1.62-0.78,3.08-0.78h6.72v-15.19h-3.53c-1.4,0-2.4-0.27-3-0.8s-0.91-1.41-0.91-2.64c0-1.23,0.29-2.1,0.88-2.62
			c0.58-0.52,1.59-0.78,3.03-0.78h9.41c0.58,0,1.03,0.12,1.34,0.36c0.31,0.24,0.47,0.57,0.47,0.98V297.92z M635.88,261.77
			c1.52,0,2.53,0.29,3.03,0.88c0.5,0.58,0.75,1.98,0.75,4.19c0,2.12-0.22,3.44-0.67,3.95c-0.45,0.51-1.5,0.77-3.17,0.77
			c-1.62,0-2.67-0.24-3.14-0.72c-0.47-0.48-0.7-1.44-0.7-2.88c0-2.67,0.24-4.36,0.72-5.09
			C633.17,262.13,634.23,261.77,635.88,261.77z"/>
		<path class="st3" d="M687.53,297.86h0.41c1.17,0,2.04,0.29,2.62,0.86c0.58,0.57,0.88,1.43,0.88,2.58c0,1.23-0.3,2.11-0.89,2.66
			c-0.59,0.54-1.6,0.81-3.02,0.81h-7.69c-1.4,0-2.4-0.27-3.02-0.81c-0.61-0.54-0.92-1.43-0.92-2.66c0-1.15,0.3-2,0.89-2.58
			c0.59-0.57,1.48-0.86,2.67-0.86h0.38v-9.03c0-2.5-0.35-4.28-1.05-5.33c-0.7-1.05-1.86-1.58-3.48-1.58c-1.73,0-3.14,0.63-4.23,1.89
			c-1.09,1.26-1.64,2.93-1.64,5.02v9.03h0.38c1.19,0,2.07,0.29,2.66,0.86c0.58,0.57,0.88,1.43,0.88,2.58c0,1.23-0.3,2.11-0.91,2.66
			c-0.6,0.54-1.6,0.81-3,0.81h-7.75c-1.4,0-2.4-0.27-3-0.81c-0.6-0.54-0.91-1.43-0.91-2.66c0-1.15,0.29-2,0.88-2.58
			c0.58-0.57,1.47-0.86,2.66-0.86h0.38v-15.12h-0.53c-1.12,0-1.98-0.29-2.56-0.86c-0.58-0.57-0.88-1.41-0.88-2.52
			c0-1.23,0.3-2.11,0.91-2.66c0.6-0.54,1.62-0.81,3.06-0.81H667c0.58,0,1.03,0.11,1.33,0.34c0.3,0.23,0.45,0.56,0.45,1v2.44
			c0.96-1.5,2.18-2.63,3.67-3.39c1.49-0.76,3.21-1.14,5.17-1.14c3.33,0,5.82,1.01,7.45,3.03c1.64,2.02,2.45,5.1,2.45,9.25V297.86z"
			/>
		<path class="st3" d="M704.56,304.33c-0.54,0.42-1.1,0.73-1.67,0.95s-1.16,0.33-1.77,0.33c-0.9,0-1.53-0.24-1.89-0.72
			s-0.55-1.38-0.55-2.69v-4.16c0-1.38,0.23-2.35,0.69-2.92c0.46-0.57,1.25-0.86,2.38-0.86c1.23,0,2.23,0.59,3,1.78
			c0.46,0.65,0.84,1.12,1.16,1.44c1.02,0.92,2.21,1.6,3.56,2.06c1.35,0.46,2.9,0.69,4.62,0.69c1.5,0,2.7-0.29,3.59-0.88
			c0.9-0.58,1.34-1.34,1.34-2.28c0-1.69-2.41-2.85-7.22-3.5c-1.06-0.12-1.9-0.24-2.5-0.34c-3.62-0.5-6.32-1.48-8.09-2.95
			s-2.66-3.44-2.66-5.92c0-2.94,1.06-5.21,3.19-6.81c2.12-1.6,5.16-2.41,9.09-2.41c1.35,0,2.75,0.11,4.17,0.33s2.89,0.56,4.39,1.02
			c0.44-0.52,0.9-0.91,1.39-1.16s1.04-0.38,1.64-0.38c0.85,0,1.5,0.27,1.95,0.8s0.67,1.33,0.67,2.39v3.84c0,0.9-0.23,1.59-0.69,2.08
			c-0.46,0.49-1.1,0.73-1.94,0.73c-0.85,0-2.32-0.74-4.39-2.23c-2.07-1.49-4.15-2.23-6.23-2.23c-1.62,0-2.89,0.27-3.78,0.8
			s-1.34,1.27-1.34,2.2c0,1.46,1.88,2.44,5.62,2.94c1.08,0.12,1.94,0.23,2.56,0.31c4.71,0.69,7.94,1.71,9.7,3.08
			c1.76,1.36,2.64,3.39,2.64,6.08c0,3.15-1.16,5.58-3.48,7.3s-5.62,2.58-9.89,2.58c-1.67,0-3.27-0.11-4.81-0.33
			S706,304.75,704.56,304.33z"/>
		<path class="st3" d="M751.22,294.98c1.88,0,3.37,0.47,4.48,1.42c1.11,0.95,1.67,2.2,1.67,3.77s-0.56,2.84-1.69,3.83
			s-2.61,1.48-4.47,1.48c-1.79,0-3.26-0.5-4.41-1.5s-1.72-2.27-1.72-3.81c0-1.52,0.57-2.77,1.72-3.73S749.43,294.98,751.22,294.98z
			 M755.31,269.83l-1.19,20.28c-0.04,0.69-0.33,1.26-0.86,1.7c-0.53,0.45-1.21,0.67-2.05,0.67c-0.79,0-1.46-0.23-2-0.69
			c-0.54-0.46-0.83-1.02-0.88-1.69l-1.22-20.28v-0.25c0-1.23,0.36-2.2,1.09-2.91c0.73-0.71,1.73-1.06,3-1.06
			c1.29,0,2.3,0.34,3.02,1.03s1.08,1.65,1.08,2.88V269.83z"/>
	</g>
</g>
<g id="button_still" class="st2">
	<path class="st4" d="M600.44,748.47h-120.9c-27.29,0-49.42-22.13-49.42-49.42v0c0-27.29,22.13-49.42,49.42-49.42h120.9
		c27.29,0,49.42,22.13,49.42,49.42v0C649.86,726.34,627.74,748.47,600.44,748.47z"/>
	<path class="st4" d="M787.53,699.05c0,20.79-16.85,37.66-37.62,37.66c-20.8,0-37.68-16.87-37.68-37.66
		c0-20.78,16.88-37.66,37.68-37.66C770.68,661.4,787.53,678.27,787.53,699.05z"/>
	<path class="st4" d="M911.81,699.05c0,20.79-16.85,37.66-37.65,37.66c-20.8,0-37.67-16.87-37.67-37.66
		c0-20.78,16.88-37.66,37.67-37.66C894.97,661.4,911.81,678.27,911.81,699.05z"/>
	<path class="st4" d="M292.44,699.05c0,20.79,16.85,37.66,37.65,37.66c20.79,0,37.66-16.87,37.66-37.66
		c0-20.78-16.86-37.66-37.66-37.66C309.3,661.4,292.44,678.27,292.44,699.05z"/>
	<path class="st4" d="M168.2,699.05c0,20.79,16.85,37.66,37.66,37.66c20.79,0,37.65-16.87,37.65-37.66
		c0-20.78-16.86-37.66-37.65-37.66C185.05,661.4,168.2,678.27,168.2,699.05z"/>
</g>
<g id="button_heat">
	<g>
		<g>
			<path class="st5" d="M434.61,919.7c0,6.38-4.74,11.54-10.6,11.54h-37.43c-5.86,0-10.61-5.16-10.61-11.54l9.56-24.31
				c0-6.37,4.75-11.53,10.61-11.53h18.31c5.86,0,10.6,5.16,10.6,11.53L434.61,919.7z"/>
			<path class="st5" d="M645.4,919.7c0,6.38,4.74,11.54,10.6,11.54h37.43c5.86,0,10.6-5.16,10.6-11.54l-9.56-24.31
				c0-6.37-4.74-11.53-10.6-11.53h-18.29c-5.86,0-10.61,5.16-10.61,11.53L645.4,919.7z"/>
			<path class="st5" d="M385.53,895.39l-8.91,22.67c1.47,3.84,5.35,6.62,9.96,6.62h37.43c4.61,0,8.5-2.78,9.96-6.62l-8.92-22.67
				c0-6.37-4.74-11.53-10.6-11.53h-18.31C390.28,883.86,385.53,889.02,385.53,895.39z"/>
			<path class="st5" d="M654.95,895.39l-8.91,22.67c1.45,3.84,5.34,6.62,9.95,6.62h37.43c4.61,0,8.49-2.78,9.96-6.62l-8.92-22.67
				c0-6.37-4.74-11.53-10.6-11.53h-18.29C659.7,883.86,654.95,889.02,654.95,895.39z"/>
		</g>
		<g>
			<path class="st5" d="M710.15,378.53c0,7.69-6.23,13.92-13.93,13.92h-85.59c-7.69,0-13.92-6.23-13.92-13.92l0,0
				c0-7.69,6.23-13.93,13.92-13.93h85.59C703.91,364.6,710.15,370.83,710.15,378.53L710.15,378.53z"/>
			<path class="st5" d="M560.69,378.53c0-7.69-6.24-13.93-13.94-13.93H383.77c-7.69,0-13.93,6.23-13.93,13.93l0,0
				c0,7.69,6.24,13.92,13.93,13.92h162.98C554.45,392.45,560.69,386.21,560.69,378.53L560.69,378.53z"/>
		</g>
		<path class="st6" d="M762.39,876.45c0,17.1-13.99,31.09-31.09,31.09H348.69c-17.1,0-31.09-13.99-31.09-31.09V413.18
			c0-17.1,13.99-31.09,31.09-31.09H731.3c17.1,0,31.09,13.99,31.09,31.09V876.45z"/>
		<path class="st5" d="M710.65,554.11c0-18.26-14.54-33.21-32.3-33.21H401.64c-17.76,0-32.3,14.95-32.3,33.21v237.98
			c0,18.27,14.54,33.2,32.3,33.2h276.71c17.76,0,32.3-14.93,32.3-33.2V554.11z"/>
		<rect x="399.29" y="549.96" class="st7" width="281.42" height="246.28"/>
		<path class="st8" d="M660.89,462.47c0,13.19-10.68,23.88-23.87,23.88c-13.19,0-23.88-10.69-23.88-23.88
			c0-13.19,10.69-23.87,23.88-23.87C650.2,438.59,660.89,449.28,660.89,462.47z"/>
		<path class="st8" d="M718.31,462.47c0,13.19-10.7,23.88-23.87,23.88c-13.2,0-23.88-10.69-23.88-23.88
			c0-13.19,10.69-23.87,23.88-23.87C707.62,438.59,718.31,449.28,718.31,462.47z"/>
		<path class="st8" d="M419.11,462.47c0,13.19,10.68,23.88,23.87,23.88c13.18,0,23.88-10.69,23.88-23.88
			c0-13.19-10.7-23.87-23.88-23.87C429.8,438.59,419.11,449.28,419.11,462.47z"/>
		<path class="st8" d="M361.69,462.47c0,13.19,10.69,23.88,23.87,23.88c13.19,0,23.87-10.69,23.87-23.88
			c0-13.19-10.68-23.87-23.87-23.87C372.37,438.59,361.69,449.28,361.69,462.47z"/>
		<path class="st8" d="M694.45,549.18c0,4.12-3.34,7.46-7.46,7.46H393.01c-4.11,0-7.46-3.34-7.46-7.46l0,0
			c0-4.12,3.34-7.45,7.46-7.45h293.97C691.1,541.72,694.45,545.06,694.45,549.18L694.45,549.18z"/>
		<rect x="387.9" y="663.6" class="st5" width="304.2" height="19"/>
		<path class="st5" d="M651.54,863.29c0,3.84-2.28,6.98-5.08,6.98H433.54c-2.81,0-5.08-3.14-5.08-6.98l0,0
			c0-3.87,2.27-6.98,5.08-6.98h212.93C649.27,856.31,651.54,859.42,651.54,863.29L651.54,863.29z"/>
		<path class="st3" d="M567.94,485.31h-55.88c-12.62,0-22.84-10.23-22.84-22.84v0c0-12.62,10.23-22.84,22.84-22.84h55.88
			c12.62,0,22.84,10.23,22.84,22.84v0C590.78,475.08,580.55,485.31,567.94,485.31z"/>
		<path class="st3" d="M654.41,462.47c0,9.61-7.79,17.4-17.39,17.4c-9.61,0-17.42-7.8-17.42-17.4c0-9.6,7.8-17.41,17.42-17.41
			C646.62,445.06,654.41,452.86,654.41,462.47z"/>
		<path class="st3" d="M711.85,462.47c0,9.61-7.79,17.4-17.4,17.4c-9.61,0-17.41-7.8-17.41-17.4c0-9.6,7.8-17.41,17.41-17.41
			C704.06,445.06,711.85,452.86,711.85,462.47z"/>
		<path class="st3" d="M425.58,462.47c0,9.61,7.79,17.4,17.4,17.4c9.61,0,17.4-7.8,17.4-17.4c0-9.6-7.79-17.41-17.4-17.41
			C433.37,445.06,425.58,452.86,425.58,462.47z"/>
		<path class="st3" d="M368.16,462.47c0,9.61,7.79,17.4,17.4,17.4c9.61,0,17.4-7.8,17.4-17.4c0-9.6-7.79-17.41-17.4-17.41
			C375.94,445.06,368.16,452.86,368.16,462.47z"/>
	</g>
</g>
<g id="allmix" class="st2">
	<g class="st16">
		<path class="st11" d="M722.07,541.12c-25.34,97.57-82.9,159.4-206.79,169.6c-83.87,28.65-172.43-108.95-119.19-162.84
			c-9.98-134.17,47.08-176.3,147.82-163.48C640.56,333.03,683.16,466.53,722.07,541.12z"/>
	</g>
	<path class="st17" d="M449.51,494.72c-12.55,34.76-9.5,74.84,8.17,107.3"/>
	<path class="st17" d="M528.92,459.54c15.24,3.94,30.16,9.97,42.61,19.61c12.45,9.64,22.3,23.15,25.59,38.55"/>
	<path class="st17" d="M518.7,601.92c2.4,6.42,8.31,11.03,14.7,13.48c6.4,2.46,13.33,3.05,20.17,3.61
		c32.76,2.69,68.19,4.47,95.85-13.29"/>
	<path class="st17" d="M620.28,467.21c12.17,24.37,17.5,52.11,15.24,79.26"/>
</g>
</svg>
